<svg xmlns="http://www.w3.org/2000/svg" xmlns:xlink="http://www.w3.org/1999/xlink" width="500" zoomAndPan="magnify" viewBox="0 0 375 374.999991" height="500" preserveAspectRatio="xMidYMid meet" version="1.0"><defs><filter x="0%" y="0%" width="100%" height="100%" id="577e2c96db"><feColorMatrix values="0 0 0 0 1 0 0 0 0 1 0 0 0 0 1 0 0 0 1 0" color-interpolation-filters="sRGB"/></filter><g/><mask id="4fa5f1e491"><g filter="url(#577e2c96db)"><rect x="-37.5" width="450" fill="#000000" y="-37.499999" height="449.999989" fill-opacity="0.22"/></g></mask><clipPath id="e60f53923e"><path d="M 2.40625 5.40625 L 312.90625 5.40625 L 312.90625 315.90625 L 2.40625 315.90625 Z M 2.40625 5.40625 " clip-rule="nonzero"/></clipPath><clipPath id="8245470f08"><rect x="0" width="317" y="0" height="317"/></clipPath><clipPath id="6ca6c68200"><path d="M 15.273438 15.273438 L 359.523438 15.273438 L 359.523438 359.523438 L 15.273438 359.523438 Z M 15.273438 15.273438 " clip-rule="nonzero"/></clipPath></defs><g mask="url(#4fa5f1e491)"><g transform="matrix(1, 0, 0, 1, 30, 27)"><g clip-path="url(#8245470f08)"><g clip-path="url(#e60f53923e)"><path fill="#00bf63" d="M 312.597656 160.464844 C 312.597656 163.003906 312.535156 165.539062 312.410156 168.078125 C 312.289062 170.613281 312.101562 173.144531 311.851562 175.671875 C 311.601562 178.199219 311.292969 180.71875 310.917969 183.230469 C 310.546875 185.742188 310.113281 188.242188 309.617188 190.730469 C 309.121094 193.222656 308.566406 195.699219 307.949219 198.164062 C 307.332031 200.625 306.65625 203.070312 305.917969 205.5 C 305.179688 207.929688 304.382812 210.34375 303.527344 212.734375 C 302.671875 215.125 301.761719 217.492188 300.789062 219.835938 C 299.816406 222.183594 298.789062 224.503906 297.703125 226.800781 C 296.617188 229.09375 295.476562 231.363281 294.277344 233.601562 C 293.082031 235.839844 291.832031 238.050781 290.523438 240.226562 C 289.21875 242.40625 287.863281 244.550781 286.449219 246.660156 C 285.039062 248.773438 283.578125 250.847656 282.066406 252.886719 C 280.554688 254.925781 278.992188 256.929688 277.378906 258.890625 C 275.769531 260.855469 274.113281 262.777344 272.40625 264.65625 C 270.703125 266.539062 268.949219 268.378906 267.15625 270.171875 C 265.359375 271.96875 263.523438 273.71875 261.640625 275.425781 C 259.757812 277.128906 257.835938 278.789062 255.875 280.398438 C 253.910156 282.007812 251.910156 283.570312 249.871094 285.082031 C 247.832031 286.597656 245.753906 288.058594 243.644531 289.46875 C 241.53125 290.878906 239.386719 292.238281 237.210938 293.542969 C 235.03125 294.847656 232.824219 296.097656 230.585938 297.296875 C 228.34375 298.492188 226.078125 299.632812 223.78125 300.71875 C 221.488281 301.804688 219.167969 302.835938 216.820312 303.804688 C 214.472656 304.777344 212.105469 305.691406 209.714844 306.546875 C 207.324219 307.402344 204.914062 308.199219 202.484375 308.933594 C 200.054688 309.671875 197.609375 310.347656 195.144531 310.964844 C 192.683594 311.582031 190.203125 312.140625 187.714844 312.636719 C 185.222656 313.128906 182.722656 313.5625 180.210938 313.9375 C 177.699219 314.308594 175.179688 314.621094 172.652344 314.871094 C 170.125 315.117188 167.59375 315.304688 165.058594 315.429688 C 162.523438 315.554688 159.984375 315.617188 157.445312 315.617188 C 154.90625 315.617188 152.367188 315.554688 149.832031 315.429688 C 147.296875 315.304688 144.765625 315.117188 142.238281 314.871094 C 139.710938 314.621094 137.191406 314.308594 134.679688 313.9375 C 132.167969 313.5625 129.667969 313.128906 127.175781 312.636719 C 124.6875 312.140625 122.210938 311.582031 119.746094 310.964844 C 117.285156 310.347656 114.835938 309.671875 112.40625 308.933594 C 109.976562 308.199219 107.566406 307.402344 105.175781 306.546875 C 102.785156 305.691406 100.417969 304.777344 98.070312 303.804688 C 95.726562 302.835938 93.40625 301.804688 91.109375 300.71875 C 88.8125 299.632812 86.546875 298.492188 84.308594 297.296875 C 82.066406 296.097656 79.859375 294.847656 77.679688 293.542969 C 75.503906 292.238281 73.359375 290.878906 71.246094 289.46875 C 69.136719 288.058594 67.058594 286.597656 65.019531 285.082031 C 62.980469 283.570312 60.980469 282.007812 59.015625 280.398438 C 57.054688 278.789062 55.132812 277.128906 53.25 275.425781 C 51.371094 273.71875 49.53125 271.96875 47.734375 270.171875 C 45.941406 268.378906 44.191406 266.539062 42.484375 264.65625 C 40.78125 262.777344 39.121094 260.855469 37.511719 258.890625 C 35.898438 256.929688 34.339844 254.925781 32.824219 252.886719 C 31.3125 250.847656 29.851562 248.773438 28.441406 246.660156 C 27.03125 244.550781 25.671875 242.40625 24.367188 240.226562 C 23.0625 238.050781 21.808594 235.839844 20.613281 233.601562 C 19.414062 231.363281 18.273438 229.09375 17.1875 226.800781 C 16.101562 224.503906 15.074219 222.183594 14.101562 219.835938 C 13.132812 217.492188 12.21875 215.125 11.363281 212.734375 C 10.507812 210.34375 9.710938 207.929688 8.972656 205.5 C 8.234375 203.070312 7.558594 200.625 6.941406 198.164062 C 6.324219 195.699219 5.769531 193.222656 5.273438 190.730469 C 4.777344 188.242188 4.34375 185.742188 3.972656 183.230469 C 3.597656 180.71875 3.289062 178.199219 3.039062 175.671875 C 2.789062 173.144531 2.605469 170.613281 2.480469 168.078125 C 2.355469 165.539062 2.292969 163.003906 2.292969 160.464844 C 2.292969 157.925781 2.355469 155.386719 2.480469 152.851562 C 2.605469 150.3125 2.789062 147.78125 3.039062 145.253906 C 3.289062 142.730469 3.597656 140.210938 3.972656 137.699219 C 4.34375 135.1875 4.777344 132.683594 5.273438 130.195312 C 5.769531 127.703125 6.324219 125.226562 6.941406 122.765625 C 7.558594 120.300781 8.234375 117.855469 8.972656 115.425781 C 9.710938 112.996094 10.507812 110.585938 11.363281 108.195312 C 12.21875 105.800781 13.132812 103.433594 14.101562 101.089844 C 15.074219 98.742188 16.101562 96.421875 17.1875 94.125 C 18.273438 91.832031 19.414062 89.5625 20.613281 87.324219 C 21.808594 85.085938 23.0625 82.875 24.367188 80.699219 C 25.671875 78.519531 27.03125 76.375 28.441406 74.265625 C 29.851562 72.152344 31.3125 70.078125 32.824219 68.039062 C 34.339844 66 35.898438 63.996094 37.511719 62.035156 C 39.121094 60.070312 40.78125 58.148438 42.484375 56.269531 C 44.191406 54.386719 45.941406 52.546875 47.734375 50.753906 C 49.53125 48.957031 51.371094 47.207031 53.25 45.503906 C 55.132812 43.796875 57.054688 42.140625 59.015625 40.527344 C 60.980469 38.917969 62.980469 37.355469 65.019531 35.84375 C 67.058594 34.332031 69.136719 32.867188 71.246094 31.457031 C 73.359375 30.046875 75.503906 28.6875 77.679688 27.382812 C 79.859375 26.078125 82.066406 24.828125 84.308594 23.628906 C 86.546875 22.433594 88.8125 21.292969 91.109375 20.207031 C 93.40625 19.121094 95.726562 18.09375 98.070312 17.121094 C 100.417969 16.148438 102.785156 15.234375 105.175781 14.378906 C 107.566406 13.523438 109.976562 12.726562 112.40625 11.992188 C 114.835938 11.253906 117.285156 10.578125 119.746094 9.960938 C 122.210938 9.34375 124.6875 8.785156 127.175781 8.292969 C 129.667969 7.796875 132.167969 7.363281 134.679688 6.988281 C 137.191406 6.617188 139.710938 6.304688 142.238281 6.058594 C 144.765625 5.808594 147.296875 5.621094 149.832031 5.496094 C 152.367188 5.371094 154.90625 5.308594 157.445312 5.308594 C 159.984375 5.308594 162.523438 5.371094 165.058594 5.496094 C 167.59375 5.621094 170.125 5.808594 172.652344 6.058594 C 175.179688 6.304688 177.699219 6.617188 180.210938 6.988281 C 182.722656 7.363281 185.222656 7.796875 187.714844 8.292969 C 190.203125 8.785156 192.683594 9.34375 195.144531 9.960938 C 197.609375 10.578125 200.054688 11.253906 202.484375 11.992188 C 204.914062 12.726562 207.324219 13.523438 209.714844 14.378906 C 212.105469 15.234375 214.472656 16.148438 216.820312 17.121094 C 219.167969 18.09375 221.488281 19.121094 223.78125 20.207031 C 226.078125 21.292969 228.34375 22.433594 230.585938 23.628906 C 232.824219 24.828125 235.03125 26.078125 237.210938 27.382812 C 239.386719 28.6875 241.53125 30.046875 243.644531 31.457031 C 245.753906 32.867188 247.832031 34.332031 249.871094 35.84375 C 251.910156 37.355469 253.910156 38.917969 255.875 40.527344 C 257.835938 42.140625 259.757812 43.796875 261.640625 45.503906 C 263.523438 47.207031 265.359375 48.957031 267.15625 50.753906 C 268.949219 52.546875 270.703125 54.386719 272.40625 56.269531 C 274.113281 58.148438 275.769531 60.070312 277.378906 62.035156 C 278.992188 63.996094 280.554688 66 282.066406 68.039062 C 283.578125 70.078125 285.039062 72.152344 286.449219 74.265625 C 287.863281 76.375 289.21875 78.519531 290.523438 80.699219 C 291.832031 82.875 293.082031 85.085938 294.277344 87.324219 C 295.476562 89.5625 296.617188 91.832031 297.703125 94.125 C 298.789062 96.421875 299.816406 98.742188 300.789062 101.089844 C 301.761719 103.433594 302.671875 105.800781 303.527344 108.195312 C 304.382812 110.585938 305.179688 112.996094 305.917969 115.425781 C 306.65625 117.855469 307.332031 120.300781 307.949219 122.765625 C 308.566406 125.226562 309.121094 127.703125 309.617188 130.195312 C 310.113281 132.683594 310.546875 135.1875 310.917969 137.699219 C 311.292969 140.210938 311.601562 142.730469 311.851562 145.253906 C 312.101562 147.78125 312.289062 150.3125 312.410156 152.851562 C 312.535156 155.386719 312.597656 157.925781 312.597656 160.464844 Z M 312.597656 160.464844 " fill-opacity="1" fill-rule="nonzero"/></g></g></g></g><g fill="#00bf63" fill-opacity="1"><g transform="translate(57.147759, 241.80458)"><g><path d="M 54.71875 0 L 41.640625 0 L 41.640625 -86.25 L 14.703125 -76 L 14.703125 -87.953125 L 53.65625 -102.9375 L 54.71875 -102.9375 Z M 54.71875 0 "/></g></g></g><g fill="#00bf63" fill-opacity="1"><g transform="translate(144.040782, 241.80458)"><g><path d="M 76.921875 -39.375 C 76.921875 -32.820312 76.164062 -27.015625 74.65625 -21.953125 C 73.15625 -16.890625 70.988281 -12.625 68.15625 -9.15625 C 65.332031 -5.6875 61.867188 -3.054688 57.765625 -1.265625 C 53.660156 0.515625 48.96875 1.40625 43.6875 1.40625 C 38.457031 1.40625 33.78125 0.515625 29.65625 -1.265625 C 25.53125 -3.054688 22.03125 -5.6875 19.15625 -9.15625 C 16.28125 -12.625 14.078125 -16.890625 12.546875 -21.953125 C 11.015625 -27.015625 10.25 -32.820312 10.25 -39.375 L 10.25 -63.484375 C 10.25 -70.035156 11.003906 -75.84375 12.515625 -80.90625 C 14.023438 -85.976562 16.203125 -90.257812 19.046875 -93.75 C 21.898438 -97.238281 25.390625 -99.890625 29.515625 -101.703125 C 33.640625 -103.515625 38.316406 -104.421875 43.546875 -104.421875 C 48.828125 -104.421875 53.53125 -103.515625 57.65625 -101.703125 C 61.78125 -99.890625 65.269531 -97.238281 68.125 -93.75 C 70.976562 -90.257812 73.15625 -85.976562 74.65625 -80.90625 C 76.164062 -75.84375 76.921875 -70.035156 76.921875 -63.484375 Z M 23.40625 -42 L 63.484375 -72.75 C 62.734375 -79.582031 60.742188 -84.773438 57.515625 -88.328125 C 54.285156 -91.890625 49.628906 -93.671875 43.546875 -93.671875 C 36.671875 -93.671875 31.59375 -91.347656 28.3125 -86.703125 C 25.039062 -82.066406 23.40625 -75.296875 23.40625 -66.390625 Z M 63.765625 -60.234375 L 23.75 -29.625 C 24.550781 -22.976562 26.601562 -17.910156 29.90625 -14.421875 C 33.207031 -10.929688 37.800781 -9.1875 43.6875 -9.1875 C 50.625 -9.1875 55.703125 -11.539062 58.921875 -16.25 C 62.148438 -20.96875 63.765625 -27.757812 63.765625 -36.625 Z M 63.765625 -60.234375 "/></g></g></g><g fill="#00bf63" fill-opacity="1"><g transform="translate(230.933805, 241.80458)"><g><path d="M 76.921875 -39.375 C 76.921875 -32.820312 76.164062 -27.015625 74.65625 -21.953125 C 73.15625 -16.890625 70.988281 -12.625 68.15625 -9.15625 C 65.332031 -5.6875 61.867188 -3.054688 57.765625 -1.265625 C 53.660156 0.515625 48.96875 1.40625 43.6875 1.40625 C 38.457031 1.40625 33.78125 0.515625 29.65625 -1.265625 C 25.53125 -3.054688 22.03125 -5.6875 19.15625 -9.15625 C 16.28125 -12.625 14.078125 -16.890625 12.546875 -21.953125 C 11.015625 -27.015625 10.25 -32.820312 10.25 -39.375 L 10.25 -63.484375 C 10.25 -70.035156 11.003906 -75.84375 12.515625 -80.90625 C 14.023438 -85.976562 16.203125 -90.257812 19.046875 -93.75 C 21.898438 -97.238281 25.390625 -99.890625 29.515625 -101.703125 C 33.640625 -103.515625 38.316406 -104.421875 43.546875 -104.421875 C 48.828125 -104.421875 53.53125 -103.515625 57.65625 -101.703125 C 61.78125 -99.890625 65.269531 -97.238281 68.125 -93.75 C 70.976562 -90.257812 73.15625 -85.976562 74.65625 -80.90625 C 76.164062 -75.84375 76.921875 -70.035156 76.921875 -63.484375 Z M 23.40625 -42 L 63.484375 -72.75 C 62.734375 -79.582031 60.742188 -84.773438 57.515625 -88.328125 C 54.285156 -91.890625 49.628906 -93.671875 43.546875 -93.671875 C 36.671875 -93.671875 31.59375 -91.347656 28.3125 -86.703125 C 25.039062 -82.066406 23.40625 -75.296875 23.40625 -66.390625 Z M 63.765625 -60.234375 L 23.75 -29.625 C 24.550781 -22.976562 26.601562 -17.910156 29.90625 -14.421875 C 33.207031 -10.929688 37.800781 -9.1875 43.6875 -9.1875 C 50.625 -9.1875 55.703125 -11.539062 58.921875 -16.25 C 62.148438 -20.96875 63.765625 -27.757812 63.765625 -36.625 Z M 63.765625 -60.234375 "/></g></g></g><g clip-path="url(#6ca6c68200)"><path fill="#00bf63" d="M 187.480469 15.273438 C 235.039062 15.273438 278.089844 34.546875 309.253906 65.710938 C 340.421875 96.878906 359.695312 139.929688 359.695312 187.480469 C 359.695312 235.035156 340.421875 278.089844 309.253906 309.253906 C 278.089844 340.421875 235.039062 359.695312 187.480469 359.695312 C 139.929688 359.695312 96.878906 340.421875 65.710938 309.253906 C 34.546875 278.089844 15.273438 235.035156 15.273438 187.480469 C 15.273438 139.929688 34.546875 96.878906 65.710938 65.710938 C 96.878906 34.546875 139.929688 15.273438 187.480469 15.273438 Z M 295.726562 79.242188 C 268.027344 51.539062 229.753906 34.40625 187.480469 34.40625 C 145.214844 34.40625 106.941406 51.539062 79.242188 79.242188 C 51.539062 106.941406 34.40625 145.207031 34.40625 187.480469 C 34.40625 229.753906 51.539062 268.027344 79.242188 295.726562 C 106.941406 323.429688 145.214844 340.5625 187.480469 340.5625 C 229.753906 340.5625 268.027344 323.429688 295.726562 295.726562 C 323.429688 268.027344 340.5625 229.753906 340.5625 187.480469 C 340.5625 145.207031 323.429688 106.941406 295.726562 79.242188 " fill-opacity="1" fill-rule="nonzero"/></g></svg>