<svg xmlns="http://www.w3.org/2000/svg" xmlns:xlink="http://www.w3.org/1999/xlink" width="500" zoomAndPan="magnify" viewBox="0 0 375 74.999997" height="100" preserveAspectRatio="xMidYMid meet" version="1.0"><defs><g/><clipPath id="2e632d4f3c"><path d="M 3.382812 7.5 L 85.882812 7.5 L 85.882812 63.75 L 3.382812 63.75 Z M 3.382812 7.5 " clip-rule="nonzero"/></clipPath></defs><g fill="#ffffff" fill-opacity="1"><g transform="translate(106.824968, 48.184426)"><g><path d="M 0.390625 4.484375 L 0.515625 4.046875 C 1.546875 3.304688 2.328125 2.566406 2.859375 1.828125 C 3.390625 1.085938 3.757812 0.207031 3.96875 -0.8125 C 4.175781 -1.832031 4.28125 -3.1875 4.28125 -4.875 L 4.328125 -20.875 C 4.328125 -21.695312 4.234375 -22.242188 4.046875 -22.515625 C 3.859375 -22.796875 3.488281 -22.9375 2.9375 -22.9375 C 2.613281 -22.9375 2.285156 -22.914062 1.953125 -22.875 C 1.628906 -22.832031 1.398438 -22.8125 1.265625 -22.8125 L 1.078125 -23.140625 L 1.34375 -25.484375 L 6.234375 -25.484375 C 7.335938 -25.484375 8.503906 -25.523438 9.734375 -25.609375 C 10.972656 -25.703125 11.773438 -25.765625 12.140625 -25.796875 L 11.953125 -23.140625 C 11.078125 -23.003906 10.519531 -22.800781 10.28125 -22.53125 C 10.039062 -22.269531 9.894531 -21.757812 9.84375 -21 C 9.738281 -19.195312 9.628906 -16.445312 9.515625 -12.75 C 9.410156 -9.0625 9.347656 -6.160156 9.328125 -4.046875 C 9.328125 -1.429688 8.703125 0.679688 7.453125 2.296875 C 6.210938 3.910156 4.234375 5.171875 1.515625 6.078125 Z M 0.390625 4.484375 "/></g></g></g><g fill="#ffffff" fill-opacity="1"><g transform="translate(120.000948, 48.184426)"><g><path d="M 15.15625 0.46875 C 14 0.46875 13.082031 0.210938 12.40625 -0.296875 C 11.726562 -0.816406 11.320312 -1.578125 11.1875 -2.578125 L 10.875 -2.703125 C 10.03125 -1.828125 9.207031 -1.101562 8.40625 -0.53125 C 7.613281 0.03125 6.984375 0.3125 6.515625 0.3125 C 4.953125 0.3125 3.65625 -0.234375 2.625 -1.328125 C 1.59375 -2.421875 1.078125 -3.789062 1.078125 -5.4375 C 1.078125 -6.257812 1.285156 -6.96875 1.703125 -7.5625 C 2.128906 -8.15625 2.6875 -8.546875 3.375 -8.734375 L 11.03125 -10.515625 L 11.078125 -11.46875 C 11.078125 -12.601562 10.769531 -13.488281 10.15625 -14.125 C 9.550781 -14.757812 8.71875 -15.078125 7.65625 -15.078125 C 6.945312 -15.078125 6.175781 -14.898438 5.34375 -14.546875 C 4.507812 -14.191406 3.734375 -13.75 3.015625 -13.21875 L 2.65625 -13.375 L 1.984375 -15.75 C 3.304688 -16.488281 4.691406 -17.175781 6.140625 -17.8125 C 7.597656 -18.445312 8.632812 -18.765625 9.25 -18.765625 C 11.445312 -18.765625 13.09375 -18.269531 14.1875 -17.28125 C 15.28125 -16.289062 15.828125 -14.988281 15.828125 -13.375 C 15.828125 -12.789062 15.710938 -11.597656 15.484375 -9.796875 C 15.191406 -7.234375 15.046875 -5.703125 15.046875 -5.203125 C 15.046875 -4.691406 15.175781 -4.289062 15.4375 -4 C 15.695312 -3.71875 16.039062 -3.578125 16.46875 -3.578125 C 16.789062 -3.578125 17.128906 -3.648438 17.484375 -3.796875 C 17.835938 -3.941406 18.132812 -4.09375 18.375 -4.25 L 18.96875 -3.40625 C 18.488281 -2.5625 17.898438 -1.75 17.203125 -0.96875 C 16.503906 -0.1875 15.820312 0.289062 15.15625 0.46875 Z M 7.984375 -3.453125 C 8.378906 -3.453125 8.847656 -3.554688 9.390625 -3.765625 C 9.929688 -3.984375 10.410156 -4.265625 10.828125 -4.609375 L 10.953125 -8.375 L 6.703125 -7.1875 C 6.066406 -7.019531 5.75 -6.582031 5.75 -5.875 C 5.75 -5.1875 5.953125 -4.609375 6.359375 -4.140625 C 6.773438 -3.679688 7.316406 -3.453125 7.984375 -3.453125 Z M 7.984375 -3.453125 "/></g></g></g><g fill="#ffffff" fill-opacity="1"><g transform="translate(139.169622, 48.184426)"><g><path d="M 2.0625 9.5625 C 1.820312 9.5625 1.460938 9.351562 0.984375 8.9375 C 0.515625 8.53125 0.0859375 8.066406 -0.296875 7.546875 C -0.679688 7.035156 -0.875 6.648438 -0.875 6.390625 L -0.59375 5.90625 C 1.09375 5.78125 2.597656 5.234375 3.921875 4.265625 C 5.242188 3.296875 6.359375 1.976562 7.265625 0.3125 C 7.179688 0.15625 7.117188 0 7.078125 -0.15625 C 7.046875 -0.3125 7 -0.457031 6.9375 -0.59375 C 6.59375 -1.519531 5.832031 -3.644531 4.65625 -6.96875 C 3.476562 -10.289062 2.570312 -12.703125 1.9375 -14.203125 C 1.675781 -14.816406 1.351562 -15.25 0.96875 -15.5 C 0.582031 -15.75 0.101562 -15.890625 -0.46875 -15.921875 L -0.5625 -16.109375 L -0.28125 -18.328125 L 2.8125 -18.296875 C 4.007812 -18.296875 5.304688 -18.332031 6.703125 -18.40625 C 8.109375 -18.488281 8.8125 -18.546875 8.8125 -18.578125 L 8.890625 -18.375 L 8.578125 -16.109375 C 7.804688 -16.085938 7.296875 -16.003906 7.046875 -15.859375 C 6.796875 -15.710938 6.671875 -15.476562 6.671875 -15.15625 C 6.671875 -14.757812 6.875 -13.828125 7.28125 -12.359375 C 7.6875 -10.890625 8.109375 -9.429688 8.546875 -7.984375 C 8.984375 -6.546875 9.269531 -5.617188 9.40625 -5.203125 L 9.796875 -5.203125 C 12.210938 -11.304688 13.421875 -14.625 13.421875 -15.15625 C 13.421875 -15.445312 13.328125 -15.660156 13.140625 -15.796875 C 12.953125 -15.929688 12.644531 -16 12.21875 -16 L 10.953125 -16 L 10.828125 -16.1875 L 11.15625 -18.421875 C 11.414062 -18.390625 11.941406 -18.359375 12.734375 -18.328125 C 13.535156 -18.304688 14.410156 -18.296875 15.359375 -18.296875 L 19.015625 -18.328125 L 18.6875 -15.953125 C 18.101562 -15.816406 17.679688 -15.625 17.421875 -15.375 C 17.160156 -15.125 16.910156 -14.671875 16.671875 -14.015625 L 11.625 -1.75 C 9.9375 2.351562 8.359375 5.269531 6.890625 7 C 5.421875 8.738281 3.8125 9.59375 2.0625 9.5625 Z M 2.0625 9.5625 "/></g></g></g><g fill="#ffffff" fill-opacity="1"><g transform="translate(157.584244, 48.184426)"><g><path d="M 17.421875 0.46875 C 15.066406 0.46875 13.742188 -0.476562 13.453125 -2.375 L 13.21875 -2.453125 C 10.644531 -0.609375 9.097656 0.3125 8.578125 0.3125 C 6.273438 0.3125 4.441406 -0.460938 3.078125 -2.015625 C 1.710938 -3.578125 1.03125 -5.695312 1.03125 -8.375 C 1.03125 -10.332031 1.457031 -12.097656 2.3125 -13.671875 C 3.175781 -15.242188 4.367188 -16.472656 5.890625 -17.359375 C 7.410156 -18.242188 9.125 -18.6875 11.03125 -18.6875 C 11.664062 -18.6875 12.351562 -18.648438 13.09375 -18.578125 L 13.09375 -23.6875 C 13.09375 -24.507812 12.96875 -25.085938 12.71875 -25.421875 C 12.46875 -25.753906 12.039062 -25.921875 11.4375 -25.921875 C 11.21875 -25.921875 11.015625 -25.90625 10.828125 -25.875 C 10.648438 -25.851562 10.535156 -25.828125 10.484375 -25.796875 L 10.71875 -28.140625 C 12.28125 -28.328125 13.851562 -28.566406 15.4375 -28.859375 C 17.019531 -29.148438 18.050781 -29.347656 18.53125 -29.453125 L 18.890625 -28.765625 C 18.546875 -28.265625 18.253906 -25.6875 18.015625 -21.03125 C 17.773438 -16.375 17.65625 -11.097656 17.65625 -5.203125 C 17.65625 -4.691406 17.765625 -4.289062 17.984375 -4 C 18.210938 -3.71875 18.53125 -3.578125 18.9375 -3.578125 C 19.226562 -3.578125 19.503906 -3.628906 19.765625 -3.734375 C 20.023438 -3.835938 20.238281 -3.941406 20.40625 -4.046875 C 20.582031 -4.148438 20.695312 -4.21875 20.75 -4.25 L 21.390625 -3.40625 C 21.304688 -3.25 21.078125 -2.90625 20.703125 -2.375 C 20.335938 -1.851562 19.859375 -1.300781 19.265625 -0.71875 C 18.671875 -0.132812 18.054688 0.257812 17.421875 0.46875 Z M 10.046875 -3.328125 C 10.460938 -3.328125 10.898438 -3.425781 11.359375 -3.625 C 11.828125 -3.820312 12.210938 -4.023438 12.515625 -4.234375 C 12.828125 -4.453125 13.019531 -4.601562 13.09375 -4.6875 L 13.09375 -14.71875 C 13.039062 -14.75 12.878906 -14.816406 12.609375 -14.921875 C 12.347656 -15.023438 12.003906 -15.128906 11.578125 -15.234375 C 11.160156 -15.347656 10.6875 -15.40625 10.15625 -15.40625 C 8.863281 -15.40625 7.859375 -14.921875 7.140625 -13.953125 C 6.429688 -12.984375 6.078125 -11.613281 6.078125 -9.84375 C 6.078125 -7.882812 6.4375 -6.304688 7.15625 -5.109375 C 7.882812 -3.921875 8.847656 -3.328125 10.046875 -3.328125 Z M 10.046875 -3.328125 "/></g></g></g><g fill="#ffffff" fill-opacity="1"><g transform="translate(178.895996, 48.184426)"><g><path d="M 10 0.46875 C 7.21875 0.46875 5.023438 -0.34375 3.421875 -1.96875 C 1.828125 -3.59375 1.03125 -5.820312 1.03125 -8.65625 C 1.03125 -10.5625 1.441406 -12.28125 2.265625 -13.8125 C 3.085938 -15.34375 4.210938 -16.550781 5.640625 -17.4375 C 7.066406 -18.320312 8.648438 -18.765625 10.390625 -18.765625 C 14.835938 -18.765625 17.0625 -16.519531 17.0625 -12.03125 C 17.0625 -11.226562 16.96875 -10.484375 16.78125 -9.796875 L 16.3125 -9.328125 L 6.03125 -9.328125 C 6.0625 -7.390625 6.519531 -5.910156 7.40625 -4.890625 C 8.289062 -3.878906 9.523438 -3.375 11.109375 -3.375 C 12.484375 -3.375 14.054688 -3.769531 15.828125 -4.5625 L 16.109375 -4.40625 L 16.75 -2.453125 C 15.769531 -1.710938 14.640625 -1.039062 13.359375 -0.4375 C 12.078125 0.164062 10.957031 0.46875 10 0.46875 Z M 11.46875 -11.828125 C 11.789062 -11.847656 11.992188 -11.910156 12.078125 -12.015625 C 12.171875 -12.128906 12.21875 -12.367188 12.21875 -12.734375 C 12.21875 -14.691406 11.382812 -15.671875 9.71875 -15.671875 C 8.6875 -15.671875 7.847656 -15.3125 7.203125 -14.59375 C 6.554688 -13.882812 6.164062 -12.859375 6.03125 -11.515625 Z M 11.46875 -11.828125 "/></g></g></g><g fill="#ffffff" fill-opacity="1"><g transform="translate(197.231251, 48.184426)"><g><path d="M 12.65625 -2.140625 C 13.320312 -2.273438 13.789062 -2.515625 14.0625 -2.859375 C 14.34375 -3.203125 14.5 -3.703125 14.53125 -4.359375 L 14.640625 -11.234375 C 14.640625 -12.398438 14.425781 -13.265625 14 -13.828125 C 13.582031 -14.398438 12.9375 -14.6875 12.0625 -14.6875 C 11.0625 -14.6875 9.898438 -14.179688 8.578125 -13.171875 C 8.304688 -8.410156 8.171875 -5.4375 8.171875 -4.25 C 8.171875 -3.582031 8.253906 -3.113281 8.421875 -2.84375 C 8.597656 -2.582031 8.910156 -2.453125 9.359375 -2.453125 L 10.4375 -2.5 L 10.515625 -2.34375 L 10.125 0.125 C 9.832031 0.09375 9.28125 0.0625 8.46875 0.03125 C 7.664062 0.0078125 6.828125 0 5.953125 0 C 5.109375 0 4.1875 0.03125 3.1875 0.09375 C 2.195312 0.164062 1.554688 0.210938 1.265625 0.234375 L 1.59375 -2.21875 C 2.351562 -2.300781 2.882812 -2.503906 3.1875 -2.828125 C 3.5 -3.160156 3.65625 -3.695312 3.65625 -4.4375 L 3.65625 -12.859375 C 3.65625 -13.785156 3.515625 -14.410156 3.234375 -14.734375 C 2.953125 -15.066406 2.441406 -15.234375 1.703125 -15.234375 L 1.1875 -15.234375 L 1.03125 -15.4375 L 1.234375 -17.5 C 2.742188 -17.707031 4.226562 -17.957031 5.6875 -18.25 C 7.15625 -18.539062 8.101562 -18.726562 8.53125 -18.8125 L 8.84375 -18.421875 C 8.789062 -18.253906 8.710938 -17.894531 8.609375 -17.34375 C 8.503906 -16.789062 8.4375 -16.234375 8.40625 -15.671875 L 8.578125 -15.515625 C 9.390625 -16.234375 10.332031 -16.953125 11.40625 -17.671875 C 12.476562 -18.398438 13.253906 -18.765625 13.734375 -18.765625 C 15.609375 -18.765625 17.066406 -18.316406 18.109375 -17.421875 C 19.160156 -16.523438 19.6875 -15.269531 19.6875 -13.65625 C 19.6875 -13.257812 19.582031 -11.867188 19.375 -9.484375 C 19.101562 -6.785156 18.96875 -5.050781 18.96875 -4.28125 C 18.96875 -3.59375 19.066406 -3.101562 19.265625 -2.8125 C 19.460938 -2.519531 19.773438 -2.375 20.203125 -2.375 C 20.460938 -2.375 20.710938 -2.382812 20.953125 -2.40625 C 21.191406 -2.4375 21.351562 -2.453125 21.4375 -2.453125 L 21.515625 -2.296875 L 21.15625 0.125 C 20.832031 0.09375 20.253906 0.0625 19.421875 0.03125 C 18.585938 0.0078125 17.734375 0 16.859375 0 C 16.234375 0 15.421875 0.046875 14.421875 0.140625 C 13.429688 0.234375 12.78125 0.289062 12.46875 0.3125 Z M 12.65625 -2.140625 "/></g></g></g><g fill="#ffffff" fill-opacity="1"><g transform="translate(219.535169, 48.184426)"><g/></g></g><g fill="#ffffff" fill-opacity="1"><g transform="translate(226.440651, 48.184426)"><g><path d="M 20.40625 0.640625 C 18.675781 0.640625 17.234375 -0.59375 16.078125 -3.0625 L 12.625 -10.046875 L 9.796875 -10.046875 L 9.71875 -5.5625 C 9.71875 -4.632812 9.785156 -3.960938 9.921875 -3.546875 C 10.054688 -3.140625 10.304688 -2.867188 10.671875 -2.734375 C 11.046875 -2.609375 11.679688 -2.53125 12.578125 -2.5 L 12.703125 -2.265625 L 12.34375 0.15625 C 11.863281 0.132812 11.03125 0.109375 9.84375 0.078125 C 8.65625 0.0546875 7.554688 0.046875 6.546875 0.046875 C 5.566406 0.046875 4.5625 0.0703125 3.53125 0.125 C 2.5 0.175781 1.828125 0.210938 1.515625 0.234375 L 1.859375 -2.375 C 2.972656 -2.507812 3.722656 -2.800781 4.109375 -3.25 C 4.492188 -3.695312 4.6875 -4.492188 4.6875 -5.640625 L 4.6875 -21 C 4.6875 -21.757812 4.597656 -22.269531 4.421875 -22.53125 C 4.253906 -22.800781 3.914062 -22.9375 3.40625 -22.9375 C 3.113281 -22.9375 2.835938 -22.921875 2.578125 -22.890625 C 2.316406 -22.867188 2.144531 -22.859375 2.0625 -22.859375 L 1.828125 -23.171875 L 2.1875 -25.5625 C 2.550781 -25.5625 3.226562 -25.546875 4.21875 -25.515625 C 5.21875 -25.492188 6.191406 -25.484375 7.140625 -25.484375 C 8.203125 -25.484375 9.347656 -25.5 10.578125 -25.53125 C 11.804688 -25.570312 12.660156 -25.609375 13.140625 -25.640625 C 16.148438 -25.640625 18.457031 -25.054688 20.0625 -23.890625 C 21.664062 -22.722656 22.46875 -21.039062 22.46875 -18.84375 C 22.46875 -17.289062 22.003906 -15.863281 21.078125 -14.5625 C 20.148438 -13.269531 18.828125 -12.1875 17.109375 -11.3125 L 20.59375 -5.640625 C 21.332031 -4.421875 22.046875 -3.546875 22.734375 -3.015625 C 23.421875 -2.484375 24.191406 -2.21875 25.046875 -2.21875 L 25.328125 -1.859375 L 25.046875 0.203125 Z M 13.5 -13.09375 C 14.363281 -13.46875 15.15625 -14.015625 15.875 -14.734375 C 16.59375 -15.460938 16.953125 -16.597656 16.953125 -18.140625 C 16.953125 -19.585938 16.460938 -20.671875 15.484375 -21.390625 C 14.503906 -22.109375 12.992188 -22.46875 10.953125 -22.46875 C 10.691406 -22.46875 10.515625 -22.410156 10.421875 -22.296875 C 10.328125 -22.191406 10.265625 -21.957031 10.234375 -21.59375 C 10.078125 -18.863281 9.972656 -16.164062 9.921875 -13.5 Z M 13.5 -13.09375 "/></g></g></g><g fill="#ffffff" fill-opacity="1"><g transform="translate(251.879823, 48.184426)"><g><path d="M 9.640625 0.46875 C 7.972656 0.46875 6.503906 0.09375 5.234375 -0.65625 C 3.960938 -1.40625 2.984375 -2.46875 2.296875 -3.84375 C 1.609375 -5.21875 1.265625 -6.804688 1.265625 -8.609375 C 1.265625 -10.597656 1.664062 -12.359375 2.46875 -13.890625 C 3.28125 -15.421875 4.40625 -16.613281 5.84375 -17.46875 C 7.289062 -18.332031 8.953125 -18.765625 10.828125 -18.765625 C 13.398438 -18.765625 15.429688 -17.953125 16.921875 -16.328125 C 18.421875 -14.703125 19.171875 -12.5 19.171875 -9.71875 C 19.171875 -7.738281 18.769531 -5.972656 17.96875 -4.421875 C 17.175781 -2.878906 16.0625 -1.675781 14.625 -0.8125 C 13.1875 0.0390625 11.523438 0.46875 9.640625 0.46875 Z M 10.4375 -2.5 C 11.570312 -2.5 12.4375 -2.953125 13.03125 -3.859375 C 13.632812 -4.773438 13.9375 -6.117188 13.9375 -7.890625 C 13.9375 -10.378906 13.585938 -12.257812 12.890625 -13.53125 C 12.203125 -14.800781 11.210938 -15.4375 9.921875 -15.4375 C 8.785156 -15.4375 7.914062 -14.976562 7.3125 -14.0625 C 6.71875 -13.15625 6.421875 -11.816406 6.421875 -10.046875 C 6.421875 -7.554688 6.765625 -5.675781 7.453125 -4.40625 C 8.148438 -3.132812 9.144531 -2.5 10.4375 -2.5 Z M 10.4375 -2.5 "/></g></g></g><g fill="#ffffff" fill-opacity="1"><g transform="translate(272.358155, 48.184426)"><g><path d="M 9.328125 0.390625 C 8.398438 0.390625 7.472656 0.34375 6.546875 0.25 C 5.617188 0.164062 4.847656 0.078125 4.234375 -0.015625 C 3.628906 -0.109375 3.25 -0.171875 3.09375 -0.203125 L 2.703125 -0.640625 L 2.703125 -23.734375 C 2.703125 -24.578125 2.582031 -25.164062 2.34375 -25.5 C 2.101562 -25.832031 1.664062 -26 1.03125 -26 C 0.820312 -26 0.632812 -25.984375 0.46875 -25.953125 C 0.3125 -25.929688 0.195312 -25.921875 0.125 -25.921875 L -0.046875 -26.109375 L 0.203125 -28.171875 C 1.703125 -28.390625 3.285156 -28.632812 4.953125 -28.90625 C 6.628906 -29.1875 7.71875 -29.367188 8.21875 -29.453125 L 8.5 -28.6875 C 8.019531 -28.132812 7.675781 -23.941406 7.46875 -16.109375 C 9.894531 -17.828125 11.332031 -18.6875 11.78125 -18.6875 C 14.082031 -18.6875 15.914062 -17.898438 17.28125 -16.328125 C 18.644531 -14.753906 19.328125 -12.617188 19.328125 -9.921875 C 19.328125 -7.929688 18.894531 -6.15625 18.03125 -4.59375 C 17.175781 -3.039062 15.992188 -1.820312 14.484375 -0.9375 C 12.972656 -0.0507812 11.253906 0.390625 9.328125 0.390625 Z M 10.234375 -2.8125 C 11.503906 -2.8125 12.492188 -3.300781 13.203125 -4.28125 C 13.921875 -5.257812 14.28125 -6.632812 14.28125 -8.40625 C 14.28125 -10.394531 13.914062 -11.984375 13.1875 -13.171875 C 12.46875 -14.367188 11.523438 -14.96875 10.359375 -14.96875 C 9.910156 -14.96875 9.40625 -14.832031 8.84375 -14.5625 C 8.289062 -14.300781 7.800781 -13.984375 7.375 -13.609375 L 7.265625 -3.453125 C 7.554688 -3.296875 7.992188 -3.148438 8.578125 -3.015625 C 9.160156 -2.878906 9.710938 -2.8125 10.234375 -2.8125 Z M 10.234375 -2.8125 "/></g></g></g><g fill="#ffffff" fill-opacity="1"><g transform="translate(292.717431, 48.184426)"><g><path d="M 9.328125 0.390625 C 8.398438 0.390625 7.472656 0.34375 6.546875 0.25 C 5.617188 0.164062 4.847656 0.078125 4.234375 -0.015625 C 3.628906 -0.109375 3.25 -0.171875 3.09375 -0.203125 L 2.703125 -0.640625 L 2.703125 -23.734375 C 2.703125 -24.578125 2.582031 -25.164062 2.34375 -25.5 C 2.101562 -25.832031 1.664062 -26 1.03125 -26 C 0.820312 -26 0.632812 -25.984375 0.46875 -25.953125 C 0.3125 -25.929688 0.195312 -25.921875 0.125 -25.921875 L -0.046875 -26.109375 L 0.203125 -28.171875 C 1.703125 -28.390625 3.285156 -28.632812 4.953125 -28.90625 C 6.628906 -29.1875 7.71875 -29.367188 8.21875 -29.453125 L 8.5 -28.6875 C 8.019531 -28.132812 7.675781 -23.941406 7.46875 -16.109375 C 9.894531 -17.828125 11.332031 -18.6875 11.78125 -18.6875 C 14.082031 -18.6875 15.914062 -17.898438 17.28125 -16.328125 C 18.644531 -14.753906 19.328125 -12.617188 19.328125 -9.921875 C 19.328125 -7.929688 18.894531 -6.15625 18.03125 -4.59375 C 17.175781 -3.039062 15.992188 -1.820312 14.484375 -0.9375 C 12.972656 -0.0507812 11.253906 0.390625 9.328125 0.390625 Z M 10.234375 -2.8125 C 11.503906 -2.8125 12.492188 -3.300781 13.203125 -4.28125 C 13.921875 -5.257812 14.28125 -6.632812 14.28125 -8.40625 C 14.28125 -10.394531 13.914062 -11.984375 13.1875 -13.171875 C 12.46875 -14.367188 11.523438 -14.96875 10.359375 -14.96875 C 9.910156 -14.96875 9.40625 -14.832031 8.84375 -14.5625 C 8.289062 -14.300781 7.800781 -13.984375 7.375 -13.609375 L 7.265625 -3.453125 C 7.554688 -3.296875 7.992188 -3.148438 8.578125 -3.015625 C 9.160156 -2.878906 9.710938 -2.8125 10.234375 -2.8125 Z M 10.234375 -2.8125 "/></g></g></g><g fill="#ffffff" fill-opacity="1"><g transform="translate(313.076719, 48.184426)"><g><path d="M 1.390625 -2.0625 C 2.160156 -2.195312 2.722656 -2.453125 3.078125 -2.828125 C 3.429688 -3.210938 3.609375 -3.78125 3.609375 -4.53125 L 3.609375 -13.09375 C 3.609375 -13.9375 3.488281 -14.515625 3.25 -14.828125 C 3.007812 -15.148438 2.570312 -15.3125 1.9375 -15.3125 C 1.757812 -15.3125 1.578125 -15.296875 1.390625 -15.265625 C 1.203125 -15.242188 1.082031 -15.222656 1.03125 -15.203125 L 1.265625 -17.46875 C 2.753906 -17.675781 4.265625 -17.914062 5.796875 -18.1875 C 7.328125 -18.46875 8.316406 -18.660156 8.765625 -18.765625 L 9.125 -18.140625 C 8.832031 -17.554688 8.597656 -15.960938 8.421875 -13.359375 C 8.253906 -10.753906 8.171875 -7.691406 8.171875 -4.171875 C 8.171875 -3.535156 8.265625 -3.082031 8.453125 -2.8125 C 8.640625 -2.550781 8.957031 -2.421875 9.40625 -2.421875 C 9.644531 -2.421875 9.875 -2.429688 10.09375 -2.453125 C 10.320312 -2.484375 10.476562 -2.5 10.5625 -2.5 L 10.671875 -2.296875 L 10.28125 0.125 C 9.988281 0.09375 9.410156 0.0625 8.546875 0.03125 C 7.691406 0.0078125 6.8125 0 5.90625 0 C 5.09375 0 4.160156 0.0546875 3.109375 0.171875 C 2.066406 0.296875 1.390625 0.382812 1.078125 0.4375 Z M 5.5625 -22.1875 C 4.6875 -22.1875 4.007812 -22.4375 3.53125 -22.9375 C 3.0625 -23.4375 2.828125 -24.113281 2.828125 -24.96875 C 2.828125 -25.914062 3.109375 -26.679688 3.671875 -27.265625 C 4.242188 -27.847656 5.003906 -28.140625 5.953125 -28.140625 C 6.804688 -28.140625 7.46875 -27.878906 7.9375 -27.359375 C 8.414062 -26.847656 8.65625 -26.171875 8.65625 -25.328125 C 8.65625 -24.398438 8.367188 -23.644531 7.796875 -23.0625 C 7.234375 -22.476562 6.488281 -22.1875 5.5625 -22.1875 Z M 5.5625 -22.1875 "/></g></g></g><g fill="#ffffff" fill-opacity="1"><g transform="translate(324.665238, 48.184426)"><g><path d="M 12.65625 -2.140625 C 13.320312 -2.273438 13.789062 -2.515625 14.0625 -2.859375 C 14.34375 -3.203125 14.5 -3.703125 14.53125 -4.359375 L 14.640625 -11.234375 C 14.640625 -12.398438 14.425781 -13.265625 14 -13.828125 C 13.582031 -14.398438 12.9375 -14.6875 12.0625 -14.6875 C 11.0625 -14.6875 9.898438 -14.179688 8.578125 -13.171875 C 8.304688 -8.410156 8.171875 -5.4375 8.171875 -4.25 C 8.171875 -3.582031 8.253906 -3.113281 8.421875 -2.84375 C 8.597656 -2.582031 8.910156 -2.453125 9.359375 -2.453125 L 10.4375 -2.5 L 10.515625 -2.34375 L 10.125 0.125 C 9.832031 0.09375 9.28125 0.0625 8.46875 0.03125 C 7.664062 0.0078125 6.828125 0 5.953125 0 C 5.109375 0 4.1875 0.03125 3.1875 0.09375 C 2.195312 0.164062 1.554688 0.210938 1.265625 0.234375 L 1.59375 -2.21875 C 2.351562 -2.300781 2.882812 -2.503906 3.1875 -2.828125 C 3.5 -3.160156 3.65625 -3.695312 3.65625 -4.4375 L 3.65625 -12.859375 C 3.65625 -13.785156 3.515625 -14.410156 3.234375 -14.734375 C 2.953125 -15.066406 2.441406 -15.234375 1.703125 -15.234375 L 1.1875 -15.234375 L 1.03125 -15.4375 L 1.234375 -17.5 C 2.742188 -17.707031 4.226562 -17.957031 5.6875 -18.25 C 7.15625 -18.539062 8.101562 -18.726562 8.53125 -18.8125 L 8.84375 -18.421875 C 8.789062 -18.253906 8.710938 -17.894531 8.609375 -17.34375 C 8.503906 -16.789062 8.4375 -16.234375 8.40625 -15.671875 L 8.578125 -15.515625 C 9.390625 -16.234375 10.332031 -16.953125 11.40625 -17.671875 C 12.476562 -18.398438 13.253906 -18.765625 13.734375 -18.765625 C 15.609375 -18.765625 17.066406 -18.316406 18.109375 -17.421875 C 19.160156 -16.523438 19.6875 -15.269531 19.6875 -13.65625 C 19.6875 -13.257812 19.582031 -11.867188 19.375 -9.484375 C 19.101562 -6.785156 18.96875 -5.050781 18.96875 -4.28125 C 18.96875 -3.59375 19.066406 -3.101562 19.265625 -2.8125 C 19.460938 -2.519531 19.773438 -2.375 20.203125 -2.375 C 20.460938 -2.375 20.710938 -2.382812 20.953125 -2.40625 C 21.191406 -2.4375 21.351562 -2.453125 21.4375 -2.453125 L 21.515625 -2.296875 L 21.15625 0.125 C 20.832031 0.09375 20.253906 0.0625 19.421875 0.03125 C 18.585938 0.0078125 17.734375 0 16.859375 0 C 16.234375 0 15.421875 0.046875 14.421875 0.140625 C 13.429688 0.234375 12.78125 0.289062 12.46875 0.3125 Z M 12.65625 -2.140625 "/></g></g></g><g fill="#ffffff" fill-opacity="1"><g transform="translate(346.969156, 48.184426)"><g><path d="M 6.75 0.46875 C 5.789062 0.46875 4.921875 0.390625 4.140625 0.234375 C 3.359375 0.078125 2.742188 -0.0820312 2.296875 -0.25 C 1.847656 -0.425781 1.570312 -0.539062 1.46875 -0.59375 L 1.234375 -0.984375 C 1.335938 -1.703125 1.4375 -2.535156 1.53125 -3.484375 C 1.625 -4.441406 1.695312 -5.359375 1.75 -6.234375 L 3.921875 -6.421875 C 3.953125 -3.753906 5.132812 -2.421875 7.46875 -2.421875 C 8.226562 -2.421875 8.859375 -2.582031 9.359375 -2.90625 C 9.867188 -3.238281 10.125 -3.660156 10.125 -4.171875 C 10.125 -4.691406 9.859375 -5.171875 9.328125 -5.609375 C 8.796875 -6.046875 7.738281 -6.648438 6.15625 -7.421875 C 4.5625 -8.160156 3.40625 -8.945312 2.6875 -9.78125 C 1.976562 -10.613281 1.625 -11.585938 1.625 -12.703125 C 1.625 -13.890625 1.96875 -14.9375 2.65625 -15.84375 C 3.34375 -16.757812 4.304688 -17.472656 5.546875 -17.984375 C 6.796875 -18.503906 8.210938 -18.765625 9.796875 -18.765625 C 10.566406 -18.765625 11.28125 -18.710938 11.9375 -18.609375 C 12.601562 -18.503906 13.128906 -18.390625 13.515625 -18.265625 C 13.898438 -18.148438 14.144531 -18.082031 14.25 -18.0625 L 14.453125 -17.65625 C 14.390625 -17.363281 14.269531 -16.707031 14.09375 -15.6875 C 13.925781 -14.675781 13.789062 -13.628906 13.6875 -12.546875 L 11.46875 -12.375 L 11.515625 -13.09375 C 11.515625 -14.019531 11.285156 -14.703125 10.828125 -15.140625 C 10.378906 -15.578125 9.679688 -15.796875 8.734375 -15.796875 C 8.046875 -15.796875 7.460938 -15.628906 6.984375 -15.296875 C 6.503906 -14.960938 6.265625 -14.546875 6.265625 -14.046875 C 6.265625 -13.546875 6.476562 -13.082031 6.90625 -12.65625 C 7.332031 -12.238281 8.035156 -11.789062 9.015625 -11.3125 C 10.566406 -10.570312 11.757812 -9.910156 12.59375 -9.328125 C 13.425781 -8.742188 14.007812 -8.15625 14.34375 -7.5625 C 14.675781 -6.96875 14.84375 -6.257812 14.84375 -5.4375 C 14.84375 -4.351562 14.484375 -3.359375 13.765625 -2.453125 C 13.054688 -1.554688 12.078125 -0.84375 10.828125 -0.3125 C 9.585938 0.207031 8.226562 0.46875 6.75 0.46875 Z M 6.75 0.46875 "/></g></g></g><g clip-path="url(#2e632d4f3c)"><path fill="#ffffff" d="M 75.726562 61.390625 L 13.867188 61.390625 C 10.191406 61.390625 7.136719 58.71875 6.535156 55.207031 L 83.050781 55.207031 C 82.464844 58.71875 79.402344 61.390625 75.726562 61.390625 Z M 11.226562 11.558594 C 11.226562 10.667969 11.925781 9.964844 12.816406 9.964844 L 76.765625 9.964844 C 77.65625 9.964844 78.359375 10.667969 78.359375 11.558594 L 78.359375 52.714844 L 11.226562 52.714844 Z M 84.390625 52.726562 L 80.847656 52.726562 L 80.847656 11.558594 C 80.847656 9.320312 79.027344 7.492188 76.773438 7.492188 L 12.816406 7.492188 C 10.574219 7.492188 8.75 9.320312 8.75 11.558594 L 8.75 52.714844 L 5.203125 52.714844 C 4.515625 52.726562 3.964844 53.277344 3.964844 53.96875 C 3.964844 59.425781 8.40625 63.871094 13.867188 63.871094 L 75.726562 63.871094 C 81.1875 63.871094 85.632812 59.425781 85.632812 53.96875 C 85.632812 53.277344 85.089844 52.726562 84.390625 52.726562 " fill-opacity="1" fill-rule="nonzero"/></g><path fill="#ffffff" d="M 71.261719 47.203125 L 18.332031 47.203125 L 18.332031 15.554688 L 71.253906 15.554688 L 71.253906 47.203125 Z M 72.5 13.082031 L 17.09375 13.082031 C 16.40625 13.082031 15.855469 13.632812 15.855469 14.324219 L 15.855469 48.441406 C 15.855469 49.132812 16.40625 49.683594 17.09375 49.683594 L 72.488281 49.683594 C 73.175781 49.683594 73.726562 49.132812 73.726562 48.441406 L 73.726562 14.324219 C 73.742188 13.632812 73.175781 13.082031 72.5 13.082031 " fill-opacity="1" fill-rule="nonzero"/><path fill="#ffffff" d="M 41.308594 41.207031 C 41.453125 41.257812 41.585938 41.28125 41.722656 41.28125 C 42.230469 41.28125 42.703125 40.960938 42.882812 40.453125 L 48.964844 23.125 C 49.199219 22.472656 48.851562 21.769531 48.21875 21.542969 C 47.566406 21.3125 46.863281 21.660156 46.632812 22.296875 L 40.546875 39.625 C 40.332031 40.273438 40.679688 40.976562 41.308594 41.207031 Z M 60.648438 31.636719 L 52.367188 38.199219 C 51.832031 38.617188 51.734375 39.394531 52.164062 39.929688 C 52.402344 40.234375 52.773438 40.402344 53.128906 40.402344 C 53.394531 40.402344 53.664062 40.316406 53.898438 40.132812 L 63.394531 32.617188 C 63.683594 32.390625 63.867188 32.027344 63.867188 31.660156 C 63.867188 31.289062 63.691406 30.933594 63.402344 30.695312 L 53.511719 22.625 C 52.976562 22.195312 52.199219 22.269531 51.78125 22.804688 C 51.34375 23.34375 51.425781 24.117188 51.953125 24.539062 Z M 35.699219 40.132812 C 35.929688 40.316406 36.199219 40.402344 36.464844 40.402344 C 36.835938 40.402344 37.191406 40.234375 37.429688 39.929688 C 37.859375 39.394531 37.765625 38.617188 37.226562 38.199219 L 28.949219 31.636719 L 37.640625 24.539062 C 38.171875 24.109375 38.25 23.328125 37.816406 22.804688 C 37.386719 22.269531 36.605469 22.195312 36.082031 22.625 L 26.191406 30.695312 C 25.902344 30.933594 25.730469 31.273438 25.730469 31.660156 C 25.730469 32.027344 25.910156 32.390625 26.207031 32.617188 L 35.699219 40.132812 " fill-opacity="1" fill-rule="nonzero"/></svg>