<svg xmlns="http://www.w3.org/2000/svg" xmlns:xlink="http://www.w3.org/1999/xlink" width="500" zoomAndPan="magnify" viewBox="0 0 375 225" height="300" preserveAspectRatio="xMidYMid meet" version="1.0"><defs><g/><clipPath id="d9527370c9"><path d="M 165 113.675781 L 362 113.675781 L 362 115.925781 L 165 115.925781 Z M 165 113.675781 " clip-rule="nonzero"/></clipPath><clipPath id="60b6f49dd2"><path d="M 61 77.570312 L 120 77.570312 L 120 147.320312 L 61 147.320312 Z M 61 77.570312 " clip-rule="nonzero"/></clipPath><clipPath id="a7cf87d0f9"><path d="M 13.753906 77.570312 L 84 77.570312 L 84 147.320312 L 13.753906 147.320312 Z M 13.753906 77.570312 " clip-rule="nonzero"/></clipPath><clipPath id="01e63846d1"><path d="M 0 36.5 L 133.5 36.5 L 133.5 188.5 L 0 188.5 Z M 0 36.5 " clip-rule="nonzero"/></clipPath></defs><g clip-path="url(#d9527370c9)"><path fill="#ffffff" d="M 361.296875 115.722656 L 165.613281 115.722656 L 165.613281 113.667969 L 361.296875 113.667969 L 361.296875 115.722656 " fill-opacity="1" fill-rule="nonzero"/></g><g clip-path="url(#60b6f49dd2)"><path fill="#ffffff" d="M 117.609375 116.511719 C 116.355469 114.34375 114.824219 112.519531 113.039062 111.050781 C 113.167969 110.882812 113.316406 110.734375 113.441406 110.5625 C 115.78125 107.566406 116.96875 103.507812 116.96875 98.515625 C 116.96875 95.324219 116.183594 92.117188 114.632812 88.972656 C 112.996094 85.636719 110.339844 82.875 106.75 80.75 C 103.15625 78.621094 98.652344 77.582031 93 77.582031 L 92.148438 77.582031 L 81.546875 94.390625 L 93.699219 94.390625 C 96.058594 94.390625 97.207031 94.835938 97.675781 95.113281 C 98.417969 95.558594 98.929688 96.046875 99.203125 96.601562 C 99.585938 97.367188 99.777344 98.152344 99.777344 99.023438 C 99.777344 100.257812 99.542969 101.171875 99.121094 101.785156 C 98.566406 102.53125 97.867188 103.039062 96.953125 103.402344 C 95.742188 103.890625 94.421875 104.125 93 104.125 L 78.316406 104.125 L 78.316406 99.554688 L 61.144531 126.820312 L 61.144531 147.390625 L 94.507812 147.390625 C 102.542969 147.390625 108.832031 145.433594 113.167969 141.589844 C 117.628906 137.636719 119.988281 132.429688 119.988281 126.566406 C 120.007812 122.675781 119.203125 119.296875 117.609375 116.511719 Z M 101.542969 129.09375 C 100.265625 130.070312 98.078125 130.582031 95.230469 130.582031 L 78.316406 130.582031 L 78.316406 120.679688 L 94.507812 120.679688 C 97.695312 120.679688 100.054688 121.273438 101.160156 122.355469 C 102.308594 123.503906 102.839844 124.632812 102.839844 126.035156 C 102.839844 127.859375 102.199219 128.582031 101.542969 129.09375 Z M 101.542969 129.09375 " fill-opacity="1" fill-rule="nonzero"/></g><g clip-path="url(#a7cf87d0f9)"><path fill="#ffffff" d="M 78.316406 86.167969 L 83.714844 77.582031 L 44.675781 77.582031 C 37.238281 77.582031 31.160156 79.726562 26.546875 84 C 21.832031 88.355469 19.449219 94.199219 19.449219 101.382812 C 19.449219 106.207031 20.46875 110.246094 22.488281 113.367188 C 24.445312 116.386719 26.953125 118.722656 29.949219 120.316406 C 30.332031 120.507812 30.691406 120.699219 31.074219 120.890625 L 13.753906 147.410156 L 34.261719 147.410156 L 48.605469 124.632812 L 54.066406 124.632812 L 61.125 113.433594 Z M 45.824219 107.800781 C 44.1875 107.800781 42.488281 107.546875 40.765625 107.035156 C 39.488281 106.652344 38.425781 105.992188 37.554688 105.015625 C 36.917969 104.316406 36.601562 103.082031 36.601562 101.363281 C 36.601562 98.492188 37.683594 97.21875 38.617188 96.429688 C 40.234375 95.070312 42.464844 94.390625 45.460938 94.390625 L 61.125 94.390625 L 61.125 107.800781 Z M 45.824219 107.800781 " fill-opacity="1" fill-rule="nonzero"/></g><g clip-path="url(#01e63846d1)"><path fill="#ffffff" d="M 66.875 42.035156 C 66.46875 42.035156 66.0625 42.140625 65.703125 42.347656 L 6.710938 76.40625 C 5.984375 76.824219 5.535156 77.605469 5.535156 78.441406 L 5.535156 146.558594 C 5.535156 147.398438 5.984375 148.175781 6.710938 148.59375 L 65.703125 182.652344 C 66.425781 183.074219 67.328125 183.074219 68.050781 182.652344 L 127.042969 148.59375 C 127.769531 148.175781 128.21875 147.398438 128.21875 146.558594 L 128.21875 78.441406 C 128.21875 77.605469 127.769531 76.824219 127.042969 76.40625 L 68.050781 42.347656 C 67.691406 42.140625 67.285156 42.035156 66.875 42.035156 Z M 66.875 188.5 C 65.511719 188.5 64.148438 188.148438 62.933594 187.449219 L 3.941406 153.386719 C 1.511719 151.984375 0 149.367188 0 146.558594 L 0 78.441406 C 0 75.632812 1.511719 73.019531 3.941406 71.613281 L 62.933594 37.554688 C 65.367188 36.152344 68.386719 36.152344 70.820312 37.554688 L 129.8125 71.613281 C 132.242188 73.019531 133.753906 75.632812 133.753906 78.441406 L 133.753906 146.558594 C 133.753906 149.367188 132.242188 151.984375 129.8125 153.390625 L 70.820312 187.449219 C 69.605469 188.148438 68.242188 188.5 66.875 188.5 " fill-opacity="1" fill-rule="nonzero"/></g><g fill="#ffffff" fill-opacity="1"><g transform="translate(202.107442, 143.922852)"><g><path d="M 6.078125 -6.078125 L 6.140625 -6.078125 L 7.546875 -19.75 L 12.890625 -19.75 L 14.328125 -6.078125 L 14.375 -6.078125 L 15.578125 -19.75 L 20.5 -19.75 L 18.171875 0 L 11.71875 0 L 10.34375 -11.453125 L 10.28125 -11.453125 L 8.765625 0 L 2.296875 0 L 0 -19.75 L 4.921875 -19.75 Z M 6.078125 -6.078125 "/></g></g></g><g fill="#ffffff" fill-opacity="1"><g transform="translate(222.585046, 143.922852)"><g><path d="M 6.421875 -16.625 C 7.429688 -16.625 8.347656 -16.414062 9.171875 -16 C 10.003906 -15.582031 10.664062 -14.976562 11.15625 -14.1875 C 11.644531 -13.394531 11.890625 -12.453125 11.890625 -11.359375 L 11.890625 -7.859375 L 5.53125 -7.859375 L 5.53125 -3.546875 C 5.53125 -2.898438 5.78125 -2.578125 6.28125 -2.578125 C 6.851562 -2.578125 7.140625 -2.9375 7.140625 -3.65625 L 7.140625 -6.609375 L 11.890625 -6.609375 L 11.890625 -4.84375 C 11.890625 -3.257812 11.421875 -1.984375 10.484375 -1.015625 C 9.554688 -0.0546875 8.203125 0.421875 6.421875 0.421875 C 4.535156 0.421875 3.09375 -0.0507812 2.09375 -1 C 1.101562 -1.957031 0.609375 -3.238281 0.609375 -4.84375 L 0.609375 -11.359375 C 0.609375 -12.984375 1.113281 -14.265625 2.125 -15.203125 C 3.144531 -16.148438 4.578125 -16.625 6.421875 -16.625 Z M 5.53125 -12.671875 L 5.53125 -10.515625 L 7.140625 -10.515625 L 7.140625 -12.5625 C 7.140625 -13.28125 6.851562 -13.640625 6.28125 -13.640625 C 5.78125 -13.640625 5.53125 -13.316406 5.53125 -12.671875 Z M 5.53125 -12.671875 "/></g></g></g><g fill="#ffffff" fill-opacity="1"><g transform="translate(234.855035, 143.922852)"><g><path d="M 5.53125 -14.796875 L 5.59375 -14.796875 C 6.007812 -15.367188 6.476562 -15.816406 7 -16.140625 C 7.53125 -16.460938 8.082031 -16.625 8.65625 -16.625 C 9.851562 -16.625 10.742188 -16.175781 11.328125 -15.28125 C 11.910156 -14.382812 12.203125 -13.242188 12.203125 -11.859375 L 12.203125 -3.78125 C 12.203125 -2.582031 11.921875 -1.582031 11.359375 -0.78125 C 10.804688 0.0195312 9.953125 0.421875 8.796875 0.421875 C 8.097656 0.421875 7.519531 0.285156 7.0625 0.015625 C 6.613281 -0.253906 6.082031 -0.703125 5.46875 -1.328125 L 5.25 0 L 0.609375 0 L 0.609375 -19.75 L 5.53125 -19.75 Z M 5.53125 -12.078125 L 5.53125 -4.0625 C 5.53125 -3.5625 5.609375 -3.210938 5.765625 -3.015625 C 5.921875 -2.828125 6.15625 -2.734375 6.46875 -2.734375 C 6.707031 -2.734375 6.898438 -2.820312 7.046875 -3 C 7.203125 -3.175781 7.28125 -3.359375 7.28125 -3.546875 L 7.28125 -12.171875 C 7.28125 -12.367188 7.207031 -12.578125 7.0625 -12.796875 C 6.925781 -13.023438 6.71875 -13.140625 6.4375 -13.140625 C 6.195312 -13.140625 5.984375 -13.046875 5.796875 -12.859375 C 5.617188 -12.671875 5.53125 -12.410156 5.53125 -12.078125 Z M 5.53125 -12.078125 "/></g></g></g><g fill="#ffffff" fill-opacity="1"><g transform="translate(247.650088, 143.922852)"><g/></g></g><g fill="#ffffff" fill-opacity="1"><g transform="translate(254.282509, 143.922852)"><g><path d="M 12.71875 -14.828125 L 12.71875 -3.703125 C 12.71875 -2.484375 12.3125 -1.5625 11.5 -0.9375 C 10.6875 -0.3125 9.628906 0 8.328125 0 L 0.609375 0 L 0.609375 -19.75 L 7.21875 -19.75 C 8.4375 -19.75 9.441406 -19.613281 10.234375 -19.34375 C 11.023438 -19.070312 11.632812 -18.578125 12.0625 -17.859375 C 12.5 -17.140625 12.71875 -16.128906 12.71875 -14.828125 Z M 7.640625 -4.78125 L 7.640625 -14.96875 C 7.640625 -15.332031 7.53125 -15.664062 7.3125 -15.96875 C 7.101562 -16.269531 6.832031 -16.421875 6.5 -16.421875 L 5.703125 -16.421875 L 5.703125 -3.3125 L 6.5 -3.3125 C 6.832031 -3.3125 7.101562 -3.457031 7.3125 -3.75 C 7.53125 -4.050781 7.640625 -4.394531 7.640625 -4.78125 Z M 7.640625 -4.78125 "/></g></g></g><g fill="#ffffff" fill-opacity="1"><g transform="translate(267.602627, 143.922852)"><g><path d="M 6.421875 -16.625 C 7.429688 -16.625 8.347656 -16.414062 9.171875 -16 C 10.003906 -15.582031 10.664062 -14.976562 11.15625 -14.1875 C 11.644531 -13.394531 11.890625 -12.453125 11.890625 -11.359375 L 11.890625 -7.859375 L 5.53125 -7.859375 L 5.53125 -3.546875 C 5.53125 -2.898438 5.78125 -2.578125 6.28125 -2.578125 C 6.851562 -2.578125 7.140625 -2.9375 7.140625 -3.65625 L 7.140625 -6.609375 L 11.890625 -6.609375 L 11.890625 -4.84375 C 11.890625 -3.257812 11.421875 -1.984375 10.484375 -1.015625 C 9.554688 -0.0546875 8.203125 0.421875 6.421875 0.421875 C 4.535156 0.421875 3.09375 -0.0507812 2.09375 -1 C 1.101562 -1.957031 0.609375 -3.238281 0.609375 -4.84375 L 0.609375 -11.359375 C 0.609375 -12.984375 1.113281 -14.265625 2.125 -15.203125 C 3.144531 -16.148438 4.578125 -16.625 6.421875 -16.625 Z M 5.53125 -12.671875 L 5.53125 -10.515625 L 7.140625 -10.515625 L 7.140625 -12.5625 C 7.140625 -13.28125 6.851562 -13.640625 6.28125 -13.640625 C 5.78125 -13.640625 5.53125 -13.316406 5.53125 -12.671875 Z M 5.53125 -12.671875 "/></g></g></g><g fill="#ffffff" fill-opacity="1"><g transform="translate(279.872616, 143.922852)"><g><path d="M 6 -16.625 C 7.488281 -16.625 8.726562 -16.273438 9.71875 -15.578125 C 10.707031 -14.890625 11.203125 -13.890625 11.203125 -12.578125 L 11.203125 -10.984375 L 6.640625 -10.984375 L 6.640625 -12.5625 C 6.640625 -13.164062 6.390625 -13.46875 5.890625 -13.46875 C 5.359375 -13.46875 5.09375 -13.164062 5.09375 -12.5625 L 5.09375 -11.84375 C 5.09375 -11.507812 5.296875 -11.191406 5.703125 -10.890625 C 6.109375 -10.597656 6.695312 -10.25 7.46875 -9.84375 L 8.015625 -9.5625 C 8.960938 -9.070312 9.664062 -8.617188 10.125 -8.203125 C 10.582031 -7.785156 10.90625 -7.28125 11.09375 -6.6875 C 11.289062 -6.101562 11.390625 -5.3125 11.390625 -4.3125 C 11.390625 -2.6875 10.921875 -1.488281 9.984375 -0.71875 C 9.046875 0.0390625 7.570312 0.421875 5.5625 0.421875 C 3.882812 0.421875 2.601562 0.0859375 1.71875 -0.578125 C 0.832031 -1.242188 0.390625 -2.367188 0.390625 -3.953125 L 0.390625 -5.828125 L 4.953125 -5.828125 L 4.953125 -3.59375 C 4.953125 -3.332031 5.023438 -3.125 5.171875 -2.96875 C 5.316406 -2.8125 5.507812 -2.734375 5.75 -2.734375 C 6.03125 -2.734375 6.25 -2.820312 6.40625 -3 C 6.5625 -3.175781 6.640625 -3.382812 6.640625 -3.625 L 6.640625 -4.5625 C 6.640625 -4.988281 6.460938 -5.34375 6.109375 -5.625 C 5.765625 -5.914062 5.273438 -6.21875 4.640625 -6.53125 L 3.921875 -6.890625 C 2.796875 -7.460938 1.945312 -8.097656 1.375 -8.796875 C 0.8125 -9.492188 0.53125 -10.425781 0.53125 -11.59375 C 0.53125 -13.320312 0.972656 -14.59375 1.859375 -15.40625 C 2.753906 -16.21875 4.132812 -16.625 6 -16.625 Z M 6 -16.625 "/></g></g></g><g fill="#ffffff" fill-opacity="1"><g transform="translate(291.645168, 143.922852)"><g><path d="M 5.53125 -17.25 L 0.609375 -17.25 L 0.609375 -19.75 L 5.53125 -19.75 Z M 5.53125 0 L 0.609375 0 L 0.609375 -16.203125 L 5.53125 -16.203125 Z M 5.53125 0 "/></g></g></g><g fill="#ffffff" fill-opacity="1"><g transform="translate(297.780154, 143.922852)"><g><path d="M 4.203125 -16.625 C 4.847656 -16.625 5.421875 -16.5 5.921875 -16.25 C 6.429688 -16 6.921875 -15.550781 7.390625 -14.90625 L 7.4375 -14.90625 L 7.4375 -16.203125 L 12.203125 -16.203125 L 12.203125 -2.953125 C 12.203125 -1.171875 11.679688 0.160156 10.640625 1.046875 C 9.597656 1.929688 8.0625 2.375 6.03125 2.375 C 4.257812 2.375 2.941406 2.039062 2.078125 1.375 C 1.210938 0.71875 0.78125 -0.273438 0.78125 -1.609375 L 5.53125 -1.609375 L 5.53125 -1.1875 C 5.53125 -0.925781 5.582031 -0.679688 5.6875 -0.453125 C 5.800781 -0.222656 6.007812 -0.109375 6.3125 -0.109375 C 6.65625 -0.109375 6.898438 -0.191406 7.046875 -0.359375 C 7.203125 -0.523438 7.28125 -0.789062 7.28125 -1.15625 L 7.28125 -3.484375 C 6.40625 -2.640625 5.378906 -2.21875 4.203125 -2.21875 C 3.097656 -2.21875 2.222656 -2.609375 1.578125 -3.390625 C 0.929688 -4.171875 0.609375 -5.21875 0.609375 -6.53125 L 0.609375 -12.28125 C 0.609375 -13.625 0.925781 -14.679688 1.5625 -15.453125 C 2.195312 -16.234375 3.078125 -16.625 4.203125 -16.625 Z M 5.359375 -12.078125 L 5.359375 -6.578125 C 5.359375 -6.285156 5.441406 -6.035156 5.609375 -5.828125 C 5.773438 -5.628906 6.023438 -5.53125 6.359375 -5.53125 C 6.640625 -5.53125 6.863281 -5.625 7.03125 -5.8125 C 7.195312 -6.007812 7.28125 -6.265625 7.28125 -6.578125 L 7.28125 -12.078125 C 7.28125 -12.410156 7.195312 -12.671875 7.03125 -12.859375 C 6.863281 -13.046875 6.628906 -13.140625 6.328125 -13.140625 C 5.992188 -13.140625 5.75 -13.03125 5.59375 -12.8125 C 5.4375 -12.601562 5.359375 -12.359375 5.359375 -12.078125 Z M 5.359375 -12.078125 "/></g></g></g><g fill="#ffffff" fill-opacity="1"><g transform="translate(310.575207, 143.922852)"><g><path d="M 8.71875 -16.625 C 9.851562 -16.625 10.691406 -16.234375 11.234375 -15.453125 C 11.785156 -14.679688 12.0625 -13.671875 12.0625 -12.421875 L 12.0625 0 L 7.140625 0 L 7.140625 -12.203125 C 7.140625 -12.441406 7.082031 -12.679688 6.96875 -12.921875 C 6.851562 -13.171875 6.648438 -13.296875 6.359375 -13.296875 C 5.898438 -13.296875 5.671875 -12.9375 5.671875 -12.21875 L 5.671875 0 L 0.75 0 L 0.75 -16.203125 L 5.671875 -16.203125 L 5.671875 -14.96875 L 5.71875 -14.96875 C 5.976562 -15.445312 6.375 -15.84375 6.90625 -16.15625 C 7.445312 -16.46875 8.050781 -16.625 8.71875 -16.625 Z M 8.71875 -16.625 "/></g></g></g><g fill="#ffffff" fill-opacity="1"><g transform="translate(153.354545, 105.467943)"><g><path d="M 18.296875 -24.171875 L 18.296875 -21.125 C 18.296875 -19.46875 17.914062 -18.222656 17.15625 -17.390625 C 16.40625 -16.566406 15.269531 -16.097656 13.75 -15.984375 L 13.75 -15.90625 C 15.40625 -15.789062 16.625 -15.3125 17.40625 -14.46875 C 18.195312 -13.625 18.59375 -12.375 18.59375 -10.71875 L 18.59375 0 L 11.34375 0 L 11.34375 -11.5625 C 11.34375 -13.21875 10.664062 -14.046875 9.3125 -14.046875 C 9.007812 -14.046875 8.71875 -14.003906 8.4375 -13.921875 L 8.4375 0 L 0.921875 0 L 0.921875 -30.109375 L 10 -30.109375 C 11.789062 -30.109375 13.265625 -29.972656 14.421875 -29.703125 C 15.578125 -29.441406 16.507812 -28.878906 17.21875 -28.015625 C 17.9375 -27.160156 18.296875 -25.878906 18.296875 -24.171875 Z M 8.984375 -18.59375 C 9.878906 -18.59375 10.492188 -18.796875 10.828125 -19.203125 C 11.171875 -19.617188 11.34375 -20.09375 11.34375 -20.625 L 11.34375 -23.28125 C 11.34375 -23.78125 11.171875 -24.238281 10.828125 -24.65625 C 10.492188 -25.082031 9.894531 -25.296875 9.03125 -25.296875 L 8.4375 -25.296875 L 8.4375 -18.59375 Z M 8.984375 -18.59375 "/></g></g></g><g fill="#ffffff" fill-opacity="1"><g transform="translate(172.871631, 105.467943)"><g><path d="M 9.78125 -25.34375 C 12.625 -25.34375 14.8125 -24.617188 16.34375 -23.171875 C 17.875 -21.722656 18.640625 -19.773438 18.640625 -17.328125 L 18.640625 -7.375 C 18.640625 -4.9375 17.875 -2.992188 16.34375 -1.546875 C 14.8125 -0.0976562 12.625 0.625 9.78125 0.625 C 6.945312 0.625 4.757812 -0.0976562 3.21875 -1.546875 C 1.6875 -2.992188 0.921875 -4.9375 0.921875 -7.375 L 0.921875 -17.328125 C 0.921875 -19.773438 1.6875 -21.722656 3.21875 -23.171875 C 4.757812 -24.617188 6.945312 -25.34375 9.78125 -25.34375 Z M 8.4375 -19.234375 L 8.4375 -5.984375 C 8.4375 -5.535156 8.5625 -5.160156 8.8125 -4.859375 C 9.0625 -4.566406 9.382812 -4.421875 9.78125 -4.421875 C 10.175781 -4.421875 10.5 -4.566406 10.75 -4.859375 C 11.007812 -5.160156 11.140625 -5.535156 11.140625 -5.984375 L 11.140625 -19.234375 C 11.140625 -19.679688 11.007812 -20.050781 10.75 -20.34375 C 10.5 -20.644531 10.175781 -20.796875 9.78125 -20.796875 C 9.300781 -20.796875 8.957031 -20.617188 8.75 -20.265625 C 8.539062 -19.910156 8.4375 -19.566406 8.4375 -19.234375 Z M 8.4375 -19.234375 "/></g></g></g><g fill="#ffffff" fill-opacity="1"><g transform="translate(192.43087, 105.467943)"><g><path d="M 8.4375 -22.5625 L 8.515625 -22.5625 C 9.160156 -23.4375 9.882812 -24.117188 10.6875 -24.609375 C 11.488281 -25.097656 12.328125 -25.34375 13.203125 -25.34375 C 15.023438 -25.34375 16.378906 -24.660156 17.265625 -23.296875 C 18.148438 -21.929688 18.59375 -20.195312 18.59375 -18.09375 L 18.59375 -5.78125 C 18.59375 -3.945312 18.171875 -2.421875 17.328125 -1.203125 C 16.484375 0.015625 15.175781 0.625 13.40625 0.625 C 12.34375 0.625 11.460938 0.421875 10.765625 0.015625 C 10.078125 -0.390625 9.269531 -1.070312 8.34375 -2.03125 L 8.015625 0 L 0.921875 0 L 0.921875 -30.109375 L 8.4375 -30.109375 Z M 8.4375 -18.421875 L 8.4375 -6.203125 C 8.4375 -5.441406 8.554688 -4.910156 8.796875 -4.609375 C 9.035156 -4.316406 9.394531 -4.171875 9.875 -4.171875 C 10.238281 -4.171875 10.53125 -4.300781 10.75 -4.5625 C 10.976562 -4.832031 11.09375 -5.109375 11.09375 -5.390625 L 11.09375 -18.5625 C 11.09375 -18.863281 10.984375 -19.179688 10.765625 -19.515625 C 10.554688 -19.859375 10.242188 -20.03125 9.828125 -20.03125 C 9.460938 -20.03125 9.140625 -19.890625 8.859375 -19.609375 C 8.578125 -19.328125 8.4375 -18.929688 8.4375 -18.421875 Z M 8.4375 -18.421875 "/></g></g></g><g fill="#ffffff" fill-opacity="1"><g transform="translate(211.947956, 105.467943)"><g><path d="M 8.4375 -22.5625 L 8.515625 -22.5625 C 9.160156 -23.4375 9.882812 -24.117188 10.6875 -24.609375 C 11.488281 -25.097656 12.328125 -25.34375 13.203125 -25.34375 C 15.023438 -25.34375 16.378906 -24.660156 17.265625 -23.296875 C 18.148438 -21.929688 18.59375 -20.195312 18.59375 -18.09375 L 18.59375 -5.78125 C 18.59375 -3.945312 18.171875 -2.421875 17.328125 -1.203125 C 16.484375 0.015625 15.175781 0.625 13.40625 0.625 C 12.34375 0.625 11.460938 0.421875 10.765625 0.015625 C 10.078125 -0.390625 9.269531 -1.070312 8.34375 -2.03125 L 8.015625 0 L 0.921875 0 L 0.921875 -30.109375 L 8.4375 -30.109375 Z M 8.4375 -18.421875 L 8.4375 -6.203125 C 8.4375 -5.441406 8.554688 -4.910156 8.796875 -4.609375 C 9.035156 -4.316406 9.394531 -4.171875 9.875 -4.171875 C 10.238281 -4.171875 10.53125 -4.300781 10.75 -4.5625 C 10.976562 -4.832031 11.09375 -5.109375 11.09375 -5.390625 L 11.09375 -18.5625 C 11.09375 -18.863281 10.984375 -19.179688 10.765625 -19.515625 C 10.554688 -19.859375 10.242188 -20.03125 9.828125 -20.03125 C 9.460938 -20.03125 9.140625 -19.890625 8.859375 -19.609375 C 8.578125 -19.328125 8.4375 -18.929688 8.4375 -18.421875 Z M 8.4375 -18.421875 "/></g></g></g><g fill="#ffffff" fill-opacity="1"><g transform="translate(231.465042, 105.467943)"><g><path d="M 8.4375 -26.3125 L 0.921875 -26.3125 L 0.921875 -30.109375 L 8.4375 -30.109375 Z M 8.4375 0 L 0.921875 0 L 0.921875 -24.71875 L 8.4375 -24.71875 Z M 8.4375 0 "/></g></g></g><g fill="#ffffff" fill-opacity="1"><g transform="translate(240.823127, 105.467943)"><g><path d="M 13.28125 -25.34375 C 15.03125 -25.34375 16.316406 -24.75 17.140625 -23.5625 C 17.972656 -22.382812 18.390625 -20.84375 18.390625 -18.9375 L 18.390625 0 L 10.875 0 L 10.875 -18.59375 C 10.875 -18.957031 10.789062 -19.328125 10.625 -19.703125 C 10.457031 -20.085938 10.148438 -20.28125 9.703125 -20.28125 C 8.992188 -20.28125 8.640625 -19.734375 8.640625 -18.640625 L 8.640625 0 L 1.140625 0 L 1.140625 -24.71875 L 8.640625 -24.71875 L 8.640625 -22.8125 L 8.734375 -22.8125 C 9.117188 -23.539062 9.71875 -24.144531 10.53125 -24.625 C 11.351562 -25.101562 12.269531 -25.34375 13.28125 -25.34375 Z M 13.28125 -25.34375 "/></g></g></g><g fill="#ffffff" fill-opacity="1"><g transform="translate(260.340212, 105.467943)"><g><path d="M 9.15625 -25.34375 C 11.425781 -25.34375 13.3125 -24.816406 14.8125 -23.765625 C 16.320312 -22.710938 17.078125 -21.1875 17.078125 -19.1875 L 17.078125 -16.75 L 10.125 -16.75 L 10.125 -19.140625 C 10.125 -20.066406 9.742188 -20.53125 8.984375 -20.53125 C 8.171875 -20.53125 7.765625 -20.066406 7.765625 -19.140625 L 7.765625 -18.046875 C 7.765625 -17.546875 8.070312 -17.066406 8.6875 -16.609375 C 9.300781 -16.160156 10.203125 -15.628906 11.390625 -15.015625 L 12.234375 -14.59375 C 13.660156 -13.832031 14.722656 -13.132812 15.421875 -12.5 C 16.128906 -11.875 16.628906 -11.109375 16.921875 -10.203125 C 17.222656 -9.304688 17.375 -8.097656 17.375 -6.578125 C 17.375 -4.109375 16.65625 -2.289062 15.21875 -1.125 C 13.789062 0.0390625 11.546875 0.625 8.484375 0.625 C 5.921875 0.625 3.960938 0.117188 2.609375 -0.890625 C 1.265625 -1.898438 0.59375 -3.613281 0.59375 -6.03125 L 0.59375 -8.890625 L 7.546875 -8.890625 L 7.546875 -5.484375 C 7.546875 -5.085938 7.65625 -4.769531 7.875 -4.53125 C 8.101562 -4.289062 8.398438 -4.171875 8.765625 -4.171875 C 9.191406 -4.171875 9.523438 -4.300781 9.765625 -4.5625 C 10.003906 -4.832031 10.125 -5.15625 10.125 -5.53125 L 10.125 -6.953125 C 10.125 -7.597656 9.851562 -8.140625 9.3125 -8.578125 C 8.78125 -9.015625 8.035156 -9.472656 7.078125 -9.953125 L 5.984375 -10.5 C 4.273438 -11.375 2.984375 -12.34375 2.109375 -13.40625 C 1.234375 -14.476562 0.796875 -15.898438 0.796875 -17.671875 C 0.796875 -20.316406 1.476562 -22.253906 2.84375 -23.484375 C 4.207031 -24.722656 6.3125 -25.34375 9.15625 -25.34375 Z M 9.15625 -25.34375 "/></g></g></g><g fill="#ffffff" fill-opacity="1"><g transform="translate(278.297617, 105.467943)"><g><path d="M 18.34375 -24.71875 L 18.34375 -21.09375 C 18.34375 -19.488281 17.898438 -18.363281 17.015625 -17.71875 C 16.128906 -17.070312 14.882812 -16.734375 13.28125 -16.703125 L 13.203125 -16.609375 C 15.085938 -16.503906 16.5 -15.929688 17.4375 -14.890625 C 18.375 -13.847656 18.84375 -12.539062 18.84375 -10.96875 L 18.84375 -6.453125 C 18.84375 -4.234375 18.234375 -2.601562 17.015625 -1.5625 C 15.796875 -0.519531 14.003906 0 11.640625 0 L 0.921875 0 L 0.921875 -30.109375 L 12.109375 -30.109375 C 14.210938 -30.109375 15.773438 -29.671875 16.796875 -28.796875 C 17.828125 -27.929688 18.34375 -26.570312 18.34375 -24.71875 Z M 9.3125 -18.390625 C 9.90625 -18.390625 10.347656 -18.570312 10.640625 -18.9375 C 10.941406 -19.300781 11.09375 -19.707031 11.09375 -20.15625 L 11.09375 -23.53125 C 11.09375 -23.925781 10.953125 -24.316406 10.671875 -24.703125 C 10.390625 -25.097656 9.910156 -25.296875 9.234375 -25.296875 L 8.4375 -25.296875 L 8.4375 -18.390625 Z M 11.09375 -6.875 L 11.09375 -12.015625 C 11.09375 -12.609375 10.929688 -13.054688 10.609375 -13.359375 C 10.285156 -13.671875 9.828125 -13.828125 9.234375 -13.828125 L 8.4375 -13.828125 L 8.4375 -5.0625 C 8.550781 -5.03125 8.703125 -5.015625 8.890625 -5.015625 C 9.566406 -5.015625 10.101562 -5.15625 10.5 -5.4375 C 10.894531 -5.71875 11.09375 -6.195312 11.09375 -6.875 Z M 11.09375 -6.875 "/></g></g></g><g fill="#ffffff" fill-opacity="1"><g transform="translate(297.814703, 105.467943)"><g><path d="M 8.640625 -6.109375 C 8.640625 -5.742188 8.722656 -5.367188 8.890625 -4.984375 C 9.066406 -4.609375 9.378906 -4.421875 9.828125 -4.421875 C 10.523438 -4.421875 10.875 -4.972656 10.875 -6.078125 L 10.875 -24.71875 L 18.390625 -24.71875 L 18.390625 0 L 10.875 0 L 10.875 -1.890625 L 10.796875 -1.890625 C 10.460938 -1.140625 9.835938 -0.53125 8.921875 -0.0625 C 8.003906 0.394531 7.109375 0.625 6.234375 0.625 C 4.441406 0.625 3.144531 0.0195312 2.34375 -1.1875 C 1.539062 -2.394531 1.140625 -3.925781 1.140625 -5.78125 L 1.140625 -24.71875 L 8.640625 -24.71875 Z M 8.640625 -6.109375 "/></g></g></g><g fill="#ffffff" fill-opacity="1"><g transform="translate(317.331789, 105.467943)"><g><path d="M 8.4375 -26.3125 L 0.921875 -26.3125 L 0.921875 -30.109375 L 8.4375 -30.109375 Z M 8.4375 0 L 0.921875 0 L 0.921875 -24.71875 L 8.4375 -24.71875 Z M 8.4375 0 "/></g></g></g><g fill="#ffffff" fill-opacity="1"><g transform="translate(326.689873, 105.467943)"><g><path d="M 8.4375 0 L 0.921875 0 L 0.921875 -30.109375 L 8.4375 -30.109375 Z M 8.4375 0 "/></g></g></g><g fill="#ffffff" fill-opacity="1"><g transform="translate(336.047958, 105.467943)"><g><path d="M 18.59375 -30.109375 L 18.59375 0 L 10.71875 0 L 11.09375 -1.46875 L 11 -1.46875 C 9.457031 -0.0703125 7.785156 0.625 5.984375 0.625 C 4.378906 0.625 3.132812 0.148438 2.25 -0.796875 C 1.363281 -1.753906 0.921875 -3.117188 0.921875 -4.890625 L 0.921875 -19.5625 C 0.921875 -23.414062 2.722656 -25.34375 6.328125 -25.34375 C 7.285156 -25.34375 8.175781 -25.140625 9 -24.734375 C 9.832031 -24.328125 10.5 -23.757812 11 -23.03125 L 11.09375 -23.03125 L 11.09375 -30.109375 Z M 8.4375 -18.71875 L 8.4375 -5.984375 C 8.4375 -4.941406 8.84375 -4.421875 9.65625 -4.421875 C 10.164062 -4.421875 10.53125 -4.539062 10.75 -4.78125 C 10.976562 -5.019531 11.09375 -5.410156 11.09375 -5.953125 L 11.09375 -18.765625 C 11.09375 -19.441406 10.976562 -19.90625 10.75 -20.15625 C 10.53125 -20.40625 10.191406 -20.53125 9.734375 -20.53125 C 9.285156 -20.53125 8.957031 -20.394531 8.75 -20.125 C 8.539062 -19.863281 8.4375 -19.394531 8.4375 -18.71875 Z M 8.4375 -18.71875 "/></g></g></g><g fill="#ffffff" fill-opacity="1"><g transform="translate(355.565044, 105.467943)"><g><path d="M 9.15625 -25.34375 C 11.425781 -25.34375 13.3125 -24.816406 14.8125 -23.765625 C 16.320312 -22.710938 17.078125 -21.1875 17.078125 -19.1875 L 17.078125 -16.75 L 10.125 -16.75 L 10.125 -19.140625 C 10.125 -20.066406 9.742188 -20.53125 8.984375 -20.53125 C 8.171875 -20.53125 7.765625 -20.066406 7.765625 -19.140625 L 7.765625 -18.046875 C 7.765625 -17.546875 8.070312 -17.066406 8.6875 -16.609375 C 9.300781 -16.160156 10.203125 -15.628906 11.390625 -15.015625 L 12.234375 -14.59375 C 13.660156 -13.832031 14.722656 -13.132812 15.421875 -12.5 C 16.128906 -11.875 16.628906 -11.109375 16.921875 -10.203125 C 17.222656 -9.304688 17.375 -8.097656 17.375 -6.578125 C 17.375 -4.109375 16.65625 -2.289062 15.21875 -1.125 C 13.789062 0.0390625 11.546875 0.625 8.484375 0.625 C 5.921875 0.625 3.960938 0.117188 2.609375 -0.890625 C 1.265625 -1.898438 0.59375 -3.613281 0.59375 -6.03125 L 0.59375 -8.890625 L 7.546875 -8.890625 L 7.546875 -5.484375 C 7.546875 -5.085938 7.65625 -4.769531 7.875 -4.53125 C 8.101562 -4.289062 8.398438 -4.171875 8.765625 -4.171875 C 9.191406 -4.171875 9.523438 -4.300781 9.765625 -4.5625 C 10.003906 -4.832031 10.125 -5.15625 10.125 -5.53125 L 10.125 -6.953125 C 10.125 -7.597656 9.851562 -8.140625 9.3125 -8.578125 C 8.78125 -9.015625 8.035156 -9.472656 7.078125 -9.953125 L 5.984375 -10.5 C 4.273438 -11.375 2.984375 -12.34375 2.109375 -13.40625 C 1.234375 -14.476562 0.796875 -15.898438 0.796875 -17.671875 C 0.796875 -20.316406 1.476562 -22.253906 2.84375 -23.484375 C 4.207031 -24.722656 6.3125 -25.34375 9.15625 -25.34375 Z M 9.15625 -25.34375 "/></g></g></g></svg>