<svg xmlns="http://www.w3.org/2000/svg" xmlns:xlink="http://www.w3.org/1999/xlink" width="500" zoomAndPan="magnify" viewBox="0 0 375 374.999991" height="500" preserveAspectRatio="xMidYMid meet" version="1.0"><defs><g/><clipPath id="71c8b7fda4"><path d="M 12.703125 12.703125 L 362.203125 12.703125 L 362.203125 362.203125 L 12.703125 362.203125 Z M 12.703125 12.703125 " clip-rule="nonzero"/></clipPath><clipPath id="17f028f9a9"><path d="M 41.277344 274.386719 L 141.996094 274.386719 L 141.996094 362.203125 L 41.277344 362.203125 Z M 41.277344 274.386719 " clip-rule="nonzero"/></clipPath><clipPath id="ac09f068d2"><path d="M 362.289062 187.496094 C 362.289062 284.03125 284.03125 362.289062 187.496094 362.289062 C 90.960938 362.289062 12.703125 284.03125 12.703125 187.496094 C 12.703125 90.960938 90.960938 12.703125 187.496094 12.703125 C 284.03125 12.703125 362.289062 90.960938 362.289062 187.496094 Z M 362.289062 187.496094 " clip-rule="nonzero"/></clipPath><clipPath id="67ddfaf1a9"><path d="M 232.003906 332.007812 L 274.148438 332.007812 L 274.148438 362.203125 L 232.003906 362.203125 Z M 232.003906 332.007812 " clip-rule="nonzero"/></clipPath><clipPath id="133358777f"><path d="M 362.289062 187.496094 C 362.289062 284.03125 284.03125 362.289062 187.496094 362.289062 C 90.960938 362.289062 12.703125 284.03125 12.703125 187.496094 C 12.703125 90.960938 90.960938 12.703125 187.496094 12.703125 C 284.03125 12.703125 362.289062 90.960938 362.289062 187.496094 Z M 362.289062 187.496094 " clip-rule="nonzero"/></clipPath><clipPath id="05fa297f29"><path d="M 264.386719 160.570312 L 330.816406 160.570312 L 330.816406 252.242188 L 264.386719 252.242188 Z M 264.386719 160.570312 " clip-rule="nonzero"/></clipPath><clipPath id="141393ec00"><path d="M 362.289062 187.496094 C 362.289062 284.03125 284.03125 362.289062 187.496094 362.289062 C 90.960938 362.289062 12.703125 284.03125 12.703125 187.496094 C 12.703125 90.960938 90.960938 12.703125 187.496094 12.703125 C 284.03125 12.703125 362.289062 90.960938 362.289062 187.496094 Z M 362.289062 187.496094 " clip-rule="nonzero"/></clipPath><clipPath id="da0ce1989d"><path d="M 152.234375 168.664062 L 185.09375 168.664062 L 185.09375 210.8125 L 152.234375 210.8125 Z M 152.234375 168.664062 " clip-rule="nonzero"/></clipPath><clipPath id="28f9529911"><path d="M 362.289062 187.496094 C 362.289062 284.03125 284.03125 362.289062 187.496094 362.289062 C 90.960938 362.289062 12.703125 284.03125 12.703125 187.496094 C 12.703125 90.960938 90.960938 12.703125 187.496094 12.703125 C 284.03125 12.703125 362.289062 90.960938 362.289062 187.496094 Z M 362.289062 187.496094 " clip-rule="nonzero"/></clipPath><clipPath id="5bf63b8950"><path d="M 220.574219 12.703125 L 306.292969 12.703125 L 306.292969 78.898438 L 220.574219 78.898438 Z M 220.574219 12.703125 " clip-rule="nonzero"/></clipPath><clipPath id="fbafe46e9d"><path d="M 362.289062 187.496094 C 362.289062 284.03125 284.03125 362.289062 187.496094 362.289062 C 90.960938 362.289062 12.703125 284.03125 12.703125 187.496094 C 12.703125 90.960938 90.960938 12.703125 187.496094 12.703125 C 284.03125 12.703125 362.289062 90.960938 362.289062 187.496094 Z M 362.289062 187.496094 " clip-rule="nonzero"/></clipPath><clipPath id="c4fef8323c"><path d="M 12.703125 34.132812 L 105 34.132812 L 105 188.191406 L 12.703125 188.191406 Z M 12.703125 34.132812 " clip-rule="nonzero"/></clipPath><clipPath id="4bee41469c"><path d="M 362.289062 187.496094 C 362.289062 284.03125 284.03125 362.289062 187.496094 362.289062 C 90.960938 362.289062 12.703125 284.03125 12.703125 187.496094 C 12.703125 90.960938 90.960938 12.703125 187.496094 12.703125 C 284.03125 12.703125 362.289062 90.960938 362.289062 187.496094 Z M 362.289062 187.496094 " clip-rule="nonzero"/></clipPath><clipPath id="148ad05608"><path d="M 171.046875 103.183594 L 190.332031 103.183594 L 190.332031 128.425781 L 171.046875 128.425781 Z M 171.046875 103.183594 " clip-rule="nonzero"/></clipPath><clipPath id="e4623f555b"><path d="M 362.289062 187.496094 C 362.289062 284.03125 284.03125 362.289062 187.496094 362.289062 C 90.960938 362.289062 12.703125 284.03125 12.703125 187.496094 C 12.703125 90.960938 90.960938 12.703125 187.496094 12.703125 C 284.03125 12.703125 362.289062 90.960938 362.289062 187.496094 Z M 362.289062 187.496094 " clip-rule="nonzero"/></clipPath><clipPath id="c4c97c7f50"><path d="M 332.722656 110.566406 L 356.535156 110.566406 L 356.535156 143.425781 L 332.722656 143.425781 Z M 332.722656 110.566406 " clip-rule="nonzero"/></clipPath><clipPath id="cb6b71eb8d"><path d="M 362.289062 187.496094 C 362.289062 284.03125 284.03125 362.289062 187.496094 362.289062 C 90.960938 362.289062 12.703125 284.03125 12.703125 187.496094 C 12.703125 90.960938 90.960938 12.703125 187.496094 12.703125 C 284.03125 12.703125 362.289062 90.960938 362.289062 187.496094 Z M 362.289062 187.496094 " clip-rule="nonzero"/></clipPath><clipPath id="a915949a4d"><path d="M 177.238281 275.578125 L 232 275.578125 L 232 316.292969 L 177.238281 316.292969 Z M 177.238281 275.578125 " clip-rule="nonzero"/></clipPath><clipPath id="2b2d5449b3"><path d="M 362.289062 187.496094 C 362.289062 284.03125 284.03125 362.289062 187.496094 362.289062 C 90.960938 362.289062 12.703125 284.03125 12.703125 187.496094 C 12.703125 90.960938 90.960938 12.703125 187.496094 12.703125 C 284.03125 12.703125 362.289062 90.960938 362.289062 187.496094 Z M 362.289062 187.496094 " clip-rule="nonzero"/></clipPath><clipPath id="858542c077"><path d="M 134.378906 27.703125 L 163.902344 27.703125 L 163.902344 56.277344 L 134.378906 56.277344 Z M 134.378906 27.703125 " clip-rule="nonzero"/></clipPath><clipPath id="1659b23f5e"><path d="M 362.289062 187.496094 C 362.289062 284.03125 284.03125 362.289062 187.496094 362.289062 C 90.960938 362.289062 12.703125 284.03125 12.703125 187.496094 C 12.703125 90.960938 90.960938 12.703125 187.496094 12.703125 C 284.03125 12.703125 362.289062 90.960938 362.289062 187.496094 Z M 362.289062 187.496094 " clip-rule="nonzero"/></clipPath><clipPath id="95c5d8dcdf"><path d="M 51.277344 231.050781 L 74.847656 231.050781 L 74.847656 253.433594 L 51.277344 253.433594 Z M 51.277344 231.050781 " clip-rule="nonzero"/></clipPath><clipPath id="c5b97fc88c"><path d="M 362.289062 187.496094 C 362.289062 284.03125 284.03125 362.289062 187.496094 362.289062 C 90.960938 362.289062 12.703125 284.03125 12.703125 187.496094 C 12.703125 90.960938 90.960938 12.703125 187.496094 12.703125 C 284.03125 12.703125 362.289062 90.960938 362.289062 187.496094 Z M 362.289062 187.496094 " clip-rule="nonzero"/></clipPath></defs><g fill="#000000" fill-opacity="1"><g transform="translate(48.767579, 210.406299)"><g><path d="M 2.640625 0 L 2.078125 0 L 1.859375 -0.640625 L 0.8125 -0.640625 L 0.59375 0 L 0.046875 0 L 1 -2.75 L 1.6875 -2.75 Z M 1.3125 -2.1875 L 0.953125 -1.09375 L 1.71875 -1.09375 L 1.359375 -2.1875 Z M 1.3125 -2.1875 "/></g></g></g><g fill="#000000" fill-opacity="1"><g transform="translate(51.451, 210.406299)"><g><path d="M 1.03125 0.046875 C 0.863281 0.046875 0.71875 0.00390625 0.59375 -0.078125 C 0.46875 -0.160156 0.367188 -0.28125 0.296875 -0.4375 C 0.222656 -0.601562 0.1875 -0.800781 0.1875 -1.03125 C 0.1875 -1.269531 0.222656 -1.46875 0.296875 -1.625 C 0.367188 -1.789062 0.46875 -1.914062 0.59375 -2 C 0.726562 -2.082031 0.878906 -2.125 1.046875 -2.125 C 1.179688 -2.125 1.296875 -2.097656 1.390625 -2.046875 C 1.484375 -2.003906 1.5625 -1.9375 1.625 -1.84375 L 1.671875 -1.859375 L 1.671875 -2.90625 L 2.1875 -2.90625 L 2.1875 0 L 1.671875 0 L 1.671875 -0.265625 L 1.625 -0.28125 C 1.570312 -0.175781 1.492188 -0.09375 1.390625 -0.03125 C 1.285156 0.0195312 1.164062 0.046875 1.03125 0.046875 Z M 1.203125 -0.40625 C 1.347656 -0.40625 1.460938 -0.457031 1.546875 -0.5625 C 1.628906 -0.664062 1.671875 -0.820312 1.671875 -1.03125 C 1.671875 -1.25 1.628906 -1.410156 1.546875 -1.515625 C 1.460938 -1.617188 1.347656 -1.671875 1.203125 -1.671875 C 1.046875 -1.671875 0.925781 -1.617188 0.84375 -1.515625 C 0.757812 -1.421875 0.71875 -1.257812 0.71875 -1.03125 C 0.71875 -0.8125 0.757812 -0.648438 0.84375 -0.546875 C 0.925781 -0.453125 1.046875 -0.40625 1.203125 -0.40625 Z M 1.203125 -0.40625 "/></g></g></g><g fill="#000000" fill-opacity="1"><g transform="translate(53.940461, 210.406299)"><g><path d="M 1.03125 0.046875 C 0.863281 0.046875 0.71875 0.00390625 0.59375 -0.078125 C 0.46875 -0.160156 0.367188 -0.28125 0.296875 -0.4375 C 0.222656 -0.601562 0.1875 -0.800781 0.1875 -1.03125 C 0.1875 -1.269531 0.222656 -1.46875 0.296875 -1.625 C 0.367188 -1.789062 0.46875 -1.914062 0.59375 -2 C 0.726562 -2.082031 0.878906 -2.125 1.046875 -2.125 C 1.179688 -2.125 1.296875 -2.097656 1.390625 -2.046875 C 1.484375 -2.003906 1.5625 -1.9375 1.625 -1.84375 L 1.671875 -1.859375 L 1.671875 -2.90625 L 2.1875 -2.90625 L 2.1875 0 L 1.671875 0 L 1.671875 -0.265625 L 1.625 -0.28125 C 1.570312 -0.175781 1.492188 -0.09375 1.390625 -0.03125 C 1.285156 0.0195312 1.164062 0.046875 1.03125 0.046875 Z M 1.203125 -0.40625 C 1.347656 -0.40625 1.460938 -0.457031 1.546875 -0.5625 C 1.628906 -0.664062 1.671875 -0.820312 1.671875 -1.03125 C 1.671875 -1.25 1.628906 -1.410156 1.546875 -1.515625 C 1.460938 -1.617188 1.347656 -1.671875 1.203125 -1.671875 C 1.046875 -1.671875 0.925781 -1.617188 0.84375 -1.515625 C 0.757812 -1.421875 0.71875 -1.257812 0.71875 -1.03125 C 0.71875 -0.8125 0.757812 -0.648438 0.84375 -0.546875 C 0.925781 -0.453125 1.046875 -0.40625 1.203125 -0.40625 Z M 1.203125 -0.40625 "/></g></g></g><g fill="#000000" fill-opacity="1"><g transform="translate(56.429922, 210.406299)"><g/></g></g><g fill="#000000" fill-opacity="1"><g transform="translate(57.339461, 210.406299)"><g><path d="M 0.8125 0.046875 C 0.675781 0.046875 0.554688 0.0195312 0.453125 -0.03125 C 0.359375 -0.0820312 0.285156 -0.15625 0.234375 -0.25 C 0.179688 -0.34375 0.15625 -0.457031 0.15625 -0.59375 C 0.15625 -0.71875 0.179688 -0.820312 0.234375 -0.90625 C 0.285156 -0.988281 0.363281 -1.054688 0.46875 -1.109375 C 0.582031 -1.160156 0.734375 -1.203125 0.921875 -1.234375 C 1.046875 -1.253906 1.140625 -1.273438 1.203125 -1.296875 C 1.265625 -1.316406 1.304688 -1.34375 1.328125 -1.375 C 1.347656 -1.40625 1.359375 -1.445312 1.359375 -1.5 C 1.359375 -1.5625 1.332031 -1.609375 1.28125 -1.640625 C 1.238281 -1.679688 1.164062 -1.703125 1.0625 -1.703125 C 0.945312 -1.703125 0.835938 -1.675781 0.734375 -1.625 C 0.628906 -1.570312 0.539062 -1.503906 0.46875 -1.421875 L 0.421875 -1.421875 L 0.203125 -1.75 C 0.304688 -1.863281 0.429688 -1.953125 0.578125 -2.015625 C 0.734375 -2.085938 0.90625 -2.125 1.09375 -2.125 C 1.363281 -2.125 1.5625 -2.0625 1.6875 -1.9375 C 1.8125 -1.820312 1.875 -1.660156 1.875 -1.453125 L 1.875 -0.546875 C 1.875 -0.453125 1.914062 -0.40625 2 -0.40625 C 2.03125 -0.40625 2.0625 -0.410156 2.09375 -0.421875 L 2.109375 -0.40625 L 2.15625 -0.046875 C 2.125 -0.0234375 2.082031 -0.0078125 2.03125 0 C 1.976562 0.0078125 1.921875 0.015625 1.859375 0.015625 C 1.734375 0.015625 1.632812 -0.00390625 1.5625 -0.046875 C 1.5 -0.0976562 1.453125 -0.175781 1.421875 -0.28125 L 1.375 -0.28125 C 1.28125 -0.0625 1.09375 0.046875 0.8125 0.046875 Z M 0.96875 -0.34375 C 1.09375 -0.34375 1.191406 -0.382812 1.265625 -0.46875 C 1.335938 -0.550781 1.375 -0.664062 1.375 -0.8125 L 1.375 -1.015625 L 1.34375 -1.03125 C 1.3125 -1 1.269531 -0.972656 1.21875 -0.953125 C 1.164062 -0.941406 1.09375 -0.929688 1 -0.921875 C 0.882812 -0.898438 0.800781 -0.863281 0.75 -0.8125 C 0.695312 -0.769531 0.671875 -0.707031 0.671875 -0.625 C 0.671875 -0.53125 0.695312 -0.457031 0.75 -0.40625 C 0.800781 -0.363281 0.875 -0.34375 0.96875 -0.34375 Z M 0.96875 -0.34375 "/></g></g></g><g fill="#000000" fill-opacity="1"><g transform="translate(59.52951, 210.406299)"><g/></g></g><g fill="#000000" fill-opacity="1"><g transform="translate(60.439049, 210.406299)"><g><path d="M 0.296875 0 L 0.296875 -2.90625 L 0.828125 -2.90625 L 0.828125 -1.8125 L 0.859375 -1.796875 C 0.929688 -1.898438 1.015625 -1.976562 1.109375 -2.03125 C 1.210938 -2.09375 1.335938 -2.125 1.484375 -2.125 C 1.941406 -2.125 2.171875 -1.863281 2.171875 -1.34375 L 2.171875 0 L 1.640625 0 L 1.640625 -1.265625 C 1.640625 -1.410156 1.609375 -1.515625 1.546875 -1.578125 C 1.492188 -1.640625 1.410156 -1.671875 1.296875 -1.671875 C 1.148438 -1.671875 1.035156 -1.625 0.953125 -1.53125 C 0.867188 -1.4375 0.828125 -1.285156 0.828125 -1.078125 L 0.828125 0 Z M 0.296875 0 "/></g></g></g><g fill="#000000" fill-opacity="1"><g transform="translate(62.872017, 210.406299)"><g><path d="M 2.046875 -0.921875 L 0.71875 -0.921875 C 0.726562 -0.742188 0.773438 -0.613281 0.859375 -0.53125 C 0.953125 -0.445312 1.078125 -0.40625 1.234375 -0.40625 C 1.347656 -0.40625 1.441406 -0.425781 1.515625 -0.46875 C 1.597656 -0.507812 1.660156 -0.578125 1.703125 -0.671875 L 1.734375 -0.671875 L 2.09375 -0.453125 C 2.019531 -0.304688 1.914062 -0.1875 1.78125 -0.09375 C 1.644531 0 1.460938 0.046875 1.234375 0.046875 C 1.015625 0.046875 0.828125 0.00390625 0.671875 -0.078125 C 0.515625 -0.160156 0.394531 -0.28125 0.3125 -0.4375 C 0.226562 -0.601562 0.1875 -0.800781 0.1875 -1.03125 C 0.1875 -1.269531 0.226562 -1.46875 0.3125 -1.625 C 0.40625 -1.789062 0.523438 -1.914062 0.671875 -2 C 0.828125 -2.082031 1 -2.125 1.1875 -2.125 C 1.488281 -2.125 1.71875 -2.046875 1.875 -1.890625 C 2.03125 -1.734375 2.109375 -1.503906 2.109375 -1.203125 C 2.109375 -1.085938 2.101562 -1 2.09375 -0.9375 Z M 1.609375 -1.265625 C 1.597656 -1.421875 1.554688 -1.535156 1.484375 -1.609375 C 1.421875 -1.679688 1.320312 -1.71875 1.1875 -1.71875 C 0.925781 -1.71875 0.773438 -1.566406 0.734375 -1.265625 Z M 1.609375 -1.265625 "/></g></g></g><g fill="#000000" fill-opacity="1"><g transform="translate(65.129857, 210.406299)"><g><path d="M 0.8125 0.046875 C 0.675781 0.046875 0.554688 0.0195312 0.453125 -0.03125 C 0.359375 -0.0820312 0.285156 -0.15625 0.234375 -0.25 C 0.179688 -0.34375 0.15625 -0.457031 0.15625 -0.59375 C 0.15625 -0.71875 0.179688 -0.820312 0.234375 -0.90625 C 0.285156 -0.988281 0.363281 -1.054688 0.46875 -1.109375 C 0.582031 -1.160156 0.734375 -1.203125 0.921875 -1.234375 C 1.046875 -1.253906 1.140625 -1.273438 1.203125 -1.296875 C 1.265625 -1.316406 1.304688 -1.34375 1.328125 -1.375 C 1.347656 -1.40625 1.359375 -1.445312 1.359375 -1.5 C 1.359375 -1.5625 1.332031 -1.609375 1.28125 -1.640625 C 1.238281 -1.679688 1.164062 -1.703125 1.0625 -1.703125 C 0.945312 -1.703125 0.835938 -1.675781 0.734375 -1.625 C 0.628906 -1.570312 0.539062 -1.503906 0.46875 -1.421875 L 0.421875 -1.421875 L 0.203125 -1.75 C 0.304688 -1.863281 0.429688 -1.953125 0.578125 -2.015625 C 0.734375 -2.085938 0.90625 -2.125 1.09375 -2.125 C 1.363281 -2.125 1.5625 -2.0625 1.6875 -1.9375 C 1.8125 -1.820312 1.875 -1.660156 1.875 -1.453125 L 1.875 -0.546875 C 1.875 -0.453125 1.914062 -0.40625 2 -0.40625 C 2.03125 -0.40625 2.0625 -0.410156 2.09375 -0.421875 L 2.109375 -0.40625 L 2.15625 -0.046875 C 2.125 -0.0234375 2.082031 -0.0078125 2.03125 0 C 1.976562 0.0078125 1.921875 0.015625 1.859375 0.015625 C 1.734375 0.015625 1.632812 -0.00390625 1.5625 -0.046875 C 1.5 -0.0976562 1.453125 -0.175781 1.421875 -0.28125 L 1.375 -0.28125 C 1.28125 -0.0625 1.09375 0.046875 0.8125 0.046875 Z M 0.96875 -0.34375 C 1.09375 -0.34375 1.191406 -0.382812 1.265625 -0.46875 C 1.335938 -0.550781 1.375 -0.664062 1.375 -0.8125 L 1.375 -1.015625 L 1.34375 -1.03125 C 1.3125 -1 1.269531 -0.972656 1.21875 -0.953125 C 1.164062 -0.941406 1.09375 -0.929688 1 -0.921875 C 0.882812 -0.898438 0.800781 -0.863281 0.75 -0.8125 C 0.695312 -0.769531 0.671875 -0.707031 0.671875 -0.625 C 0.671875 -0.53125 0.695312 -0.457031 0.75 -0.40625 C 0.800781 -0.363281 0.875 -0.34375 0.96875 -0.34375 Z M 0.96875 -0.34375 "/></g></g></g><g fill="#000000" fill-opacity="1"><g transform="translate(67.319904, 210.406299)"><g><path d="M 1.03125 0.046875 C 0.863281 0.046875 0.71875 0.00390625 0.59375 -0.078125 C 0.46875 -0.160156 0.367188 -0.28125 0.296875 -0.4375 C 0.222656 -0.601562 0.1875 -0.800781 0.1875 -1.03125 C 0.1875 -1.269531 0.222656 -1.46875 0.296875 -1.625 C 0.367188 -1.789062 0.46875 -1.914062 0.59375 -2 C 0.726562 -2.082031 0.878906 -2.125 1.046875 -2.125 C 1.179688 -2.125 1.296875 -2.097656 1.390625 -2.046875 C 1.484375 -2.003906 1.5625 -1.9375 1.625 -1.84375 L 1.671875 -1.859375 L 1.671875 -2.90625 L 2.1875 -2.90625 L 2.1875 0 L 1.671875 0 L 1.671875 -0.265625 L 1.625 -0.28125 C 1.570312 -0.175781 1.492188 -0.09375 1.390625 -0.03125 C 1.285156 0.0195312 1.164062 0.046875 1.03125 0.046875 Z M 1.203125 -0.40625 C 1.347656 -0.40625 1.460938 -0.457031 1.546875 -0.5625 C 1.628906 -0.664062 1.671875 -0.820312 1.671875 -1.03125 C 1.671875 -1.25 1.628906 -1.410156 1.546875 -1.515625 C 1.460938 -1.617188 1.347656 -1.671875 1.203125 -1.671875 C 1.046875 -1.671875 0.925781 -1.617188 0.84375 -1.515625 C 0.757812 -1.421875 0.71875 -1.257812 0.71875 -1.03125 C 0.71875 -0.8125 0.757812 -0.648438 0.84375 -0.546875 C 0.925781 -0.453125 1.046875 -0.40625 1.203125 -0.40625 Z M 1.203125 -0.40625 "/></g></g></g><g fill="#000000" fill-opacity="1"><g transform="translate(69.809364, 210.406299)"><g><path d="M 0.5625 -2.328125 C 0.46875 -2.328125 0.390625 -2.351562 0.328125 -2.40625 C 0.265625 -2.46875 0.234375 -2.546875 0.234375 -2.640625 C 0.234375 -2.722656 0.265625 -2.789062 0.328125 -2.84375 C 0.390625 -2.90625 0.46875 -2.9375 0.5625 -2.9375 C 0.625 -2.9375 0.675781 -2.921875 0.71875 -2.890625 C 0.769531 -2.867188 0.804688 -2.832031 0.828125 -2.78125 C 0.859375 -2.738281 0.875 -2.691406 0.875 -2.640625 C 0.875 -2.578125 0.859375 -2.519531 0.828125 -2.46875 C 0.804688 -2.425781 0.769531 -2.390625 0.71875 -2.359375 C 0.675781 -2.335938 0.625 -2.328125 0.5625 -2.328125 Z M 0.296875 0 L 0.296875 -2.078125 L 0.828125 -2.078125 L 0.828125 0 Z M 0.296875 0 "/></g></g></g><g fill="#000000" fill-opacity="1"><g transform="translate(70.927926, 210.406299)"><g><path d="M 0.296875 0 L 0.296875 -2.078125 L 0.796875 -2.078125 L 0.796875 -1.765625 L 0.84375 -1.765625 C 0.96875 -2.003906 1.175781 -2.125 1.46875 -2.125 C 1.707031 -2.125 1.882812 -2.054688 2 -1.921875 C 2.113281 -1.785156 2.171875 -1.59375 2.171875 -1.34375 L 2.171875 0 L 1.640625 0 L 1.640625 -1.28125 C 1.640625 -1.425781 1.613281 -1.523438 1.5625 -1.578125 C 1.507812 -1.640625 1.421875 -1.671875 1.296875 -1.671875 C 1.148438 -1.671875 1.035156 -1.625 0.953125 -1.53125 C 0.867188 -1.4375 0.828125 -1.285156 0.828125 -1.078125 L 0.828125 0 Z M 0.296875 0 "/></g></g></g><g fill="#000000" fill-opacity="1"><g transform="translate(73.360894, 210.406299)"><g><path d="M 1.078125 0.875 C 0.734375 0.875 0.476562 0.820312 0.3125 0.71875 C 0.15625 0.625 0.078125 0.488281 0.078125 0.3125 C 0.078125 0.195312 0.109375 0.101562 0.171875 0.03125 C 0.242188 -0.03125 0.347656 -0.0703125 0.484375 -0.09375 L 0.484375 -0.140625 C 0.410156 -0.179688 0.359375 -0.226562 0.328125 -0.28125 C 0.296875 -0.332031 0.28125 -0.394531 0.28125 -0.46875 C 0.28125 -0.632812 0.390625 -0.742188 0.609375 -0.796875 L 0.609375 -0.84375 C 0.492188 -0.90625 0.40625 -0.984375 0.34375 -1.078125 C 0.289062 -1.171875 0.265625 -1.285156 0.265625 -1.421875 C 0.265625 -1.554688 0.296875 -1.675781 0.359375 -1.78125 C 0.421875 -1.882812 0.515625 -1.96875 0.640625 -2.03125 C 0.765625 -2.09375 0.910156 -2.125 1.078125 -2.125 C 1.253906 -2.125 1.394531 -2.09375 1.5 -2.03125 C 1.5625 -2.125 1.597656 -2.226562 1.609375 -2.34375 L 1.65625 -2.375 L 2.03125 -2.28125 C 2.007812 -2.1875 1.976562 -2.101562 1.9375 -2.03125 C 1.894531 -1.96875 1.820312 -1.910156 1.71875 -1.859375 L 1.71875 -1.8125 C 1.832031 -1.707031 1.890625 -1.5625 1.890625 -1.375 C 1.890625 -1.25 1.859375 -1.132812 1.796875 -1.03125 C 1.734375 -0.925781 1.640625 -0.84375 1.515625 -0.78125 C 1.398438 -0.726562 1.253906 -0.703125 1.078125 -0.703125 L 1 -0.703125 C 0.945312 -0.703125 0.914062 -0.703125 0.90625 -0.703125 C 0.851562 -0.703125 0.8125 -0.691406 0.78125 -0.671875 C 0.757812 -0.648438 0.75 -0.617188 0.75 -0.578125 C 0.75 -0.523438 0.765625 -0.488281 0.796875 -0.46875 C 0.835938 -0.445312 0.890625 -0.429688 0.953125 -0.421875 L 1.421875 -0.40625 C 1.878906 -0.394531 2.109375 -0.195312 2.109375 0.1875 C 2.109375 0.3125 2.070312 0.425781 2 0.53125 C 1.9375 0.644531 1.828125 0.726562 1.671875 0.78125 C 1.515625 0.84375 1.316406 0.875 1.078125 0.875 Z M 1.078125 -1.078125 C 1.179688 -1.078125 1.257812 -1.101562 1.3125 -1.15625 C 1.375 -1.21875 1.40625 -1.300781 1.40625 -1.40625 C 1.40625 -1.519531 1.375 -1.601562 1.3125 -1.65625 C 1.257812 -1.71875 1.179688 -1.75 1.078125 -1.75 C 0.984375 -1.75 0.90625 -1.71875 0.84375 -1.65625 C 0.789062 -1.601562 0.765625 -1.519531 0.765625 -1.40625 C 0.765625 -1.300781 0.789062 -1.21875 0.84375 -1.15625 C 0.90625 -1.101562 0.984375 -1.078125 1.078125 -1.078125 Z M 1.078125 0.5 C 1.253906 0.5 1.382812 0.472656 1.46875 0.421875 C 1.550781 0.378906 1.59375 0.316406 1.59375 0.234375 C 1.59375 0.171875 1.570312 0.125 1.53125 0.09375 C 1.488281 0.0625 1.421875 0.0390625 1.328125 0.03125 L 0.921875 0.015625 C 0.898438 0.015625 0.882812 0.015625 0.875 0.015625 C 0.863281 0.015625 0.851562 0.015625 0.84375 0.015625 C 0.757812 0.015625 0.691406 0.03125 0.640625 0.0625 C 0.597656 0.101562 0.578125 0.160156 0.578125 0.234375 C 0.578125 0.316406 0.617188 0.378906 0.703125 0.421875 C 0.785156 0.472656 0.910156 0.5 1.078125 0.5 Z M 1.078125 0.5 "/></g></g></g><g clip-path="url(#71c8b7fda4)"><path fill="#ebebeb" d="M 362.289062 187.496094 C 362.289062 284.03125 284.03125 362.289062 187.496094 362.289062 C 90.960938 362.289062 12.703125 284.03125 12.703125 187.496094 C 12.703125 90.960938 90.960938 12.703125 187.496094 12.703125 C 284.03125 12.703125 362.289062 90.960938 362.289062 187.496094 " fill-opacity="1" fill-rule="nonzero"/></g><g clip-path="url(#17f028f9a9)"><g clip-path="url(#ac09f068d2)"><path fill="#dbdbdb" d="M 42.910156 293.640625 C 47.53125 281.4375 61.195312 274.261719 74.246094 274.4375 C 87.296875 274.613281 99.589844 280.945312 109.773438 289.101562 C 120.066406 297.351562 128.75 307.605469 135.183594 319.121094 C 139.386719 326.644531 142.703125 335.160156 141.601562 343.707031 C 140.167969 354.851562 131 364.128906 120.238281 367.355469 C 109.476562 370.585938 97.574219 368.351562 87.691406 363.007812 C 81.949219 359.902344 78.300781 356.140625 73.988281 351.546875 C 68.9375 346.167969 62.347656 342.8125 56.914062 337.753906 C 47.164062 328.671875 37.898438 306.886719 42.910156 293.640625 " fill-opacity="1" fill-rule="nonzero"/></g></g><g clip-path="url(#67ddfaf1a9)"><g clip-path="url(#133358777f)"><path fill="#dbdbdb" d="M 253.8125 334.683594 C 258.367188 332.367188 263.992188 330.929688 268.46875 333.386719 C 272.722656 335.726562 274.644531 341.132812 273.917969 345.933594 C 273.191406 350.734375 270.269531 354.949219 266.824219 358.367188 C 260.882812 364.261719 239.300781 377.757812 233.109375 365.6875 C 227.496094 354.738281 245.628906 338.847656 253.8125 334.683594 " fill-opacity="1" fill-rule="nonzero"/></g></g><g clip-path="url(#05fa297f29)"><g clip-path="url(#141393ec00)"><path fill="#dbdbdb" d="M 264.539062 215.488281 C 265.054688 201.742188 266.789062 187.40625 274.46875 175.992188 C 282.144531 164.574219 297.367188 157.1875 310.078125 162.449219 C 322.484375 167.589844 327.988281 182.136719 329.804688 195.441406 C 331.164062 205.410156 331.195312 215.734375 328.175781 225.332031 C 325.160156 234.929688 318.820312 243.761719 309.832031 248.285156 C 284.847656 260.855469 263.636719 239.625 264.539062 215.488281 " fill-opacity="1" fill-rule="nonzero"/></g></g><g clip-path="url(#da0ce1989d)"><g clip-path="url(#28f9529911)"><path fill="#dbdbdb" d="M 161.292969 205.511719 C 165.472656 209.910156 172.382812 212.335938 177.769531 209.535156 C 183.132812 206.746094 185.105469 199.980469 185.058594 193.933594 C 185.011719 187.734375 183.332031 181.414062 179.507812 176.535156 C 175.6875 171.652344 169.5625 168.410156 163.378906 168.863281 C 160.953125 169.042969 158.507812 169.808594 156.667969 171.398438 C 147.652344 179.195312 154.683594 198.550781 161.292969 205.511719 " fill-opacity="1" fill-rule="nonzero"/></g></g><g clip-path="url(#5bf63b8950)"><g clip-path="url(#fbafe46e9d)"><path fill="#dbdbdb" d="M 221.433594 15.5625 C 220.328125 19.144531 220.675781 23.109375 221.238281 27.039062 C 222.3125 34.53125 224.160156 42.171875 228.226562 49.730469 C 236.1875 64.535156 252.878906 78.167969 276.375 78.757812 C 294.621094 79.214844 307.558594 66.59375 305.972656 54.6875 C 304.34375 42.480469 290.679688 28.683594 276.34375 19.273438 C 259.746094 8.382812 227.269531 -1.269531 221.582031 15.113281 C 221.53125 15.261719 221.480469 15.414062 221.433594 15.5625 " fill-opacity="1" fill-rule="nonzero"/></g></g><g clip-path="url(#c4fef8323c)"><g clip-path="url(#4bee41469c)"><path fill="#dbdbdb" d="M 23.230469 86.351562 C 13.671875 105.8125 8.460938 127.28125 3.449219 148.46875 C 1.875 155.125 0.296875 161.914062 0.839844 168.734375 C 1.382812 175.550781 4.402344 182.53125 10.195312 186.167969 C 20.65625 192.734375 42.808594 180.492188 52.316406 175.191406 C 65.792969 167.679688 77.605469 157.15625 86.460938 144.511719 C 100.753906 124.09375 107.195312 98.320312 104.191406 73.582031 C 102.863281 62.628906 99.46875 51.632812 93.40625 42.347656 C 86.289062 31.449219 80.851562 33.195312 69.601562 38.214844 C 51.871094 46.121094 37.675781 60.941406 27.972656 77.519531 C 26.277344 80.410156 24.703125 83.355469 23.230469 86.351562 " fill-opacity="1" fill-rule="nonzero"/></g></g><g clip-path="url(#148ad05608)"><g clip-path="url(#e4623f555b)"><path fill="#dbdbdb" d="M 186.523438 125.246094 C 193.203125 119.113281 190.996094 100.777344 179.109375 103.488281 C 163.9375 106.949219 172.722656 137.921875 186.523438 125.246094 " fill-opacity="1" fill-rule="nonzero"/></g></g><g clip-path="url(#c4c97c7f50)"><g clip-path="url(#cb6b71eb8d)"><path fill="#dbdbdb" d="M 334.929688 116.472656 C 327.261719 128.371094 342.835938 154.695312 353.722656 137.679688 C 356.4375 133.4375 356.730469 128.042969 355.882812 123.078125 C 355.03125 118.058594 352.546875 112.683594 347.722656 111.058594 C 342.996094 109.464844 337.632812 112.277344 334.929688 116.472656 " fill-opacity="1" fill-rule="nonzero"/></g></g><g clip-path="url(#a915949a4d)"><g clip-path="url(#2b2d5449b3)"><path fill="#dbdbdb" d="M 192.570312 314.039062 C 200.113281 317.070312 208.71875 316.691406 216.484375 314.273438 C 222.101562 312.523438 227.761719 309.367188 230.199219 304.007812 C 238.382812 285.996094 213.734375 277.871094 200.921875 275.988281 C 187.976562 274.089844 176.625 279.875 177.457031 294.667969 C 177.949219 303.417969 184.683594 310.867188 192.570312 314.039062 " fill-opacity="1" fill-rule="nonzero"/></g></g><g clip-path="url(#858542c077)"><g clip-path="url(#1659b23f5e)"><path fill="#dbdbdb" d="M 163.671875 41.226562 C 165.136719 22.019531 136.261719 24.398438 134.492188 41.273438 C 132.386719 61.390625 162.171875 60.894531 163.671875 41.226562 " fill-opacity="1" fill-rule="nonzero"/></g></g><g clip-path="url(#95c5d8dcdf)"><g clip-path="url(#c5b97fc88c)"><path fill="#dbdbdb" d="M 71.386719 251.832031 C 75.117188 249.589844 75.585938 244.160156 73.960938 240.125 C 70.226562 230.847656 54.777344 226.550781 51.722656 238.527344 C 49.15625 248.574219 62.953125 256.898438 71.386719 251.832031 " fill-opacity="1" fill-rule="nonzero"/></g></g></svg>