<svg xmlns="http://www.w3.org/2000/svg" xmlns:xlink="http://www.w3.org/1999/xlink" width="500" zoomAndPan="magnify" viewBox="0 0 375 374.999991" height="500" preserveAspectRatio="xMidYMid meet" version="1.0"><defs><clipPath id="9c59595914"><path d="M 92.613281 10.964844 L 282.363281 10.964844 L 282.363281 364.214844 L 92.613281 364.214844 Z M 92.613281 10.964844 " clip-rule="nonzero"/></clipPath><clipPath id="0b413d1968"><path d="M 137.117188 145.441406 L 235.996094 145.441406 L 235.996094 244.121094 L 137.117188 244.121094 Z M 137.117188 145.441406 " clip-rule="nonzero"/></clipPath><clipPath id="eb69db6ced"><path d="M 151 130.871094 L 268.199219 130.871094 L 268.199219 229.886719 L 151 229.886719 Z M 151 130.871094 " clip-rule="nonzero"/></clipPath></defs><g clip-path="url(#9c59595914)"><path fill="#ffffff" d="M 272.050781 333.519531 C 272.050781 344.75 262.945312 353.855469 251.710938 353.855469 L 123.296875 353.855469 C 112.0625 353.855469 102.957031 344.75 102.957031 333.519531 L 102.957031 41.46875 C 102.957031 30.238281 112.0625 21.132812 123.296875 21.132812 L 149.417969 21.132812 C 150.796875 21.132812 151.914062 22.253906 151.914062 23.632812 L 151.914062 24.921875 C 151.914062 30.042969 156.066406 34.195312 161.1875 34.195312 L 213.820312 34.195312 C 218.941406 34.195312 223.09375 30.042969 223.09375 24.921875 L 223.09375 23.632812 C 223.09375 22.253906 224.210938 21.132812 225.589844 21.132812 L 251.710938 21.132812 C 262.945312 21.132812 272.050781 30.238281 272.050781 41.46875 Z M 251.710938 10.964844 L 123.296875 10.964844 C 106.476562 10.964844 92.789062 24.648438 92.789062 41.46875 L 92.789062 333.519531 C 92.789062 350.339844 106.476562 364.027344 123.296875 364.027344 L 251.710938 364.027344 C 268.53125 364.027344 282.21875 350.339844 282.21875 333.519531 L 282.21875 41.46875 C 282.21875 24.648438 268.53125 10.964844 251.710938 10.964844 " fill-opacity="1" fill-rule="nonzero"/></g><g clip-path="url(#0b413d1968)"><path fill="#00bf60" d="M 226.988281 182.894531 L 226.988281 232.328125 C 226.988281 233.890625 225.714844 235.164062 224.144531 235.164062 L 148.945312 235.164062 C 147.378906 235.164062 146.101562 233.890625 146.101562 232.328125 L 146.101562 157.308594 C 146.101562 155.746094 147.378906 154.472656 148.945312 154.472656 L 219.707031 154.472656 C 222.421875 151.683594 225.0625 149.128906 228.285156 146.261719 C 226.996094 145.777344 225.601562 145.507812 224.144531 145.507812 L 148.945312 145.507812 C 142.421875 145.507812 137.117188 150.800781 137.117188 157.308594 L 137.117188 232.328125 C 137.117188 238.832031 142.421875 244.128906 148.945312 244.128906 L 224.144531 244.128906 C 230.667969 244.128906 235.976562 238.832031 235.976562 232.328125 L 235.976562 172.757812 C 232.871094 175.988281 230.066406 179.136719 226.988281 182.894531 " fill-opacity="1" fill-rule="nonzero"/></g><g clip-path="url(#eb69db6ced)"><path fill="#00bf60" d="M 257.792969 131.589844 C 212.796875 154.832031 188.882812 206.328125 186.074219 210.671875 C 186.054688 210.648438 171.277344 194.605469 160.753906 188.578125 C 151.886719 183.5 147.421875 196.277344 154.71875 200.457031 C 165.894531 206.859375 179.710938 222.8125 183.679688 227.550781 C 186.21875 230.582031 192.179688 230.644531 193.898438 226.742188 C 198.558594 216.160156 206.265625 203.402344 211.925781 194.992188 C 225.421875 174.945312 243.542969 155.386719 265.117188 144.242188 C 272.492188 140.433594 265.261719 127.734375 257.792969 131.589844 " fill-opacity="1" fill-rule="nonzero"/></g></svg>