<svg xmlns="http://www.w3.org/2000/svg" xmlns:xlink="http://www.w3.org/1999/xlink" width="500" zoomAndPan="magnify" viewBox="0 0 375 374.999991" height="500" preserveAspectRatio="xMidYMid meet" version="1.0"><defs><g/><clipPath id="90b14487e1"><path d="M 16.269531 16.269531 L 359 16.269531 L 359 359 L 16.269531 359 Z M 16.269531 16.269531 " clip-rule="nonzero"/></clipPath></defs><g fill="#000000" fill-opacity="1"><g transform="translate(130.846916, 27.784468)"><g><path d="M 2.546875 0 L 2 0 L 1.796875 -0.609375 L 0.78125 -0.609375 L 0.578125 0 L 0.046875 0 L 0.953125 -2.65625 L 1.625 -2.65625 Z M 1.265625 -2.09375 L 0.921875 -1.046875 L 1.65625 -1.046875 L 1.3125 -2.09375 Z M 1.265625 -2.09375 "/></g></g></g><g fill="#000000" fill-opacity="1"><g transform="translate(133.431682, 27.784468)"><g><path d="M 0.984375 0.03125 C 0.828125 0.03125 0.6875 -0.00390625 0.5625 -0.078125 C 0.445312 -0.148438 0.351562 -0.265625 0.28125 -0.421875 C 0.21875 -0.578125 0.1875 -0.769531 0.1875 -1 C 0.1875 -1.226562 0.21875 -1.421875 0.28125 -1.578125 C 0.351562 -1.734375 0.453125 -1.847656 0.578125 -1.921875 C 0.703125 -2.003906 0.847656 -2.046875 1.015625 -2.046875 C 1.140625 -2.046875 1.242188 -2.019531 1.328125 -1.96875 C 1.421875 -1.925781 1.503906 -1.863281 1.578125 -1.78125 L 1.609375 -1.78125 L 1.609375 -2.8125 L 2.109375 -2.8125 L 2.109375 0 L 1.609375 0 L 1.609375 -0.265625 L 1.578125 -0.265625 C 1.515625 -0.171875 1.4375 -0.0976562 1.34375 -0.046875 C 1.25 0.00390625 1.128906 0.03125 0.984375 0.03125 Z M 1.15625 -0.390625 C 1.289062 -0.390625 1.398438 -0.4375 1.484375 -0.53125 C 1.566406 -0.632812 1.609375 -0.789062 1.609375 -1 C 1.609375 -1.207031 1.566406 -1.359375 1.484375 -1.453125 C 1.398438 -1.554688 1.289062 -1.609375 1.15625 -1.609375 C 1.007812 -1.609375 0.894531 -1.554688 0.8125 -1.453125 C 0.738281 -1.359375 0.703125 -1.207031 0.703125 -1 C 0.703125 -0.789062 0.738281 -0.632812 0.8125 -0.53125 C 0.894531 -0.4375 1.007812 -0.390625 1.15625 -0.390625 Z M 1.15625 -0.390625 "/></g></g></g><g fill="#000000" fill-opacity="1"><g transform="translate(135.829619, 27.784468)"><g><path d="M 0.984375 0.03125 C 0.828125 0.03125 0.6875 -0.00390625 0.5625 -0.078125 C 0.445312 -0.148438 0.351562 -0.265625 0.28125 -0.421875 C 0.21875 -0.578125 0.1875 -0.769531 0.1875 -1 C 0.1875 -1.226562 0.21875 -1.421875 0.28125 -1.578125 C 0.351562 -1.734375 0.453125 -1.847656 0.578125 -1.921875 C 0.703125 -2.003906 0.847656 -2.046875 1.015625 -2.046875 C 1.140625 -2.046875 1.242188 -2.019531 1.328125 -1.96875 C 1.421875 -1.925781 1.503906 -1.863281 1.578125 -1.78125 L 1.609375 -1.78125 L 1.609375 -2.8125 L 2.109375 -2.8125 L 2.109375 0 L 1.609375 0 L 1.609375 -0.265625 L 1.578125 -0.265625 C 1.515625 -0.171875 1.4375 -0.0976562 1.34375 -0.046875 C 1.25 0.00390625 1.128906 0.03125 0.984375 0.03125 Z M 1.15625 -0.390625 C 1.289062 -0.390625 1.398438 -0.4375 1.484375 -0.53125 C 1.566406 -0.632812 1.609375 -0.789062 1.609375 -1 C 1.609375 -1.207031 1.566406 -1.359375 1.484375 -1.453125 C 1.398438 -1.554688 1.289062 -1.609375 1.15625 -1.609375 C 1.007812 -1.609375 0.894531 -1.554688 0.8125 -1.453125 C 0.738281 -1.359375 0.703125 -1.207031 0.703125 -1 C 0.703125 -0.789062 0.738281 -0.632812 0.8125 -0.53125 C 0.894531 -0.4375 1.007812 -0.390625 1.15625 -0.390625 Z M 1.15625 -0.390625 "/></g></g></g><g fill="#000000" fill-opacity="1"><g transform="translate(138.227556, 27.784468)"><g/></g></g><g fill="#000000" fill-opacity="1"><g transform="translate(139.103656, 27.784468)"><g><path d="M 0.78125 0.03125 C 0.65625 0.03125 0.546875 0.0078125 0.453125 -0.03125 C 0.359375 -0.0820312 0.285156 -0.148438 0.234375 -0.234375 C 0.179688 -0.328125 0.15625 -0.4375 0.15625 -0.5625 C 0.15625 -0.6875 0.179688 -0.785156 0.234375 -0.859375 C 0.285156 -0.941406 0.363281 -1.007812 0.46875 -1.0625 C 0.570312 -1.113281 0.707031 -1.15625 0.875 -1.1875 C 1 -1.207031 1.09375 -1.226562 1.15625 -1.25 C 1.21875 -1.269531 1.257812 -1.296875 1.28125 -1.328125 C 1.300781 -1.359375 1.3125 -1.394531 1.3125 -1.4375 C 1.3125 -1.5 1.289062 -1.546875 1.25 -1.578125 C 1.207031 -1.617188 1.132812 -1.640625 1.03125 -1.640625 C 0.914062 -1.640625 0.804688 -1.613281 0.703125 -1.5625 C 0.609375 -1.507812 0.519531 -1.441406 0.4375 -1.359375 L 0.40625 -1.359375 L 0.203125 -1.6875 C 0.296875 -1.800781 0.414062 -1.890625 0.5625 -1.953125 C 0.71875 -2.015625 0.878906 -2.046875 1.046875 -2.046875 C 1.316406 -2.046875 1.507812 -1.988281 1.625 -1.875 C 1.738281 -1.757812 1.796875 -1.597656 1.796875 -1.390625 L 1.796875 -0.515625 C 1.796875 -0.429688 1.835938 -0.390625 1.921875 -0.390625 C 1.953125 -0.390625 1.984375 -0.394531 2.015625 -0.40625 L 2.03125 -0.390625 L 2.078125 -0.046875 C 2.046875 -0.0234375 2.003906 -0.0078125 1.953125 0 C 1.898438 0.0078125 1.847656 0.015625 1.796875 0.015625 C 1.671875 0.015625 1.570312 -0.00390625 1.5 -0.046875 C 1.4375 -0.0976562 1.394531 -0.171875 1.375 -0.265625 L 1.328125 -0.28125 C 1.234375 -0.0703125 1.050781 0.03125 0.78125 0.03125 Z M 0.9375 -0.34375 C 1.050781 -0.34375 1.144531 -0.378906 1.21875 -0.453125 C 1.289062 -0.535156 1.328125 -0.644531 1.328125 -0.78125 L 1.328125 -0.984375 L 1.296875 -0.984375 C 1.265625 -0.960938 1.222656 -0.941406 1.171875 -0.921875 C 1.117188 -0.910156 1.046875 -0.894531 0.953125 -0.875 C 0.847656 -0.863281 0.769531 -0.832031 0.71875 -0.78125 C 0.675781 -0.738281 0.65625 -0.675781 0.65625 -0.59375 C 0.65625 -0.507812 0.675781 -0.445312 0.71875 -0.40625 C 0.769531 -0.363281 0.84375 -0.34375 0.9375 -0.34375 Z M 0.9375 -0.34375 "/></g></g></g><g fill="#000000" fill-opacity="1"><g transform="translate(141.213188, 27.784468)"><g/></g></g><g fill="#000000" fill-opacity="1"><g transform="translate(142.089288, 27.784468)"><g><path d="M 0.28125 0 L 0.28125 -2.8125 L 0.796875 -2.8125 L 0.796875 -1.734375 L 0.828125 -1.734375 C 0.898438 -1.828125 0.984375 -1.898438 1.078125 -1.953125 C 1.171875 -2.015625 1.285156 -2.046875 1.421875 -2.046875 C 1.867188 -2.046875 2.09375 -1.796875 2.09375 -1.296875 L 2.09375 0 L 1.578125 0 L 1.578125 -1.21875 C 1.578125 -1.363281 1.550781 -1.460938 1.5 -1.515625 C 1.445312 -1.578125 1.363281 -1.609375 1.25 -1.609375 C 1.101562 -1.609375 0.988281 -1.5625 0.90625 -1.46875 C 0.832031 -1.375 0.796875 -1.226562 0.796875 -1.03125 L 0.796875 0 Z M 0.28125 0 "/></g></g></g><g fill="#000000" fill-opacity="1"><g transform="translate(144.432808, 27.784468)"><g><path d="M 1.984375 -0.890625 L 0.6875 -0.890625 C 0.707031 -0.710938 0.757812 -0.582031 0.84375 -0.5 C 0.925781 -0.425781 1.039062 -0.390625 1.1875 -0.390625 C 1.300781 -0.390625 1.394531 -0.410156 1.46875 -0.453125 C 1.539062 -0.492188 1.597656 -0.554688 1.640625 -0.640625 L 1.671875 -0.640625 L 2.015625 -0.4375 C 1.941406 -0.289062 1.835938 -0.175781 1.703125 -0.09375 C 1.578125 -0.0078125 1.40625 0.03125 1.1875 0.03125 C 0.976562 0.03125 0.796875 -0.00390625 0.640625 -0.078125 C 0.492188 -0.160156 0.378906 -0.28125 0.296875 -0.4375 C 0.222656 -0.59375 0.1875 -0.78125 0.1875 -1 C 0.1875 -1.226562 0.226562 -1.421875 0.3125 -1.578125 C 0.394531 -1.734375 0.507812 -1.847656 0.65625 -1.921875 C 0.800781 -2.003906 0.96875 -2.046875 1.15625 -2.046875 C 1.4375 -2.046875 1.648438 -1.96875 1.796875 -1.8125 C 1.953125 -1.664062 2.03125 -1.445312 2.03125 -1.15625 C 2.03125 -1.050781 2.023438 -0.96875 2.015625 -0.90625 Z M 1.546875 -1.21875 C 1.546875 -1.363281 1.507812 -1.472656 1.4375 -1.546875 C 1.375 -1.617188 1.28125 -1.65625 1.15625 -1.65625 C 0.894531 -1.65625 0.742188 -1.507812 0.703125 -1.21875 Z M 1.546875 -1.21875 "/></g></g></g><g fill="#000000" fill-opacity="1"><g transform="translate(146.60764, 27.784468)"><g><path d="M 0.78125 0.03125 C 0.65625 0.03125 0.546875 0.0078125 0.453125 -0.03125 C 0.359375 -0.0820312 0.285156 -0.148438 0.234375 -0.234375 C 0.179688 -0.328125 0.15625 -0.4375 0.15625 -0.5625 C 0.15625 -0.6875 0.179688 -0.785156 0.234375 -0.859375 C 0.285156 -0.941406 0.363281 -1.007812 0.46875 -1.0625 C 0.570312 -1.113281 0.707031 -1.15625 0.875 -1.1875 C 1 -1.207031 1.09375 -1.226562 1.15625 -1.25 C 1.21875 -1.269531 1.257812 -1.296875 1.28125 -1.328125 C 1.300781 -1.359375 1.3125 -1.394531 1.3125 -1.4375 C 1.3125 -1.5 1.289062 -1.546875 1.25 -1.578125 C 1.207031 -1.617188 1.132812 -1.640625 1.03125 -1.640625 C 0.914062 -1.640625 0.804688 -1.613281 0.703125 -1.5625 C 0.609375 -1.507812 0.519531 -1.441406 0.4375 -1.359375 L 0.40625 -1.359375 L 0.203125 -1.6875 C 0.296875 -1.800781 0.414062 -1.890625 0.5625 -1.953125 C 0.71875 -2.015625 0.878906 -2.046875 1.046875 -2.046875 C 1.316406 -2.046875 1.507812 -1.988281 1.625 -1.875 C 1.738281 -1.757812 1.796875 -1.597656 1.796875 -1.390625 L 1.796875 -0.515625 C 1.796875 -0.429688 1.835938 -0.390625 1.921875 -0.390625 C 1.953125 -0.390625 1.984375 -0.394531 2.015625 -0.40625 L 2.03125 -0.390625 L 2.078125 -0.046875 C 2.046875 -0.0234375 2.003906 -0.0078125 1.953125 0 C 1.898438 0.0078125 1.847656 0.015625 1.796875 0.015625 C 1.671875 0.015625 1.570312 -0.00390625 1.5 -0.046875 C 1.4375 -0.0976562 1.394531 -0.171875 1.375 -0.265625 L 1.328125 -0.28125 C 1.234375 -0.0703125 1.050781 0.03125 0.78125 0.03125 Z M 0.9375 -0.34375 C 1.050781 -0.34375 1.144531 -0.378906 1.21875 -0.453125 C 1.289062 -0.535156 1.328125 -0.644531 1.328125 -0.78125 L 1.328125 -0.984375 L 1.296875 -0.984375 C 1.265625 -0.960938 1.222656 -0.941406 1.171875 -0.921875 C 1.117188 -0.910156 1.046875 -0.894531 0.953125 -0.875 C 0.847656 -0.863281 0.769531 -0.832031 0.71875 -0.78125 C 0.675781 -0.738281 0.65625 -0.675781 0.65625 -0.59375 C 0.65625 -0.507812 0.675781 -0.445312 0.71875 -0.40625 C 0.769531 -0.363281 0.84375 -0.34375 0.9375 -0.34375 Z M 0.9375 -0.34375 "/></g></g></g><g fill="#000000" fill-opacity="1"><g transform="translate(148.717171, 27.784468)"><g><path d="M 0.984375 0.03125 C 0.828125 0.03125 0.6875 -0.00390625 0.5625 -0.078125 C 0.445312 -0.148438 0.351562 -0.265625 0.28125 -0.421875 C 0.21875 -0.578125 0.1875 -0.769531 0.1875 -1 C 0.1875 -1.226562 0.21875 -1.421875 0.28125 -1.578125 C 0.351562 -1.734375 0.453125 -1.847656 0.578125 -1.921875 C 0.703125 -2.003906 0.847656 -2.046875 1.015625 -2.046875 C 1.140625 -2.046875 1.242188 -2.019531 1.328125 -1.96875 C 1.421875 -1.925781 1.503906 -1.863281 1.578125 -1.78125 L 1.609375 -1.78125 L 1.609375 -2.8125 L 2.109375 -2.8125 L 2.109375 0 L 1.609375 0 L 1.609375 -0.265625 L 1.578125 -0.265625 C 1.515625 -0.171875 1.4375 -0.0976562 1.34375 -0.046875 C 1.25 0.00390625 1.128906 0.03125 0.984375 0.03125 Z M 1.15625 -0.390625 C 1.289062 -0.390625 1.398438 -0.4375 1.484375 -0.53125 C 1.566406 -0.632812 1.609375 -0.789062 1.609375 -1 C 1.609375 -1.207031 1.566406 -1.359375 1.484375 -1.453125 C 1.398438 -1.554688 1.289062 -1.609375 1.15625 -1.609375 C 1.007812 -1.609375 0.894531 -1.554688 0.8125 -1.453125 C 0.738281 -1.359375 0.703125 -1.207031 0.703125 -1 C 0.703125 -0.789062 0.738281 -0.632812 0.8125 -0.53125 C 0.894531 -0.4375 1.007812 -0.390625 1.15625 -0.390625 Z M 1.15625 -0.390625 "/></g></g></g><g fill="#000000" fill-opacity="1"><g transform="translate(151.115106, 27.784468)"><g><path d="M 0.546875 -2.25 C 0.453125 -2.25 0.375 -2.273438 0.3125 -2.328125 C 0.257812 -2.378906 0.234375 -2.445312 0.234375 -2.53125 C 0.234375 -2.625 0.257812 -2.695312 0.3125 -2.75 C 0.375 -2.800781 0.453125 -2.828125 0.546875 -2.828125 C 0.597656 -2.828125 0.644531 -2.8125 0.6875 -2.78125 C 0.738281 -2.757812 0.773438 -2.726562 0.796875 -2.6875 C 0.828125 -2.644531 0.84375 -2.59375 0.84375 -2.53125 C 0.84375 -2.476562 0.828125 -2.425781 0.796875 -2.375 C 0.773438 -2.332031 0.738281 -2.300781 0.6875 -2.28125 C 0.644531 -2.257812 0.597656 -2.25 0.546875 -2.25 Z M 0.28125 0 L 0.28125 -2 L 0.796875 -2 L 0.796875 0 Z M 0.28125 0 "/></g></g></g><g fill="#000000" fill-opacity="1"><g transform="translate(152.192544, 27.784468)"><g><path d="M 0.28125 0 L 0.28125 -2 L 0.765625 -2 L 0.765625 -1.703125 L 0.8125 -1.703125 C 0.9375 -1.929688 1.140625 -2.046875 1.421875 -2.046875 C 1.648438 -2.046875 1.816406 -1.976562 1.921875 -1.84375 C 2.035156 -1.71875 2.09375 -1.535156 2.09375 -1.296875 L 2.09375 0 L 1.578125 0 L 1.578125 -1.234375 C 1.578125 -1.367188 1.550781 -1.460938 1.5 -1.515625 C 1.445312 -1.578125 1.363281 -1.609375 1.25 -1.609375 C 1.101562 -1.609375 0.988281 -1.5625 0.90625 -1.46875 C 0.832031 -1.382812 0.796875 -1.238281 0.796875 -1.03125 L 0.796875 0 Z M 0.28125 0 "/></g></g></g><g fill="#000000" fill-opacity="1"><g transform="translate(154.536065, 27.784468)"><g><path d="M 1.03125 0.84375 C 0.707031 0.84375 0.46875 0.796875 0.3125 0.703125 C 0.15625 0.609375 0.078125 0.472656 0.078125 0.296875 C 0.078125 0.191406 0.109375 0.101562 0.171875 0.03125 C 0.234375 -0.03125 0.332031 -0.0703125 0.46875 -0.09375 L 0.46875 -0.125 C 0.394531 -0.164062 0.34375 -0.210938 0.3125 -0.265625 C 0.28125 -0.316406 0.265625 -0.375 0.265625 -0.4375 C 0.265625 -0.601562 0.367188 -0.710938 0.578125 -0.765625 L 0.578125 -0.8125 C 0.472656 -0.875 0.394531 -0.945312 0.34375 -1.03125 C 0.289062 -1.125 0.265625 -1.238281 0.265625 -1.375 C 0.265625 -1.5 0.289062 -1.613281 0.34375 -1.71875 C 0.40625 -1.820312 0.492188 -1.898438 0.609375 -1.953125 C 0.734375 -2.015625 0.878906 -2.046875 1.046875 -2.046875 C 1.210938 -2.046875 1.34375 -2.015625 1.4375 -1.953125 C 1.5 -2.046875 1.535156 -2.148438 1.546875 -2.265625 L 1.59375 -2.28125 L 1.953125 -2.203125 C 1.941406 -2.109375 1.910156 -2.023438 1.859375 -1.953125 C 1.816406 -1.890625 1.75 -1.832031 1.65625 -1.78125 L 1.65625 -1.75 C 1.769531 -1.644531 1.828125 -1.503906 1.828125 -1.328125 C 1.828125 -1.203125 1.796875 -1.085938 1.734375 -0.984375 C 1.671875 -0.890625 1.578125 -0.8125 1.453125 -0.75 C 1.335938 -0.695312 1.203125 -0.671875 1.046875 -0.671875 L 0.96875 -0.6875 C 0.914062 -0.6875 0.878906 -0.6875 0.859375 -0.6875 C 0.816406 -0.6875 0.78125 -0.671875 0.75 -0.640625 C 0.726562 -0.617188 0.71875 -0.585938 0.71875 -0.546875 C 0.71875 -0.503906 0.734375 -0.472656 0.765625 -0.453125 C 0.804688 -0.429688 0.859375 -0.414062 0.921875 -0.40625 L 1.375 -0.390625 C 1.8125 -0.378906 2.03125 -0.191406 2.03125 0.171875 C 2.03125 0.304688 1.992188 0.421875 1.921875 0.515625 C 1.859375 0.617188 1.753906 0.695312 1.609375 0.75 C 1.460938 0.8125 1.269531 0.84375 1.03125 0.84375 Z M 1.046875 -1.03125 C 1.140625 -1.03125 1.210938 -1.054688 1.265625 -1.109375 C 1.328125 -1.171875 1.359375 -1.253906 1.359375 -1.359375 C 1.359375 -1.460938 1.328125 -1.539062 1.265625 -1.59375 C 1.210938 -1.65625 1.140625 -1.6875 1.046875 -1.6875 C 0.941406 -1.6875 0.863281 -1.65625 0.8125 -1.59375 C 0.757812 -1.539062 0.734375 -1.460938 0.734375 -1.359375 C 0.734375 -1.253906 0.757812 -1.171875 0.8125 -1.109375 C 0.863281 -1.054688 0.941406 -1.03125 1.046875 -1.03125 Z M 1.03125 0.484375 C 1.207031 0.484375 1.332031 0.457031 1.40625 0.40625 C 1.488281 0.363281 1.53125 0.300781 1.53125 0.21875 C 1.53125 0.15625 1.507812 0.109375 1.46875 0.078125 C 1.425781 0.0546875 1.363281 0.0390625 1.28125 0.03125 L 0.890625 0.015625 C 0.867188 0.015625 0.851562 0.015625 0.84375 0.015625 C 0.832031 0.015625 0.820312 0.015625 0.8125 0.015625 C 0.726562 0.015625 0.660156 0.03125 0.609375 0.0625 C 0.566406 0.101562 0.546875 0.15625 0.546875 0.21875 C 0.546875 0.300781 0.585938 0.363281 0.671875 0.40625 C 0.753906 0.457031 0.875 0.484375 1.03125 0.484375 Z M 1.03125 0.484375 "/></g></g></g><g clip-path="url(#90b14487e1)"><path fill="#ffffff" d="M 342.570312 326.632812 L 303.007812 287.0625 C 301.515625 285.574219 300.816406 283.460938 301.121094 281.371094 C 301.429688 279.28125 302.707031 277.453125 304.558594 276.449219 L 322.757812 266.625 L 236.535156 236.539062 L 266.625 322.769531 L 276.449219 304.5625 C 277.453125 302.710938 279.277344 301.433594 281.371094 301.121094 C 281.691406 301.078125 282.011719 301.054688 282.332031 301.054688 C 284.101562 301.054688 285.808594 301.753906 287.0625 303.007812 L 326.636719 342.582031 Z M 220.925781 220.925781 C 219.113281 222.746094 218.5 225.433594 219.34375 227.863281 L 230.691406 260.382812 C 214.050781 271.292969 194.8125 277.039062 174.734375 277.039062 C 118.324219 277.039062 72.433594 231.144531 72.433594 174.734375 C 72.433594 118.328125 118.324219 72.4375 174.734375 72.4375 C 231.140625 72.4375 277.035156 118.328125 277.035156 174.734375 C 277.035156 194.8125 271.289062 214.050781 260.382812 230.691406 L 227.863281 219.34375 C 225.433594 218.5 222.746094 219.117188 220.925781 220.925781 Z M 245.085938 301.648438 C 223.640625 313.550781 199.4375 319.828125 174.734375 319.828125 C 94.734375 319.828125 29.644531 254.738281 29.644531 174.734375 C 29.644531 94.734375 94.734375 29.644531 174.734375 29.644531 C 254.734375 29.644531 319.820312 94.734375 319.820312 174.734375 C 319.820312 199.441406 313.550781 223.644531 301.644531 245.085938 L 273.355469 235.214844 C 284.542969 217.054688 290.414062 196.320312 290.414062 174.734375 C 290.414062 110.949219 238.519531 59.058594 174.734375 59.058594 C 110.945312 59.058594 59.058594 110.949219 59.058594 174.734375 C 59.058594 238.519531 110.945312 290.414062 174.734375 290.414062 C 196.320312 290.414062 217.054688 284.542969 235.214844 273.359375 Z M 358.726562 326.632812 C 358.726562 328.40625 358.03125 330.105469 356.769531 331.363281 L 331.371094 356.765625 C 330.046875 358.070312 328.339844 358.726562 326.636719 358.726562 C 324.933594 358.726562 323.199219 358.070312 321.90625 356.765625 L 283.957031 318.824219 L 271.191406 342.472656 C 269.925781 344.808594 267.40625 346.175781 264.773438 345.964844 C 262.128906 345.75 259.863281 343.996094 258.984375 341.5 L 249.554688 314.453125 C 226.632812 326.742188 200.941406 333.203125 174.734375 333.203125 C 132.410156 333.203125 92.613281 316.714844 62.683594 286.789062 C 32.75 256.859375 16.269531 217.0625 16.269531 174.734375 C 16.269531 132.40625 32.75 92.613281 62.683594 62.683594 C 92.613281 32.753906 132.410156 16.269531 174.734375 16.269531 C 217.0625 16.269531 256.859375 32.753906 286.789062 62.683594 C 316.699219 92.613281 333.199219 132.40625 333.199219 174.734375 C 333.199219 200.9375 326.730469 226.632812 314.457031 249.554688 L 341.496094 258.992188 C 343.988281 259.859375 345.757812 262.128906 345.976562 264.773438 C 346.167969 267.414062 344.808594 269.929688 342.476562 271.195312 L 318.8125 283.960938 L 356.769531 321.90625 C 358.03125 323.15625 358.726562 324.863281 358.726562 326.632812 Z M 210.519531 201.191406 C 210.519531 183.179688 194.46875 168.523438 174.734375 168.523438 C 162.382812 168.523438 152.328125 159.871094 152.328125 149.234375 C 152.328125 138.59375 162.382812 129.941406 174.734375 129.941406 C 181.15625 129.941406 192.304688 134.898438 194.953125 138.933594 C 196.980469 142.019531 201.128906 142.875 204.21875 140.847656 C 207.308594 138.820312 208.167969 134.671875 206.132812 131.585938 C 201.410156 124.394531 190.179688 119.246094 181.324219 117.355469 L 181.078125 107.078125 C 180.988281 103.386719 177.90625 100.453125 174.226562 100.550781 C 170.535156 100.640625 167.609375 103.707031 167.707031 107.398438 L 167.933594 117.15625 C 151.449219 120.066406 138.949219 133.34375 138.949219 149.234375 C 138.949219 167.246094 155.003906 181.902344 174.734375 181.902344 C 187.085938 181.902344 197.144531 190.558594 197.144531 201.191406 C 197.144531 211.832031 187.085938 220.484375 174.734375 220.484375 C 166.253906 220.484375 161.96875 217.730469 154.984375 211.144531 C 152.296875 208.605469 148.0625 208.730469 145.527344 211.417969 C 142.992188 214.105469 143.117188 218.339844 145.800781 220.875 C 151.84375 226.570312 158.160156 231.777344 168.171875 233.367188 L 168.394531 242.398438 C 168.480469 246.039062 171.457031 248.917969 175.074219 248.917969 C 175.128906 248.917969 175.183594 248.917969 175.242188 248.917969 C 178.933594 248.835938 181.859375 245.765625 181.765625 242.070312 L 181.550781 233.265625 C 198.03125 230.351562 210.519531 217.074219 210.519531 201.191406 Z M 210.519531 201.191406 " fill-opacity="1" fill-rule="evenodd"/></g></svg>