<svg xmlns="http://www.w3.org/2000/svg" xmlns:xlink="http://www.w3.org/1999/xlink" width="500" zoomAndPan="magnify" viewBox="0 0 375 374.999991" height="500" preserveAspectRatio="xMidYMid meet" version="1.0"><defs><g/><clipPath id="8a308dc792"><path d="M 283 185 L 370.496094 185 L 370.496094 303 L 283 303 Z M 283 185 " clip-rule="nonzero"/></clipPath><clipPath id="fd1c3cc2b5"><path d="M 4.496094 72 L 276 72 L 276 303 L 4.496094 303 Z M 4.496094 72 " clip-rule="nonzero"/></clipPath></defs><g fill="#ffffff" fill-opacity="1"><g transform="translate(227.12104, 127.049253)"><g><path d="M 1.171875 0 L 0.921875 0 L 0.828125 -0.28125 L 0.359375 -0.28125 L 0.265625 0 L 0.015625 0 L 0.4375 -1.234375 L 0.75 -1.234375 Z M 0.578125 -0.96875 L 0.421875 -0.484375 L 0.765625 -0.484375 L 0.609375 -0.96875 Z M 0.578125 -0.96875 "/></g></g><g transform="translate(228.314453, 127.049253)"><g><path d="M 0.453125 0.015625 C 0.378906 0.015625 0.3125 0 0.25 -0.03125 C 0.195312 -0.0703125 0.15625 -0.125 0.125 -0.1875 C 0.09375 -0.257812 0.078125 -0.351562 0.078125 -0.46875 C 0.078125 -0.570312 0.09375 -0.660156 0.125 -0.734375 C 0.164062 -0.804688 0.210938 -0.859375 0.265625 -0.890625 C 0.328125 -0.921875 0.394531 -0.9375 0.46875 -0.9375 C 0.53125 -0.9375 0.582031 -0.925781 0.625 -0.90625 C 0.664062 -0.894531 0.695312 -0.867188 0.71875 -0.828125 L 0.75 -0.828125 L 0.75 -1.296875 L 0.96875 -1.296875 L 0.96875 0 L 0.75 0 L 0.75 -0.125 L 0.71875 -0.125 C 0.695312 -0.0820312 0.660156 -0.046875 0.609375 -0.015625 C 0.566406 0.00390625 0.515625 0.015625 0.453125 0.015625 Z M 0.53125 -0.171875 C 0.59375 -0.171875 0.644531 -0.191406 0.6875 -0.234375 C 0.726562 -0.285156 0.75 -0.363281 0.75 -0.46875 C 0.75 -0.5625 0.726562 -0.628906 0.6875 -0.671875 C 0.644531 -0.722656 0.59375 -0.75 0.53125 -0.75 C 0.46875 -0.75 0.414062 -0.722656 0.375 -0.671875 C 0.34375 -0.628906 0.328125 -0.5625 0.328125 -0.46875 C 0.328125 -0.363281 0.34375 -0.285156 0.375 -0.234375 C 0.414062 -0.191406 0.46875 -0.171875 0.53125 -0.171875 Z M 0.53125 -0.171875 "/></g></g><g transform="translate(229.421605, 127.049253)"><g><path d="M 0.453125 0.015625 C 0.378906 0.015625 0.3125 0 0.25 -0.03125 C 0.195312 -0.0703125 0.15625 -0.125 0.125 -0.1875 C 0.09375 -0.257812 0.078125 -0.351562 0.078125 -0.46875 C 0.078125 -0.570312 0.09375 -0.660156 0.125 -0.734375 C 0.164062 -0.804688 0.210938 -0.859375 0.265625 -0.890625 C 0.328125 -0.921875 0.394531 -0.9375 0.46875 -0.9375 C 0.53125 -0.9375 0.582031 -0.925781 0.625 -0.90625 C 0.664062 -0.894531 0.695312 -0.867188 0.71875 -0.828125 L 0.75 -0.828125 L 0.75 -1.296875 L 0.96875 -1.296875 L 0.96875 0 L 0.75 0 L 0.75 -0.125 L 0.71875 -0.125 C 0.695312 -0.0820312 0.660156 -0.046875 0.609375 -0.015625 C 0.566406 0.00390625 0.515625 0.015625 0.453125 0.015625 Z M 0.53125 -0.171875 C 0.59375 -0.171875 0.644531 -0.191406 0.6875 -0.234375 C 0.726562 -0.285156 0.75 -0.363281 0.75 -0.46875 C 0.75 -0.5625 0.726562 -0.628906 0.6875 -0.671875 C 0.644531 -0.722656 0.59375 -0.75 0.53125 -0.75 C 0.46875 -0.75 0.414062 -0.722656 0.375 -0.671875 C 0.34375 -0.628906 0.328125 -0.5625 0.328125 -0.46875 C 0.328125 -0.363281 0.34375 -0.285156 0.375 -0.234375 C 0.414062 -0.191406 0.46875 -0.171875 0.53125 -0.171875 Z M 0.53125 -0.171875 "/></g></g><g transform="translate(230.528758, 127.049253)"><g/></g><g transform="translate(230.933262, 127.049253)"><g><path d="M 0.359375 0.015625 C 0.296875 0.015625 0.242188 0.00390625 0.203125 -0.015625 C 0.160156 -0.0351562 0.128906 -0.0664062 0.109375 -0.109375 C 0.0859375 -0.148438 0.078125 -0.203125 0.078125 -0.265625 C 0.078125 -0.316406 0.0859375 -0.359375 0.109375 -0.390625 C 0.128906 -0.429688 0.160156 -0.460938 0.203125 -0.484375 C 0.253906 -0.515625 0.320312 -0.535156 0.40625 -0.546875 C 0.457031 -0.554688 0.5 -0.566406 0.53125 -0.578125 C 0.5625 -0.585938 0.582031 -0.597656 0.59375 -0.609375 C 0.601562 -0.628906 0.609375 -0.648438 0.609375 -0.671875 C 0.609375 -0.691406 0.597656 -0.707031 0.578125 -0.71875 C 0.554688 -0.738281 0.519531 -0.75 0.46875 -0.75 C 0.414062 -0.75 0.363281 -0.738281 0.3125 -0.71875 C 0.269531 -0.695312 0.234375 -0.664062 0.203125 -0.625 L 0.1875 -0.625 L 0.09375 -0.78125 C 0.132812 -0.832031 0.1875 -0.867188 0.25 -0.890625 C 0.320312 -0.921875 0.398438 -0.9375 0.484375 -0.9375 C 0.609375 -0.9375 0.695312 -0.910156 0.75 -0.859375 C 0.800781 -0.804688 0.828125 -0.734375 0.828125 -0.640625 L 0.828125 -0.234375 C 0.828125 -0.191406 0.847656 -0.171875 0.890625 -0.171875 C 0.898438 -0.171875 0.910156 -0.175781 0.921875 -0.1875 L 0.9375 -0.1875 L 0.953125 -0.015625 C 0.941406 -0.015625 0.925781 -0.0078125 0.90625 0 C 0.882812 0 0.859375 0 0.828125 0 C 0.773438 0 0.734375 -0.0078125 0.703125 -0.03125 C 0.671875 -0.0507812 0.644531 -0.0820312 0.625 -0.125 L 0.609375 -0.125 C 0.566406 -0.03125 0.484375 0.015625 0.359375 0.015625 Z M 0.4375 -0.15625 C 0.488281 -0.15625 0.53125 -0.171875 0.5625 -0.203125 C 0.59375 -0.242188 0.609375 -0.296875 0.609375 -0.359375 L 0.609375 -0.453125 L 0.59375 -0.453125 C 0.582031 -0.441406 0.5625 -0.429688 0.53125 -0.421875 C 0.507812 -0.421875 0.476562 -0.414062 0.4375 -0.40625 C 0.394531 -0.394531 0.359375 -0.378906 0.328125 -0.359375 C 0.304688 -0.335938 0.296875 -0.3125 0.296875 -0.28125 C 0.296875 -0.238281 0.304688 -0.207031 0.328125 -0.1875 C 0.359375 -0.164062 0.394531 -0.15625 0.4375 -0.15625 Z M 0.4375 -0.15625 "/></g></g><g transform="translate(231.907254, 127.049253)"><g/></g><g transform="translate(232.311758, 127.049253)"><g><path d="M 0.140625 0 L 0.140625 -1.296875 L 0.359375 -1.296875 L 0.359375 -0.8125 L 0.390625 -0.796875 C 0.421875 -0.847656 0.457031 -0.882812 0.5 -0.90625 C 0.539062 -0.925781 0.59375 -0.9375 0.65625 -0.9375 C 0.863281 -0.9375 0.96875 -0.820312 0.96875 -0.59375 L 0.96875 0 L 0.734375 0 L 0.734375 -0.5625 C 0.734375 -0.625 0.71875 -0.671875 0.6875 -0.703125 C 0.664062 -0.734375 0.628906 -0.75 0.578125 -0.75 C 0.515625 -0.75 0.460938 -0.722656 0.421875 -0.671875 C 0.378906 -0.628906 0.359375 -0.566406 0.359375 -0.484375 L 0.359375 0 Z M 0.140625 0 "/></g></g><g transform="translate(233.393786, 127.049253)"><g><path d="M 0.921875 -0.40625 L 0.3125 -0.40625 C 0.320312 -0.332031 0.347656 -0.273438 0.390625 -0.234375 C 0.429688 -0.191406 0.484375 -0.171875 0.546875 -0.171875 C 0.597656 -0.171875 0.640625 -0.179688 0.671875 -0.203125 C 0.710938 -0.222656 0.742188 -0.253906 0.765625 -0.296875 L 0.78125 -0.296875 L 0.9375 -0.203125 C 0.90625 -0.140625 0.859375 -0.0859375 0.796875 -0.046875 C 0.734375 -0.00390625 0.648438 0.015625 0.546875 0.015625 C 0.453125 0.015625 0.367188 0 0.296875 -0.03125 C 0.234375 -0.0703125 0.179688 -0.128906 0.140625 -0.203125 C 0.0976562 -0.273438 0.078125 -0.363281 0.078125 -0.46875 C 0.078125 -0.570312 0.0976562 -0.660156 0.140625 -0.734375 C 0.179688 -0.804688 0.234375 -0.859375 0.296875 -0.890625 C 0.367188 -0.921875 0.445312 -0.9375 0.53125 -0.9375 C 0.664062 -0.9375 0.765625 -0.898438 0.828125 -0.828125 C 0.898438 -0.765625 0.9375 -0.664062 0.9375 -0.53125 C 0.9375 -0.476562 0.9375 -0.441406 0.9375 -0.421875 Z M 0.71875 -0.5625 C 0.71875 -0.632812 0.703125 -0.6875 0.671875 -0.71875 C 0.640625 -0.75 0.59375 -0.765625 0.53125 -0.765625 C 0.414062 -0.765625 0.347656 -0.695312 0.328125 -0.5625 Z M 0.71875 -0.5625 "/></g></g><g transform="translate(234.397928, 127.049253)"><g><path d="M 0.359375 0.015625 C 0.296875 0.015625 0.242188 0.00390625 0.203125 -0.015625 C 0.160156 -0.0351562 0.128906 -0.0664062 0.109375 -0.109375 C 0.0859375 -0.148438 0.078125 -0.203125 0.078125 -0.265625 C 0.078125 -0.316406 0.0859375 -0.359375 0.109375 -0.390625 C 0.128906 -0.429688 0.160156 -0.460938 0.203125 -0.484375 C 0.253906 -0.515625 0.320312 -0.535156 0.40625 -0.546875 C 0.457031 -0.554688 0.5 -0.566406 0.53125 -0.578125 C 0.5625 -0.585938 0.582031 -0.597656 0.59375 -0.609375 C 0.601562 -0.628906 0.609375 -0.648438 0.609375 -0.671875 C 0.609375 -0.691406 0.597656 -0.707031 0.578125 -0.71875 C 0.554688 -0.738281 0.519531 -0.75 0.46875 -0.75 C 0.414062 -0.75 0.363281 -0.738281 0.3125 -0.71875 C 0.269531 -0.695312 0.234375 -0.664062 0.203125 -0.625 L 0.1875 -0.625 L 0.09375 -0.78125 C 0.132812 -0.832031 0.1875 -0.867188 0.25 -0.890625 C 0.320312 -0.921875 0.398438 -0.9375 0.484375 -0.9375 C 0.609375 -0.9375 0.695312 -0.910156 0.75 -0.859375 C 0.800781 -0.804688 0.828125 -0.734375 0.828125 -0.640625 L 0.828125 -0.234375 C 0.828125 -0.191406 0.847656 -0.171875 0.890625 -0.171875 C 0.898438 -0.171875 0.910156 -0.175781 0.921875 -0.1875 L 0.9375 -0.1875 L 0.953125 -0.015625 C 0.941406 -0.015625 0.925781 -0.0078125 0.90625 0 C 0.882812 0 0.859375 0 0.828125 0 C 0.773438 0 0.734375 -0.0078125 0.703125 -0.03125 C 0.671875 -0.0507812 0.644531 -0.0820312 0.625 -0.125 L 0.609375 -0.125 C 0.566406 -0.03125 0.484375 0.015625 0.359375 0.015625 Z M 0.4375 -0.15625 C 0.488281 -0.15625 0.53125 -0.171875 0.5625 -0.203125 C 0.59375 -0.242188 0.609375 -0.296875 0.609375 -0.359375 L 0.609375 -0.453125 L 0.59375 -0.453125 C 0.582031 -0.441406 0.5625 -0.429688 0.53125 -0.421875 C 0.507812 -0.421875 0.476562 -0.414062 0.4375 -0.40625 C 0.394531 -0.394531 0.359375 -0.378906 0.328125 -0.359375 C 0.304688 -0.335938 0.296875 -0.3125 0.296875 -0.28125 C 0.296875 -0.238281 0.304688 -0.207031 0.328125 -0.1875 C 0.359375 -0.164062 0.394531 -0.15625 0.4375 -0.15625 Z M 0.4375 -0.15625 "/></g></g><g transform="translate(235.371921, 127.049253)"><g><path d="M 0.453125 0.015625 C 0.378906 0.015625 0.3125 0 0.25 -0.03125 C 0.195312 -0.0703125 0.15625 -0.125 0.125 -0.1875 C 0.09375 -0.257812 0.078125 -0.351562 0.078125 -0.46875 C 0.078125 -0.570312 0.09375 -0.660156 0.125 -0.734375 C 0.164062 -0.804688 0.210938 -0.859375 0.265625 -0.890625 C 0.328125 -0.921875 0.394531 -0.9375 0.46875 -0.9375 C 0.53125 -0.9375 0.582031 -0.925781 0.625 -0.90625 C 0.664062 -0.894531 0.695312 -0.867188 0.71875 -0.828125 L 0.75 -0.828125 L 0.75 -1.296875 L 0.96875 -1.296875 L 0.96875 0 L 0.75 0 L 0.75 -0.125 L 0.71875 -0.125 C 0.695312 -0.0820312 0.660156 -0.046875 0.609375 -0.015625 C 0.566406 0.00390625 0.515625 0.015625 0.453125 0.015625 Z M 0.53125 -0.171875 C 0.59375 -0.171875 0.644531 -0.191406 0.6875 -0.234375 C 0.726562 -0.285156 0.75 -0.363281 0.75 -0.46875 C 0.75 -0.5625 0.726562 -0.628906 0.6875 -0.671875 C 0.644531 -0.722656 0.59375 -0.75 0.53125 -0.75 C 0.46875 -0.75 0.414062 -0.722656 0.375 -0.671875 C 0.34375 -0.628906 0.328125 -0.5625 0.328125 -0.46875 C 0.328125 -0.363281 0.34375 -0.285156 0.375 -0.234375 C 0.414062 -0.191406 0.46875 -0.171875 0.53125 -0.171875 Z M 0.53125 -0.171875 "/></g></g><g transform="translate(236.479073, 127.049253)"><g><path d="M 0.25 -1.03125 C 0.207031 -1.03125 0.171875 -1.039062 0.140625 -1.0625 C 0.117188 -1.09375 0.109375 -1.128906 0.109375 -1.171875 C 0.109375 -1.210938 0.117188 -1.242188 0.140625 -1.265625 C 0.171875 -1.296875 0.207031 -1.3125 0.25 -1.3125 C 0.28125 -1.3125 0.304688 -1.304688 0.328125 -1.296875 C 0.347656 -1.285156 0.363281 -1.269531 0.375 -1.25 C 0.382812 -1.226562 0.390625 -1.203125 0.390625 -1.171875 C 0.390625 -1.148438 0.382812 -1.128906 0.375 -1.109375 C 0.363281 -1.085938 0.347656 -1.066406 0.328125 -1.046875 C 0.304688 -1.035156 0.28125 -1.03125 0.25 -1.03125 Z M 0.140625 0 L 0.140625 -0.921875 L 0.359375 -0.921875 L 0.359375 0 Z M 0.140625 0 "/></g></g><g transform="translate(236.976538, 127.049253)"><g><path d="M 0.140625 0 L 0.140625 -0.921875 L 0.359375 -0.921875 L 0.359375 -0.796875 L 0.375 -0.78125 C 0.425781 -0.882812 0.519531 -0.9375 0.65625 -0.9375 C 0.757812 -0.9375 0.835938 -0.90625 0.890625 -0.84375 C 0.941406 -0.789062 0.96875 -0.710938 0.96875 -0.609375 L 0.96875 0 L 0.734375 0 L 0.734375 -0.578125 C 0.734375 -0.640625 0.71875 -0.679688 0.6875 -0.703125 C 0.664062 -0.734375 0.628906 -0.75 0.578125 -0.75 C 0.515625 -0.75 0.460938 -0.726562 0.421875 -0.6875 C 0.378906 -0.644531 0.359375 -0.578125 0.359375 -0.484375 L 0.359375 0 Z M 0.140625 0 "/></g></g><g transform="translate(238.058566, 127.049253)"><g><path d="M 0.484375 0.390625 C 0.328125 0.390625 0.210938 0.367188 0.140625 0.328125 C 0.0664062 0.285156 0.03125 0.222656 0.03125 0.140625 C 0.03125 0.0859375 0.046875 0.046875 0.078125 0.015625 C 0.109375 -0.015625 0.15625 -0.0351562 0.21875 -0.046875 L 0.21875 -0.0625 C 0.1875 -0.0820312 0.160156 -0.101562 0.140625 -0.125 C 0.128906 -0.144531 0.125 -0.171875 0.125 -0.203125 C 0.125 -0.273438 0.171875 -0.328125 0.265625 -0.359375 L 0.265625 -0.375 C 0.222656 -0.40625 0.1875 -0.441406 0.15625 -0.484375 C 0.132812 -0.523438 0.125 -0.570312 0.125 -0.625 C 0.125 -0.6875 0.132812 -0.738281 0.15625 -0.78125 C 0.1875 -0.832031 0.226562 -0.867188 0.28125 -0.890625 C 0.34375 -0.921875 0.410156 -0.9375 0.484375 -0.9375 C 0.554688 -0.9375 0.617188 -0.925781 0.671875 -0.90625 C 0.691406 -0.945312 0.707031 -0.992188 0.71875 -1.046875 L 0.734375 -1.0625 L 0.90625 -1.015625 C 0.894531 -0.972656 0.878906 -0.9375 0.859375 -0.90625 C 0.835938 -0.875 0.804688 -0.847656 0.765625 -0.828125 L 0.765625 -0.8125 C 0.816406 -0.757812 0.84375 -0.691406 0.84375 -0.609375 C 0.84375 -0.554688 0.828125 -0.503906 0.796875 -0.453125 C 0.773438 -0.410156 0.734375 -0.375 0.671875 -0.34375 C 0.617188 -0.320312 0.554688 -0.3125 0.484375 -0.3125 L 0.453125 -0.3125 C 0.421875 -0.3125 0.40625 -0.3125 0.40625 -0.3125 C 0.382812 -0.3125 0.363281 -0.304688 0.34375 -0.296875 C 0.332031 -0.285156 0.328125 -0.269531 0.328125 -0.25 C 0.328125 -0.226562 0.332031 -0.210938 0.34375 -0.203125 C 0.363281 -0.191406 0.390625 -0.1875 0.421875 -0.1875 L 0.625 -0.1875 C 0.832031 -0.175781 0.9375 -0.0859375 0.9375 0.078125 C 0.9375 0.140625 0.921875 0.191406 0.890625 0.234375 C 0.859375 0.285156 0.804688 0.320312 0.734375 0.34375 C 0.671875 0.375 0.585938 0.390625 0.484375 0.390625 Z M 0.484375 -0.484375 C 0.523438 -0.484375 0.554688 -0.492188 0.578125 -0.515625 C 0.609375 -0.546875 0.625 -0.582031 0.625 -0.625 C 0.625 -0.675781 0.609375 -0.710938 0.578125 -0.734375 C 0.554688 -0.765625 0.523438 -0.78125 0.484375 -0.78125 C 0.441406 -0.78125 0.40625 -0.765625 0.375 -0.734375 C 0.351562 -0.710938 0.34375 -0.675781 0.34375 -0.625 C 0.34375 -0.582031 0.351562 -0.546875 0.375 -0.515625 C 0.40625 -0.492188 0.441406 -0.484375 0.484375 -0.484375 Z M 0.484375 0.21875 C 0.554688 0.21875 0.609375 0.207031 0.640625 0.1875 C 0.679688 0.164062 0.703125 0.140625 0.703125 0.109375 C 0.703125 0.078125 0.691406 0.0507812 0.671875 0.03125 C 0.660156 0.0195312 0.632812 0.015625 0.59375 0.015625 L 0.40625 0.015625 C 0.40625 0.015625 0.398438 0.0078125 0.390625 0 C 0.390625 0 0.382812 0 0.375 0 C 0.332031 0 0.300781 0.0078125 0.28125 0.03125 C 0.257812 0.0507812 0.25 0.0703125 0.25 0.09375 C 0.25 0.132812 0.269531 0.164062 0.3125 0.1875 C 0.351562 0.207031 0.410156 0.21875 0.484375 0.21875 Z M 0.484375 0.21875 "/></g></g></g><path fill="#ffffff" d="M 251.636719 270.488281 C 248.5625 270.488281 246.089844 272.972656 246.089844 276.035156 C 246.089844 279.09375 248.5625 281.578125 251.636719 281.578125 L 266.886719 281.578125 C 269.933594 281.578125 272.429688 279.09375 272.429688 276.035156 C 272.429688 272.972656 269.933594 270.488281 266.886719 270.488281 Z M 251.636719 270.488281 " fill-opacity="1" fill-rule="nonzero"/><path fill="#ffffff" d="M 208.246094 291.050781 C 202.136719 291.050781 197.15625 286.082031 197.15625 279.960938 L 197.15625 143.441406 C 197.15625 137.320312 202.136719 132.351562 208.246094 132.351562 L 310.25 132.351562 C 316.371094 132.351562 321.339844 137.320312 321.339844 143.441406 L 321.339844 173.964844 L 332.433594 173.964844 L 332.433594 143.441406 C 332.433594 131.210938 322.496094 121.261719 310.25 121.261719 L 208.246094 121.261719 C 196.015625 121.261719 186.066406 131.210938 186.066406 143.441406 L 186.066406 279.960938 C 186.066406 292.195312 196.015625 302.140625 208.246094 302.140625 L 277.886719 302.140625 C 275.4375 298.902344 273.605469 295.175781 272.773438 291.050781 Z M 208.246094 291.050781 " fill-opacity="1" fill-rule="nonzero"/><g clip-path="url(#8a308dc792)"><path fill="#ffffff" d="M 353.859375 185.054688 L 299.945312 185.054688 C 290.765625 185.054688 283.3125 192.519531 283.3125 201.691406 L 283.3125 285.507812 C 283.3125 294.679688 290.765625 302.140625 299.945312 302.140625 L 353.859375 302.140625 C 363.019531 302.140625 370.496094 294.679688 370.496094 285.507812 L 370.496094 201.691406 C 370.496094 192.519531 363.019531 185.054688 353.859375 185.054688 Z M 359.40625 285.507812 C 359.40625 288.554688 356.910156 291.050781 353.859375 291.050781 L 299.945312 291.050781 C 296.886719 291.050781 294.402344 288.554688 294.402344 285.507812 L 294.402344 284.550781 L 359.40625 284.550781 Z M 359.40625 273.460938 L 294.402344 273.460938 L 294.402344 201.691406 C 294.402344 198.640625 296.886719 196.144531 299.945312 196.144531 L 353.859375 196.144531 C 356.910156 196.144531 359.40625 198.640625 359.40625 201.691406 Z M 359.40625 273.460938 " fill-opacity="1" fill-rule="nonzero"/></g><g clip-path="url(#fd1c3cc2b5)"><path fill="#ffffff" d="M 174.976562 270.488281 L 26.480469 270.488281 C 20.476562 270.488281 15.585938 265.609375 15.585938 259.597656 L 15.585938 94.675781 C 15.585938 88.675781 20.476562 83.796875 26.480469 83.796875 L 253.640625 83.796875 C 259.644531 83.796875 264.535156 88.675781 264.535156 94.675781 L 264.535156 110.160156 L 275.625 110.160156 L 275.625 94.675781 C 275.636719 82.566406 265.785156 72.703125 253.652344 72.703125 L 26.480469 72.703125 C 14.355469 72.703125 4.496094 82.566406 4.496094 94.675781 L 4.496094 259.585938 C 4.496094 271.707031 14.355469 281.570312 26.480469 281.570312 L 102.652344 281.570312 L 102.652344 291.039062 L 83.042969 291.039062 C 79.96875 291.039062 77.496094 293.523438 77.496094 296.585938 C 77.496094 299.648438 79.96875 302.132812 83.042969 302.132812 L 183.636719 302.132812 C 178.3125 296.230469 174.976562 288.5 174.976562 279.949219 Z M 166.402344 291.050781 L 113.742188 291.050781 L 113.742188 281.578125 L 166.402344 281.578125 Z M 166.402344 291.050781 " fill-opacity="1" fill-rule="nonzero"/></g></svg>