<svg xmlns="http://www.w3.org/2000/svg" xmlns:xlink="http://www.w3.org/1999/xlink" width="500" zoomAndPan="magnify" viewBox="0 0 375 374.999991" height="500" preserveAspectRatio="xMidYMid meet" version="1.0"><defs><g/><clipPath id="40fc82078e"><path d="M 60 228 L 82.925781 228 L 82.925781 346.496094 L 60 346.496094 Z M 60 228 " clip-rule="nonzero"/></clipPath><clipPath id="4990b4ffc9"><path d="M 136.179688 208.605469 L 159.417969 208.605469 L 159.417969 346.496094 L 136.179688 346.496094 Z M 136.179688 208.605469 " clip-rule="nonzero"/></clipPath><clipPath id="8aec698470"><path d="M 213 178 L 235.910156 178 L 235.910156 346.496094 L 213 346.496094 Z M 213 178 " clip-rule="nonzero"/></clipPath><clipPath id="52fb6fcd71"><path d="M 290 137 L 312.402344 137 L 312.402344 346.496094 L 290 346.496094 Z M 290 137 " clip-rule="nonzero"/></clipPath><clipPath id="22a9551606"><path d="M 259.148438 28.507812 L 368.929688 28.507812 L 368.929688 137.921875 L 259.148438 137.921875 Z M 259.148438 28.507812 " clip-rule="nonzero"/></clipPath></defs><g fill="#000000" fill-opacity="1"><g transform="translate(307.927513, 50.754533)"><g><path d="M 2.546875 0 L 2 0 L 1.796875 -0.609375 L 0.78125 -0.609375 L 0.578125 0 L 0.046875 0 L 0.953125 -2.65625 L 1.625 -2.65625 Z M 1.265625 -2.09375 L 0.921875 -1.046875 L 1.65625 -1.046875 L 1.3125 -2.09375 Z M 1.265625 -2.09375 "/></g></g></g><g fill="#000000" fill-opacity="1"><g transform="translate(310.512279, 50.754533)"><g><path d="M 0.984375 0.03125 C 0.828125 0.03125 0.6875 -0.00390625 0.5625 -0.078125 C 0.445312 -0.148438 0.351562 -0.265625 0.28125 -0.421875 C 0.21875 -0.578125 0.1875 -0.769531 0.1875 -1 C 0.1875 -1.226562 0.21875 -1.421875 0.28125 -1.578125 C 0.351562 -1.734375 0.453125 -1.847656 0.578125 -1.921875 C 0.703125 -2.003906 0.847656 -2.046875 1.015625 -2.046875 C 1.140625 -2.046875 1.242188 -2.019531 1.328125 -1.96875 C 1.421875 -1.925781 1.503906 -1.863281 1.578125 -1.78125 L 1.609375 -1.78125 L 1.609375 -2.8125 L 2.109375 -2.8125 L 2.109375 0 L 1.609375 0 L 1.609375 -0.265625 L 1.578125 -0.265625 C 1.515625 -0.171875 1.4375 -0.0976562 1.34375 -0.046875 C 1.25 0.00390625 1.128906 0.03125 0.984375 0.03125 Z M 1.15625 -0.390625 C 1.289062 -0.390625 1.398438 -0.4375 1.484375 -0.53125 C 1.566406 -0.632812 1.609375 -0.789062 1.609375 -1 C 1.609375 -1.207031 1.566406 -1.359375 1.484375 -1.453125 C 1.398438 -1.554688 1.289062 -1.609375 1.15625 -1.609375 C 1.007812 -1.609375 0.894531 -1.554688 0.8125 -1.453125 C 0.738281 -1.359375 0.703125 -1.207031 0.703125 -1 C 0.703125 -0.789062 0.738281 -0.632812 0.8125 -0.53125 C 0.894531 -0.4375 1.007812 -0.390625 1.15625 -0.390625 Z M 1.15625 -0.390625 "/></g></g></g><g fill="#000000" fill-opacity="1"><g transform="translate(312.910216, 50.754533)"><g><path d="M 0.984375 0.03125 C 0.828125 0.03125 0.6875 -0.00390625 0.5625 -0.078125 C 0.445312 -0.148438 0.351562 -0.265625 0.28125 -0.421875 C 0.21875 -0.578125 0.1875 -0.769531 0.1875 -1 C 0.1875 -1.226562 0.21875 -1.421875 0.28125 -1.578125 C 0.351562 -1.734375 0.453125 -1.847656 0.578125 -1.921875 C 0.703125 -2.003906 0.847656 -2.046875 1.015625 -2.046875 C 1.140625 -2.046875 1.242188 -2.019531 1.328125 -1.96875 C 1.421875 -1.925781 1.503906 -1.863281 1.578125 -1.78125 L 1.609375 -1.78125 L 1.609375 -2.8125 L 2.109375 -2.8125 L 2.109375 0 L 1.609375 0 L 1.609375 -0.265625 L 1.578125 -0.265625 C 1.515625 -0.171875 1.4375 -0.0976562 1.34375 -0.046875 C 1.25 0.00390625 1.128906 0.03125 0.984375 0.03125 Z M 1.15625 -0.390625 C 1.289062 -0.390625 1.398438 -0.4375 1.484375 -0.53125 C 1.566406 -0.632812 1.609375 -0.789062 1.609375 -1 C 1.609375 -1.207031 1.566406 -1.359375 1.484375 -1.453125 C 1.398438 -1.554688 1.289062 -1.609375 1.15625 -1.609375 C 1.007812 -1.609375 0.894531 -1.554688 0.8125 -1.453125 C 0.738281 -1.359375 0.703125 -1.207031 0.703125 -1 C 0.703125 -0.789062 0.738281 -0.632812 0.8125 -0.53125 C 0.894531 -0.4375 1.007812 -0.390625 1.15625 -0.390625 Z M 1.15625 -0.390625 "/></g></g></g><g fill="#000000" fill-opacity="1"><g transform="translate(315.308153, 50.754533)"><g/></g></g><g fill="#000000" fill-opacity="1"><g transform="translate(316.184253, 50.754533)"><g><path d="M 0.78125 0.03125 C 0.65625 0.03125 0.546875 0.0078125 0.453125 -0.03125 C 0.359375 -0.0820312 0.285156 -0.148438 0.234375 -0.234375 C 0.179688 -0.328125 0.15625 -0.4375 0.15625 -0.5625 C 0.15625 -0.6875 0.179688 -0.785156 0.234375 -0.859375 C 0.285156 -0.941406 0.363281 -1.007812 0.46875 -1.0625 C 0.570312 -1.113281 0.707031 -1.15625 0.875 -1.1875 C 1 -1.207031 1.09375 -1.226562 1.15625 -1.25 C 1.21875 -1.269531 1.257812 -1.296875 1.28125 -1.328125 C 1.300781 -1.359375 1.3125 -1.394531 1.3125 -1.4375 C 1.3125 -1.5 1.289062 -1.546875 1.25 -1.578125 C 1.207031 -1.617188 1.132812 -1.640625 1.03125 -1.640625 C 0.914062 -1.640625 0.804688 -1.613281 0.703125 -1.5625 C 0.609375 -1.507812 0.519531 -1.441406 0.4375 -1.359375 L 0.40625 -1.359375 L 0.203125 -1.6875 C 0.296875 -1.800781 0.414062 -1.890625 0.5625 -1.953125 C 0.71875 -2.015625 0.878906 -2.046875 1.046875 -2.046875 C 1.316406 -2.046875 1.507812 -1.988281 1.625 -1.875 C 1.738281 -1.757812 1.796875 -1.597656 1.796875 -1.390625 L 1.796875 -0.515625 C 1.796875 -0.429688 1.835938 -0.390625 1.921875 -0.390625 C 1.953125 -0.390625 1.984375 -0.394531 2.015625 -0.40625 L 2.03125 -0.390625 L 2.078125 -0.046875 C 2.046875 -0.0234375 2.003906 -0.0078125 1.953125 0 C 1.898438 0.0078125 1.847656 0.015625 1.796875 0.015625 C 1.671875 0.015625 1.570312 -0.00390625 1.5 -0.046875 C 1.4375 -0.0976562 1.394531 -0.171875 1.375 -0.265625 L 1.328125 -0.28125 C 1.234375 -0.0703125 1.050781 0.03125 0.78125 0.03125 Z M 0.9375 -0.34375 C 1.050781 -0.34375 1.144531 -0.378906 1.21875 -0.453125 C 1.289062 -0.535156 1.328125 -0.644531 1.328125 -0.78125 L 1.328125 -0.984375 L 1.296875 -0.984375 C 1.265625 -0.960938 1.222656 -0.941406 1.171875 -0.921875 C 1.117188 -0.910156 1.046875 -0.894531 0.953125 -0.875 C 0.847656 -0.863281 0.769531 -0.832031 0.71875 -0.78125 C 0.675781 -0.738281 0.65625 -0.675781 0.65625 -0.59375 C 0.65625 -0.507812 0.675781 -0.445312 0.71875 -0.40625 C 0.769531 -0.363281 0.84375 -0.34375 0.9375 -0.34375 Z M 0.9375 -0.34375 "/></g></g></g><g fill="#000000" fill-opacity="1"><g transform="translate(318.293785, 50.754533)"><g/></g></g><g fill="#000000" fill-opacity="1"><g transform="translate(319.169885, 50.754533)"><g><path d="M 0.28125 0 L 0.28125 -2.8125 L 0.796875 -2.8125 L 0.796875 -1.734375 L 0.828125 -1.734375 C 0.898438 -1.828125 0.984375 -1.898438 1.078125 -1.953125 C 1.171875 -2.015625 1.285156 -2.046875 1.421875 -2.046875 C 1.867188 -2.046875 2.09375 -1.796875 2.09375 -1.296875 L 2.09375 0 L 1.578125 0 L 1.578125 -1.21875 C 1.578125 -1.363281 1.550781 -1.460938 1.5 -1.515625 C 1.445312 -1.578125 1.363281 -1.609375 1.25 -1.609375 C 1.101562 -1.609375 0.988281 -1.5625 0.90625 -1.46875 C 0.832031 -1.375 0.796875 -1.226562 0.796875 -1.03125 L 0.796875 0 Z M 0.28125 0 "/></g></g></g><g fill="#000000" fill-opacity="1"><g transform="translate(321.513406, 50.754533)"><g><path d="M 1.984375 -0.890625 L 0.6875 -0.890625 C 0.707031 -0.710938 0.757812 -0.582031 0.84375 -0.5 C 0.925781 -0.425781 1.039062 -0.390625 1.1875 -0.390625 C 1.300781 -0.390625 1.394531 -0.410156 1.46875 -0.453125 C 1.539062 -0.492188 1.597656 -0.554688 1.640625 -0.640625 L 1.671875 -0.640625 L 2.015625 -0.4375 C 1.941406 -0.289062 1.835938 -0.175781 1.703125 -0.09375 C 1.578125 -0.0078125 1.40625 0.03125 1.1875 0.03125 C 0.976562 0.03125 0.796875 -0.00390625 0.640625 -0.078125 C 0.492188 -0.160156 0.378906 -0.28125 0.296875 -0.4375 C 0.222656 -0.59375 0.1875 -0.78125 0.1875 -1 C 0.1875 -1.226562 0.226562 -1.421875 0.3125 -1.578125 C 0.394531 -1.734375 0.507812 -1.847656 0.65625 -1.921875 C 0.800781 -2.003906 0.96875 -2.046875 1.15625 -2.046875 C 1.4375 -2.046875 1.648438 -1.96875 1.796875 -1.8125 C 1.953125 -1.664062 2.03125 -1.445312 2.03125 -1.15625 C 2.03125 -1.050781 2.023438 -0.96875 2.015625 -0.90625 Z M 1.546875 -1.21875 C 1.546875 -1.363281 1.507812 -1.472656 1.4375 -1.546875 C 1.375 -1.617188 1.28125 -1.65625 1.15625 -1.65625 C 0.894531 -1.65625 0.742188 -1.507812 0.703125 -1.21875 Z M 1.546875 -1.21875 "/></g></g></g><g fill="#000000" fill-opacity="1"><g transform="translate(323.688237, 50.754533)"><g><path d="M 0.78125 0.03125 C 0.65625 0.03125 0.546875 0.0078125 0.453125 -0.03125 C 0.359375 -0.0820312 0.285156 -0.148438 0.234375 -0.234375 C 0.179688 -0.328125 0.15625 -0.4375 0.15625 -0.5625 C 0.15625 -0.6875 0.179688 -0.785156 0.234375 -0.859375 C 0.285156 -0.941406 0.363281 -1.007812 0.46875 -1.0625 C 0.570312 -1.113281 0.707031 -1.15625 0.875 -1.1875 C 1 -1.207031 1.09375 -1.226562 1.15625 -1.25 C 1.21875 -1.269531 1.257812 -1.296875 1.28125 -1.328125 C 1.300781 -1.359375 1.3125 -1.394531 1.3125 -1.4375 C 1.3125 -1.5 1.289062 -1.546875 1.25 -1.578125 C 1.207031 -1.617188 1.132812 -1.640625 1.03125 -1.640625 C 0.914062 -1.640625 0.804688 -1.613281 0.703125 -1.5625 C 0.609375 -1.507812 0.519531 -1.441406 0.4375 -1.359375 L 0.40625 -1.359375 L 0.203125 -1.6875 C 0.296875 -1.800781 0.414062 -1.890625 0.5625 -1.953125 C 0.71875 -2.015625 0.878906 -2.046875 1.046875 -2.046875 C 1.316406 -2.046875 1.507812 -1.988281 1.625 -1.875 C 1.738281 -1.757812 1.796875 -1.597656 1.796875 -1.390625 L 1.796875 -0.515625 C 1.796875 -0.429688 1.835938 -0.390625 1.921875 -0.390625 C 1.953125 -0.390625 1.984375 -0.394531 2.015625 -0.40625 L 2.03125 -0.390625 L 2.078125 -0.046875 C 2.046875 -0.0234375 2.003906 -0.0078125 1.953125 0 C 1.898438 0.0078125 1.847656 0.015625 1.796875 0.015625 C 1.671875 0.015625 1.570312 -0.00390625 1.5 -0.046875 C 1.4375 -0.0976562 1.394531 -0.171875 1.375 -0.265625 L 1.328125 -0.28125 C 1.234375 -0.0703125 1.050781 0.03125 0.78125 0.03125 Z M 0.9375 -0.34375 C 1.050781 -0.34375 1.144531 -0.378906 1.21875 -0.453125 C 1.289062 -0.535156 1.328125 -0.644531 1.328125 -0.78125 L 1.328125 -0.984375 L 1.296875 -0.984375 C 1.265625 -0.960938 1.222656 -0.941406 1.171875 -0.921875 C 1.117188 -0.910156 1.046875 -0.894531 0.953125 -0.875 C 0.847656 -0.863281 0.769531 -0.832031 0.71875 -0.78125 C 0.675781 -0.738281 0.65625 -0.675781 0.65625 -0.59375 C 0.65625 -0.507812 0.675781 -0.445312 0.71875 -0.40625 C 0.769531 -0.363281 0.84375 -0.34375 0.9375 -0.34375 Z M 0.9375 -0.34375 "/></g></g></g><g fill="#000000" fill-opacity="1"><g transform="translate(325.797768, 50.754533)"><g><path d="M 0.984375 0.03125 C 0.828125 0.03125 0.6875 -0.00390625 0.5625 -0.078125 C 0.445312 -0.148438 0.351562 -0.265625 0.28125 -0.421875 C 0.21875 -0.578125 0.1875 -0.769531 0.1875 -1 C 0.1875 -1.226562 0.21875 -1.421875 0.28125 -1.578125 C 0.351562 -1.734375 0.453125 -1.847656 0.578125 -1.921875 C 0.703125 -2.003906 0.847656 -2.046875 1.015625 -2.046875 C 1.140625 -2.046875 1.242188 -2.019531 1.328125 -1.96875 C 1.421875 -1.925781 1.503906 -1.863281 1.578125 -1.78125 L 1.609375 -1.78125 L 1.609375 -2.8125 L 2.109375 -2.8125 L 2.109375 0 L 1.609375 0 L 1.609375 -0.265625 L 1.578125 -0.265625 C 1.515625 -0.171875 1.4375 -0.0976562 1.34375 -0.046875 C 1.25 0.00390625 1.128906 0.03125 0.984375 0.03125 Z M 1.15625 -0.390625 C 1.289062 -0.390625 1.398438 -0.4375 1.484375 -0.53125 C 1.566406 -0.632812 1.609375 -0.789062 1.609375 -1 C 1.609375 -1.207031 1.566406 -1.359375 1.484375 -1.453125 C 1.398438 -1.554688 1.289062 -1.609375 1.15625 -1.609375 C 1.007812 -1.609375 0.894531 -1.554688 0.8125 -1.453125 C 0.738281 -1.359375 0.703125 -1.207031 0.703125 -1 C 0.703125 -0.789062 0.738281 -0.632812 0.8125 -0.53125 C 0.894531 -0.4375 1.007812 -0.390625 1.15625 -0.390625 Z M 1.15625 -0.390625 "/></g></g></g><g fill="#000000" fill-opacity="1"><g transform="translate(328.195704, 50.754533)"><g><path d="M 0.546875 -2.25 C 0.453125 -2.25 0.375 -2.273438 0.3125 -2.328125 C 0.257812 -2.378906 0.234375 -2.445312 0.234375 -2.53125 C 0.234375 -2.625 0.257812 -2.695312 0.3125 -2.75 C 0.375 -2.800781 0.453125 -2.828125 0.546875 -2.828125 C 0.597656 -2.828125 0.644531 -2.8125 0.6875 -2.78125 C 0.738281 -2.757812 0.773438 -2.726562 0.796875 -2.6875 C 0.828125 -2.644531 0.84375 -2.59375 0.84375 -2.53125 C 0.84375 -2.476562 0.828125 -2.425781 0.796875 -2.375 C 0.773438 -2.332031 0.738281 -2.300781 0.6875 -2.28125 C 0.644531 -2.257812 0.597656 -2.25 0.546875 -2.25 Z M 0.28125 0 L 0.28125 -2 L 0.796875 -2 L 0.796875 0 Z M 0.28125 0 "/></g></g></g><g fill="#000000" fill-opacity="1"><g transform="translate(329.273142, 50.754533)"><g><path d="M 0.28125 0 L 0.28125 -2 L 0.765625 -2 L 0.765625 -1.703125 L 0.8125 -1.703125 C 0.9375 -1.929688 1.140625 -2.046875 1.421875 -2.046875 C 1.648438 -2.046875 1.816406 -1.976562 1.921875 -1.84375 C 2.035156 -1.71875 2.09375 -1.535156 2.09375 -1.296875 L 2.09375 0 L 1.578125 0 L 1.578125 -1.234375 C 1.578125 -1.367188 1.550781 -1.460938 1.5 -1.515625 C 1.445312 -1.578125 1.363281 -1.609375 1.25 -1.609375 C 1.101562 -1.609375 0.988281 -1.5625 0.90625 -1.46875 C 0.832031 -1.382812 0.796875 -1.238281 0.796875 -1.03125 L 0.796875 0 Z M 0.28125 0 "/></g></g></g><g fill="#000000" fill-opacity="1"><g transform="translate(331.616662, 50.754533)"><g><path d="M 1.03125 0.84375 C 0.707031 0.84375 0.46875 0.796875 0.3125 0.703125 C 0.15625 0.609375 0.078125 0.472656 0.078125 0.296875 C 0.078125 0.191406 0.109375 0.101562 0.171875 0.03125 C 0.234375 -0.03125 0.332031 -0.0703125 0.46875 -0.09375 L 0.46875 -0.125 C 0.394531 -0.164062 0.34375 -0.210938 0.3125 -0.265625 C 0.28125 -0.316406 0.265625 -0.375 0.265625 -0.4375 C 0.265625 -0.601562 0.367188 -0.710938 0.578125 -0.765625 L 0.578125 -0.8125 C 0.472656 -0.875 0.394531 -0.945312 0.34375 -1.03125 C 0.289062 -1.125 0.265625 -1.238281 0.265625 -1.375 C 0.265625 -1.5 0.289062 -1.613281 0.34375 -1.71875 C 0.40625 -1.820312 0.492188 -1.898438 0.609375 -1.953125 C 0.734375 -2.015625 0.878906 -2.046875 1.046875 -2.046875 C 1.210938 -2.046875 1.34375 -2.015625 1.4375 -1.953125 C 1.5 -2.046875 1.535156 -2.148438 1.546875 -2.265625 L 1.59375 -2.28125 L 1.953125 -2.203125 C 1.941406 -2.109375 1.910156 -2.023438 1.859375 -1.953125 C 1.816406 -1.890625 1.75 -1.832031 1.65625 -1.78125 L 1.65625 -1.75 C 1.769531 -1.644531 1.828125 -1.503906 1.828125 -1.328125 C 1.828125 -1.203125 1.796875 -1.085938 1.734375 -0.984375 C 1.671875 -0.890625 1.578125 -0.8125 1.453125 -0.75 C 1.335938 -0.695312 1.203125 -0.671875 1.046875 -0.671875 L 0.96875 -0.6875 C 0.914062 -0.6875 0.878906 -0.6875 0.859375 -0.6875 C 0.816406 -0.6875 0.78125 -0.671875 0.75 -0.640625 C 0.726562 -0.617188 0.71875 -0.585938 0.71875 -0.546875 C 0.71875 -0.503906 0.734375 -0.472656 0.765625 -0.453125 C 0.804688 -0.429688 0.859375 -0.414062 0.921875 -0.40625 L 1.375 -0.390625 C 1.8125 -0.378906 2.03125 -0.191406 2.03125 0.171875 C 2.03125 0.304688 1.992188 0.421875 1.921875 0.515625 C 1.859375 0.617188 1.753906 0.695312 1.609375 0.75 C 1.460938 0.8125 1.269531 0.84375 1.03125 0.84375 Z M 1.046875 -1.03125 C 1.140625 -1.03125 1.210938 -1.054688 1.265625 -1.109375 C 1.328125 -1.171875 1.359375 -1.253906 1.359375 -1.359375 C 1.359375 -1.460938 1.328125 -1.539062 1.265625 -1.59375 C 1.210938 -1.65625 1.140625 -1.6875 1.046875 -1.6875 C 0.941406 -1.6875 0.863281 -1.65625 0.8125 -1.59375 C 0.757812 -1.539062 0.734375 -1.460938 0.734375 -1.359375 C 0.734375 -1.253906 0.757812 -1.171875 0.8125 -1.109375 C 0.863281 -1.054688 0.941406 -1.03125 1.046875 -1.03125 Z M 1.03125 0.484375 C 1.207031 0.484375 1.332031 0.457031 1.40625 0.40625 C 1.488281 0.363281 1.53125 0.300781 1.53125 0.21875 C 1.53125 0.15625 1.507812 0.109375 1.46875 0.078125 C 1.425781 0.0546875 1.363281 0.0390625 1.28125 0.03125 L 0.890625 0.015625 C 0.867188 0.015625 0.851562 0.015625 0.84375 0.015625 C 0.832031 0.015625 0.820312 0.015625 0.8125 0.015625 C 0.726562 0.015625 0.660156 0.03125 0.609375 0.0625 C 0.566406 0.101562 0.546875 0.15625 0.546875 0.21875 C 0.546875 0.300781 0.585938 0.363281 0.671875 0.40625 C 0.753906 0.457031 0.875 0.484375 1.03125 0.484375 Z M 1.03125 0.484375 "/></g></g></g><g clip-path="url(#40fc82078e)"><path fill="#ffffff" d="M 82.472656 239.375 L 82.472656 335.339844 C 82.472656 341.496094 77.476562 346.496094 71.316406 346.496094 C 65.160156 346.496094 60.164062 341.496094 60.164062 335.339844 L 60.164062 239.375 C 60.164062 233.21875 65.160156 228.222656 71.316406 228.222656 C 77.476562 228.222656 82.472656 233.21875 82.472656 239.375 " fill-opacity="1" fill-rule="evenodd"/></g><g clip-path="url(#4990b4ffc9)"><path fill="#ffffff" d="M 159.113281 220.070312 L 159.113281 335.339844 C 159.113281 341.496094 154.117188 346.496094 147.957031 346.496094 C 141.800781 346.496094 136.804688 341.496094 136.804688 335.339844 L 136.804688 220.070312 C 136.804688 213.910156 141.800781 208.917969 147.957031 208.917969 C 154.117188 208.917969 159.113281 213.910156 159.113281 220.070312 " fill-opacity="1" fill-rule="evenodd"/></g><g clip-path="url(#8aec698470)"><path fill="#ffffff" d="M 235.753906 189.164062 L 235.753906 335.339844 C 235.753906 341.496094 230.757812 346.496094 224.601562 346.496094 C 218.445312 346.496094 213.449219 341.496094 213.449219 335.339844 L 213.449219 189.164062 C 213.449219 183.003906 218.445312 178.007812 224.601562 178.007812 C 230.757812 178.007812 235.753906 183.003906 235.753906 189.164062 " fill-opacity="1" fill-rule="evenodd"/></g><g clip-path="url(#52fb6fcd71)"><path fill="#ffffff" d="M 312.394531 148.8125 L 312.394531 335.339844 C 312.394531 341.496094 307.398438 346.496094 301.242188 346.496094 C 295.085938 346.496094 290.085938 341.496094 290.085938 335.339844 L 290.085938 148.8125 C 290.085938 142.65625 295.085938 137.660156 301.242188 137.660156 C 307.398438 137.660156 312.394531 142.65625 312.394531 148.8125 " fill-opacity="1" fill-rule="evenodd"/></g><path fill="#ffffff" d="M 17.066406 216.035156 C 10.941406 215.753906 6.179688 210.554688 6.445312 204.429688 C 6.710938 198.292969 11.921875 193.507812 18.054688 193.78125 C 28.152344 194.226562 38.84375 193.617188 48.882812 192.753906 C 75.476562 190.453125 102.121094 185.207031 127.734375 177.742188 C 213.988281 152.597656 288.195312 102.390625 346.527344 34.269531 C 350.507812 29.621094 357.578125 29.066406 362.230469 33.050781 C 366.882812 37.03125 367.433594 44.105469 363.453125 48.757812 C 302.296875 120.179688 224.417969 172.671875 134.011719 199.039062 C 106.949219 206.929688 78.824219 212.464844 50.726562 214.917969 C 42.628906 215.621094 34.476562 216.082031 26.347656 216.160156 C 23.273438 216.195312 20.140625 216.191406 17.066406 216.035156 " fill-opacity="1" fill-rule="evenodd"/><g clip-path="url(#22a9551606)"><path fill="#ffffff" d="M 265.253906 28.527344 C 262.1875 28.527344 259.695312 31.015625 259.695312 34.082031 C 259.695312 37.933594 362.734375 137.738281 363.355469 137.738281 C 366.421875 137.738281 368.910156 135.25 368.910156 132.183594 L 368.910156 34.574219 C 368.925781 34.410156 368.933594 34.25 368.933594 34.082031 C 368.933594 31.003906 366.4375 28.503906 363.355469 28.503906 L 363.355469 28.527344 L 265.253906 28.527344 " fill-opacity="1" fill-rule="nonzero"/></g></svg>