<svg xmlns="http://www.w3.org/2000/svg" xmlns:xlink="http://www.w3.org/1999/xlink" width="500" zoomAndPan="magnify" viewBox="0 0 375 74.999997" height="100" preserveAspectRatio="xMidYMid meet" version="1.0"><defs><g/><clipPath id="77ffe95431"><path d="M 7.5 10.074219 L 30 10.074219 L 30 24 L 7.5 24 Z M 7.5 10.074219 " clip-rule="nonzero"/></clipPath><clipPath id="8c08cb633c"><path d="M 7.5 16 L 30 16 L 30 64.824219 L 7.5 64.824219 Z M 7.5 16 " clip-rule="nonzero"/></clipPath><clipPath id="2d4195e664"><path d="M 27 40 L 51 40 L 51 64.824219 L 27 64.824219 Z M 27 40 " clip-rule="nonzero"/></clipPath><clipPath id="1cd44b20ec"><path d="M 48 22 L 60.75 22 L 60.75 42 L 48 42 Z M 48 22 " clip-rule="nonzero"/></clipPath><clipPath id="63032c7e95"><path d="M 38 16 L 60.75 16 L 60.75 30 L 38 30 Z M 38 16 " clip-rule="nonzero"/></clipPath></defs><g clip-path="url(#77ffe95431)"><path fill="#ef0a1b" d="M 18.550781 23.515625 C 18.421875 23.515625 18.296875 23.484375 18.1875 23.417969 L 18.113281 23.375 L 7.875 17.441406 C 7.765625 17.378906 7.675781 17.289062 7.613281 17.179688 C 7.546875 17.066406 7.515625 16.945312 7.515625 16.816406 C 7.511719 16.6875 7.542969 16.570312 7.605469 16.457031 C 7.671875 16.34375 7.757812 16.253906 7.867188 16.1875 L 17.863281 10.214844 C 18.113281 10.0625 18.363281 10.0625 18.613281 10.214844 L 28.800781 16.320312 C 28.910156 16.386719 28.996094 16.472656 29.058594 16.585938 C 29.121094 16.695312 29.152344 16.816406 29.152344 16.945312 C 29.152344 17.074219 29.121094 17.191406 29.054688 17.304688 C 28.992188 17.414062 28.90625 17.503906 28.796875 17.570312 L 18.921875 23.414062 C 18.808594 23.484375 18.683594 23.515625 18.550781 23.515625 Z M 9.675781 16.804688 L 18.546875 21.945312 L 27.003906 16.9375 L 18.238281 11.683594 Z M 9.675781 16.804688 " fill-opacity="1" fill-rule="nonzero"/></g><g clip-path="url(#8c08cb633c)"><path fill="#ef0a1b" d="M 28.714844 64.824219 C 28.589844 64.824219 28.472656 64.792969 28.363281 64.734375 L 7.886719 53.367188 C 7.636719 53.230469 7.511719 53.019531 7.511719 52.734375 L 7.511719 16.8125 C 7.511719 16.53125 7.636719 16.324219 7.878906 16.183594 C 8.121094 16.042969 8.363281 16.042969 8.605469 16.183594 L 18.84375 22.117188 C 19.085938 22.257812 19.207031 22.46875 19.207031 22.746094 L 19.207031 46.28125 L 29.082031 52.035156 C 29.324219 52.175781 29.445312 52.382812 29.445312 52.664062 L 29.445312 64.097656 C 29.445312 64.296875 29.371094 64.46875 29.230469 64.613281 C 29.089844 64.753906 28.917969 64.824219 28.714844 64.824219 Z M 8.96875 52.304688 L 27.988281 62.859375 L 27.988281 53.082031 L 18.113281 47.328125 C 17.871094 47.1875 17.75 46.976562 17.75 46.699219 L 17.75 23.167969 L 8.96875 18.074219 Z M 8.96875 52.304688 " fill-opacity="1" fill-rule="nonzero"/></g><path fill="#ef0a1b" d="M 18.480469 47.425781 C 18.277344 47.425781 18.105469 47.355469 17.964844 47.214844 C 17.820312 47.070312 17.75 46.902344 17.75 46.699219 L 17.75 22.746094 C 17.75 22.558594 17.816406 22.394531 17.941406 22.253906 C 18.070312 22.117188 18.226562 22.039062 18.417969 22.023438 L 28.054688 16.316406 C 28.167969 16.25 28.285156 16.21875 28.417969 16.214844 C 28.546875 16.214844 28.667969 16.246094 28.78125 16.308594 C 28.894531 16.371094 28.984375 16.460938 29.050781 16.570312 C 29.117188 16.683594 29.152344 16.804688 29.152344 16.933594 L 29.445312 40.585938 C 29.445312 40.867188 29.328125 41.078125 29.089844 41.222656 L 18.851562 47.324219 C 18.738281 47.394531 18.613281 47.425781 18.480469 47.425781 Z M 19.207031 23.246094 L 19.207031 45.417969 L 27.984375 40.1875 L 27.714844 18.210938 Z M 19.207031 23.246094 " fill-opacity="1" fill-rule="nonzero"/><g clip-path="url(#2d4195e664)"><path fill="#ef0a1b" d="M 28.714844 64.824219 C 28.515625 64.824219 28.34375 64.753906 28.203125 64.613281 C 28.058594 64.46875 27.988281 64.296875 27.988281 64.097656 L 27.988281 52.664062 C 27.988281 52.382812 28.109375 52.171875 28.355469 52.03125 L 49.191406 40.105469 C 49.304688 40.042969 49.425781 40.007812 49.554688 40.007812 C 49.6875 40.011719 49.808594 40.042969 49.917969 40.109375 C 50.03125 40.171875 50.121094 40.261719 50.183594 40.375 C 50.25 40.484375 50.28125 40.605469 50.28125 40.738281 L 50.28125 52.664062 C 50.28125 52.949219 50.15625 53.164062 49.90625 53.300781 L 29.066406 64.734375 C 28.957031 64.792969 28.839844 64.824219 28.714844 64.824219 Z M 29.445312 53.085938 L 29.445312 62.867188 L 48.828125 52.230469 L 48.828125 41.992188 Z M 29.445312 53.085938 " fill-opacity="1" fill-rule="nonzero"/></g><path fill="#ef0a1b" d="M 28.714844 53.390625 C 28.585938 53.390625 28.464844 53.355469 28.351562 53.292969 L 18.113281 47.328125 C 18 47.261719 17.914062 47.175781 17.847656 47.0625 C 17.785156 46.953125 17.75 46.832031 17.75 46.703125 C 17.75 46.574219 17.78125 46.453125 17.84375 46.34375 C 17.910156 46.230469 17.996094 46.140625 18.105469 46.074219 L 28.34375 39.972656 C 28.351562 39.96875 28.359375 39.964844 28.367188 39.957031 L 38.75 34.277344 C 38.984375 34.148438 39.21875 34.148438 39.453125 34.277344 L 49.910156 40.101562 C 50.15625 40.238281 50.28125 40.449219 50.28125 40.734375 C 50.285156 41.015625 50.160156 41.226562 49.917969 41.367188 L 29.078125 53.292969 C 28.964844 53.359375 28.84375 53.390625 28.714844 53.390625 Z M 19.910156 46.691406 L 28.71875 51.824219 L 48.074219 40.746094 L 39.097656 35.746094 L 29.078125 41.230469 Z M 19.910156 46.691406 " fill-opacity="1" fill-rule="nonzero"/><path fill="#ef0a1b" d="M 49.554688 41.464844 C 49.429688 41.464844 49.308594 41.433594 49.199219 41.371094 L 38.746094 35.550781 C 38.496094 35.410156 38.371094 35.199219 38.371094 34.914062 L 38.40625 22.785156 C 38.40625 22.65625 38.441406 22.535156 38.503906 22.425781 C 38.570312 22.3125 38.660156 22.222656 38.769531 22.160156 C 38.882812 22.09375 39.003906 22.0625 39.132812 22.0625 C 39.261719 22.0625 39.382812 22.09375 39.496094 22.15625 L 49.914062 28.109375 C 50.160156 28.25 50.28125 28.460938 50.28125 28.742188 L 50.28125 40.738281 C 50.28125 40.9375 50.210938 41.109375 50.070312 41.25 C 49.925781 41.394531 49.753906 41.464844 49.554688 41.464844 Z M 39.828125 34.488281 L 48.828125 39.5 L 48.828125 29.164062 L 39.859375 24.039062 Z M 39.828125 34.488281 " fill-opacity="1" fill-rule="nonzero"/><g clip-path="url(#1cd44b20ec)"><path fill="#ef0a1b" d="M 49.554688 41.464844 C 49.355469 41.464844 49.183594 41.394531 49.039062 41.25 C 48.898438 41.109375 48.828125 40.9375 48.828125 40.738281 L 48.828125 28.742188 C 48.828125 28.460938 48.949219 28.25 49.195312 28.109375 L 59.648438 22.15625 C 59.761719 22.09375 59.882812 22.0625 60.011719 22.0625 C 60.140625 22.0625 60.261719 22.09375 60.375 22.160156 C 60.488281 22.226562 60.574219 22.3125 60.640625 22.425781 C 60.703125 22.539062 60.738281 22.660156 60.738281 22.789062 L 60.738281 34.914062 C 60.738281 35.199219 60.613281 35.410156 60.363281 35.550781 L 49.910156 41.371094 C 49.796875 41.433594 49.679688 41.464844 49.554688 41.464844 Z M 50.28125 29.164062 L 50.28125 39.5 L 59.28125 34.488281 L 59.28125 24.039062 Z M 50.28125 29.164062 " fill-opacity="1" fill-rule="nonzero"/></g><g clip-path="url(#63032c7e95)"><path fill="#ef0a1b" d="M 49.554688 29.46875 C 49.425781 29.46875 49.304688 29.4375 49.195312 29.371094 L 38.773438 23.421875 C 38.527344 23.28125 38.40625 23.070312 38.40625 22.785156 C 38.410156 22.503906 38.53125 22.292969 38.78125 22.15625 L 49.199219 16.308594 C 49.433594 16.175781 49.671875 16.175781 49.910156 16.308594 L 60.363281 22.152344 C 60.609375 22.292969 60.734375 22.503906 60.738281 22.785156 C 60.738281 23.070312 60.613281 23.28125 60.367188 23.421875 L 49.914062 29.375 C 49.804688 29.4375 49.683594 29.46875 49.554688 29.46875 Z M 40.613281 22.792969 L 49.554688 27.902344 L 58.527344 22.792969 L 49.554688 17.777344 Z M 40.613281 22.792969 " fill-opacity="1" fill-rule="nonzero"/></g><g fill="#ef0a1b" fill-opacity="1"><g transform="translate(80.415219, 51.24338)"><g><path d="M 21.375 -18.75 L 8.140625 -13.90625 L 21.375 -9.09375 L 21.375 -4.125 L 2.46875 -11.3125 L 2.46875 -16.484375 L 21.375 -23.671875 Z M 21.375 -18.75 "/></g></g></g><g fill="#ef0a1b" fill-opacity="1"><g transform="translate(104.204463, 51.24338)"><g><path d="M 11.796875 -33.4375 L 17.3125 -33.4375 L 4.203125 3.96875 L -1.3125 3.96875 Z M 11.796875 -33.4375 "/></g></g></g><g fill="#ef0a1b" fill-opacity="1"><g transform="translate(119.772718, 51.24338)"><g><path d="M 9.0625 -22.5625 L 0.15625 -22.5625 L 0.15625 -27.796875 L 24.390625 -27.796875 L 24.390625 -22.5625 L 15.484375 -22.5625 L 15.484375 0 L 9.0625 0 Z M 9.0625 -22.5625 "/></g></g></g><g fill="#ef0a1b" fill-opacity="1"><g transform="translate(144.31654, 51.24338)"><g><path d="M 28.796875 -27.796875 L 28.796875 0 L 22.359375 0 L 22.359375 -11.40625 L 9.734375 -11.40625 L 9.734375 0 L 3.296875 0 L 3.296875 -27.796875 L 9.734375 -27.796875 L 9.734375 -16.84375 L 22.359375 -16.84375 L 22.359375 -27.796875 Z M 28.796875 -27.796875 "/></g></g></g><g fill="#ef0a1b" fill-opacity="1"><g transform="translate(176.406205, 51.24338)"><g><path d="M 24.828125 -5.15625 L 24.828125 0 L 3.296875 0 L 3.296875 -27.796875 L 24.3125 -27.796875 L 24.3125 -22.640625 L 9.6875 -22.640625 L 9.6875 -16.609375 L 22.59375 -16.609375 L 22.59375 -11.59375 L 9.6875 -11.59375 L 9.6875 -5.15625 Z M 24.828125 -5.15625 "/></g></g></g><g fill="#ef0a1b" fill-opacity="1"><g transform="translate(203.054926, 51.24338)"><g><path d="M 5.203125 0.3125 C 4.117188 0.3125 3.203125 -0.0546875 2.453125 -0.796875 C 1.710938 -1.535156 1.34375 -2.460938 1.34375 -3.578125 C 1.34375 -4.710938 1.710938 -5.628906 2.453125 -6.328125 C 3.203125 -7.035156 4.117188 -7.390625 5.203125 -7.390625 C 6.285156 -7.390625 7.195312 -7.035156 7.9375 -6.328125 C 8.6875 -5.628906 9.0625 -4.710938 9.0625 -3.578125 C 9.0625 -2.460938 8.6875 -1.535156 7.9375 -0.796875 C 7.195312 -0.0546875 6.285156 0.3125 5.203125 0.3125 Z M 5.203125 0.3125 "/></g></g></g><g fill="#ef0a1b" fill-opacity="1"><g transform="translate(213.460237, 51.24338)"><g><path d="M 28.796875 -27.796875 L 28.796875 0 L 23.515625 0 L 9.65625 -16.875 L 9.65625 0 L 3.296875 0 L 3.296875 -27.796875 L 8.625 -27.796875 L 22.4375 -10.921875 L 22.4375 -27.796875 Z M 28.796875 -27.796875 "/></g></g></g><g fill="#ef0a1b" fill-opacity="1"><g transform="translate(245.549902, 51.24338)"><g><path d="M 16.765625 0.484375 C 13.878906 0.484375 11.273438 -0.132812 8.953125 -1.375 C 6.640625 -2.625 4.828125 -4.34375 3.515625 -6.53125 C 2.203125 -8.71875 1.546875 -11.175781 1.546875 -13.90625 C 1.546875 -16.632812 2.203125 -19.085938 3.515625 -21.265625 C 4.828125 -23.453125 6.640625 -25.164062 8.953125 -26.40625 C 11.273438 -27.65625 13.878906 -28.28125 16.765625 -28.28125 C 19.648438 -28.28125 22.242188 -27.65625 24.546875 -26.40625 C 26.847656 -25.164062 28.660156 -23.453125 29.984375 -21.265625 C 31.304688 -19.085938 31.96875 -16.632812 31.96875 -13.90625 C 31.96875 -11.175781 31.304688 -8.71875 29.984375 -6.53125 C 28.660156 -4.34375 26.847656 -2.625 24.546875 -1.375 C 22.242188 -0.132812 19.648438 0.484375 16.765625 0.484375 Z M 16.765625 -5 C 18.398438 -5 19.878906 -5.375 21.203125 -6.125 C 22.535156 -6.882812 23.578125 -7.9375 24.328125 -9.28125 C 25.078125 -10.632812 25.453125 -12.175781 25.453125 -13.90625 C 25.453125 -15.625 25.078125 -17.15625 24.328125 -18.5 C 23.578125 -19.851562 22.535156 -20.90625 21.203125 -21.65625 C 19.878906 -22.414062 18.398438 -22.796875 16.765625 -22.796875 C 15.117188 -22.796875 13.632812 -22.414062 12.3125 -21.65625 C 10.988281 -20.90625 9.945312 -19.851562 9.1875 -18.5 C 8.4375 -17.15625 8.0625 -15.625 8.0625 -13.90625 C 8.0625 -12.175781 8.4375 -10.632812 9.1875 -9.28125 C 9.945312 -7.9375 10.988281 -6.882812 12.3125 -6.125 C 13.632812 -5.375 15.117188 -5 16.765625 -5 Z M 16.765625 -5 "/></g></g></g><g fill="#ef0a1b" fill-opacity="1"><g transform="translate(279.069301, 51.24338)"><g><path d="M 45.3125 -27.796875 L 36.21875 0 L 29.3125 0 L 23.203125 -18.828125 L 16.875 0 L 10.015625 0 L 0.875 -27.796875 L 7.546875 -27.796875 L 13.828125 -8.265625 L 20.375 -27.796875 L 26.328125 -27.796875 L 32.6875 -8.109375 L 39.15625 -27.796875 Z M 45.3125 -27.796875 "/></g></g></g><g fill="#ef0a1b" fill-opacity="1"><g transform="translate(325.257766, 51.24338)"><g><path d="M 21.375 -16.484375 L 21.375 -11.3125 L 2.46875 -4.125 L 2.46875 -9.09375 L 15.6875 -13.90625 L 2.46875 -18.75 L 2.46875 -23.671875 Z M 21.375 -16.484375 "/></g></g></g></svg>