<svg xmlns="http://www.w3.org/2000/svg" xmlns:xlink="http://www.w3.org/1999/xlink" width="500" zoomAndPan="magnify" viewBox="0 0 375 74.999997" height="100" preserveAspectRatio="xMidYMid meet" version="1.0"><defs><g/><clipPath id="7ee981fa74"><path d="M 7.5 10.074219 L 30 10.074219 L 30 24 L 7.5 24 Z M 7.5 10.074219 " clip-rule="nonzero"/></clipPath><clipPath id="1048070a50"><path d="M 7.5 16 L 30 16 L 30 64.824219 L 7.5 64.824219 Z M 7.5 16 " clip-rule="nonzero"/></clipPath><clipPath id="2ba97e5223"><path d="M 28 40 L 51 40 L 51 64.824219 L 28 64.824219 Z M 28 40 " clip-rule="nonzero"/></clipPath><clipPath id="b187197999"><path d="M 48 22 L 60.75 22 L 60.75 42 L 48 42 Z M 48 22 " clip-rule="nonzero"/></clipPath><clipPath id="6cd361b024"><path d="M 38 16 L 60.75 16 L 60.75 30 L 38 30 Z M 38 16 " clip-rule="nonzero"/></clipPath></defs><g clip-path="url(#7ee981fa74)"><path fill="#38b6ff" d="M 18.566406 23.539062 C 18.4375 23.539062 18.316406 23.507812 18.203125 23.441406 L 18.128906 23.398438 L 7.875 17.457031 C 7.765625 17.390625 7.675781 17.300781 7.613281 17.191406 C 7.546875 17.078125 7.515625 16.957031 7.515625 16.828125 C 7.511719 16.699219 7.542969 16.578125 7.605469 16.46875 C 7.671875 16.355469 7.757812 16.265625 7.867188 16.199219 L 17.878906 10.214844 C 18.128906 10.0625 18.378906 10.0625 18.628906 10.214844 L 28.832031 16.328125 C 28.941406 16.394531 29.027344 16.484375 29.089844 16.597656 C 29.15625 16.707031 29.1875 16.828125 29.1875 16.957031 C 29.1875 17.085938 29.152344 17.207031 29.089844 17.316406 C 29.027344 17.429688 28.9375 17.515625 28.828125 17.582031 L 18.9375 23.4375 C 18.824219 23.503906 18.699219 23.539062 18.566406 23.539062 Z M 9.679688 16.816406 L 18.5625 21.964844 L 27.035156 16.949219 L 18.253906 11.6875 Z M 9.679688 16.816406 " fill-opacity="1" fill-rule="nonzero"/></g><g clip-path="url(#1048070a50)"><path fill="#38b6ff" d="M 28.75 64.917969 C 28.621094 64.917969 28.503906 64.886719 28.394531 64.828125 L 7.886719 53.441406 C 7.636719 53.304688 7.511719 53.089844 7.511719 52.804688 L 7.511719 16.824219 C 7.511719 16.542969 7.636719 16.332031 7.878906 16.191406 C 8.121094 16.054688 8.363281 16.054688 8.609375 16.195312 L 18.859375 22.136719 C 19.101562 22.277344 19.222656 22.488281 19.222656 22.769531 L 19.222656 46.34375 L 29.117188 52.105469 C 29.355469 52.246094 29.476562 52.457031 29.476562 52.734375 L 29.476562 64.191406 C 29.476562 64.390625 29.40625 64.5625 29.265625 64.703125 C 29.121094 64.847656 28.949219 64.917969 28.75 64.917969 Z M 8.972656 52.375 L 28.019531 62.953125 L 28.019531 53.152344 L 18.128906 47.390625 C 17.886719 47.25 17.765625 47.042969 17.765625 46.761719 L 17.765625 23.1875 L 8.972656 18.089844 Z M 8.972656 52.375 " fill-opacity="1" fill-rule="nonzero"/></g><path fill="#38b6ff" d="M 18.496094 47.492188 C 18.292969 47.492188 18.121094 47.421875 17.980469 47.277344 C 17.839844 47.136719 17.765625 46.964844 17.765625 46.761719 L 17.765625 22.769531 C 17.765625 22.578125 17.832031 22.414062 17.957031 22.277344 C 18.085938 22.136719 18.246094 22.058594 18.433594 22.042969 L 28.085938 16.328125 C 28.199219 16.261719 28.320312 16.226562 28.449219 16.226562 C 28.578125 16.226562 28.699219 16.253906 28.8125 16.320312 C 28.929688 16.382812 29.019531 16.472656 29.085938 16.582031 C 29.152344 16.695312 29.183594 16.816406 29.1875 16.945312 L 29.476562 40.640625 C 29.480469 40.921875 29.363281 41.132812 29.121094 41.273438 L 18.867188 47.386719 C 18.753906 47.457031 18.628906 47.492188 18.496094 47.492188 Z M 19.222656 23.269531 L 19.222656 45.480469 L 28.015625 40.238281 L 27.742188 18.222656 Z M 19.222656 23.269531 " fill-opacity="1" fill-rule="nonzero"/><g clip-path="url(#2ba97e5223)"><path fill="#38b6ff" d="M 28.75 64.917969 C 28.546875 64.917969 28.375 64.847656 28.234375 64.703125 C 28.089844 64.5625 28.019531 64.390625 28.019531 64.191406 L 28.019531 52.734375 C 28.019531 52.453125 28.140625 52.242188 28.386719 52.101562 L 49.257812 40.15625 C 49.371094 40.09375 49.492188 40.058594 49.621094 40.0625 C 49.75 40.0625 49.871094 40.09375 49.984375 40.160156 C 50.097656 40.222656 50.1875 40.3125 50.25 40.425781 C 50.316406 40.539062 50.347656 40.660156 50.347656 40.789062 L 50.347656 52.734375 C 50.347656 53.023438 50.222656 53.234375 49.96875 53.375 L 29.097656 64.828125 C 28.992188 64.886719 28.875 64.917969 28.75 64.917969 Z M 29.476562 53.15625 L 29.476562 62.957031 L 48.890625 52.304688 L 48.890625 42.046875 Z M 29.476562 53.15625 " fill-opacity="1" fill-rule="nonzero"/></g><path fill="#38b6ff" d="M 28.75 53.464844 C 28.617188 53.464844 28.496094 53.429688 28.382812 53.363281 L 18.128906 47.390625 C 18.015625 47.328125 17.929688 47.238281 17.863281 47.128906 C 17.800781 47.015625 17.765625 46.894531 17.765625 46.765625 C 17.765625 46.636719 17.796875 46.515625 17.859375 46.402344 C 17.925781 46.292969 18.011719 46.203125 18.121094 46.136719 L 28.375 40.023438 C 28.382812 40.019531 28.390625 40.015625 28.398438 40.011719 L 38.800781 34.316406 C 39.035156 34.1875 39.269531 34.191406 39.503906 34.320312 L 49.972656 40.152344 C 50.222656 40.289062 50.347656 40.5 50.347656 40.785156 C 50.351562 41.070312 50.226562 41.28125 49.980469 41.421875 L 29.109375 53.367188 C 29 53.433594 28.878906 53.464844 28.75 53.464844 Z M 19.929688 46.753906 L 28.753906 51.894531 L 48.136719 40.796875 L 39.144531 35.789062 L 29.109375 41.28125 Z M 19.929688 46.753906 " fill-opacity="1" fill-rule="nonzero"/><path fill="#38b6ff" d="M 49.621094 41.519531 C 49.492188 41.519531 49.375 41.488281 49.265625 41.425781 L 38.792969 35.59375 C 38.542969 35.453125 38.417969 35.242188 38.421875 34.953125 L 38.457031 22.808594 C 38.457031 22.679688 38.488281 22.558594 38.554688 22.445312 C 38.617188 22.332031 38.707031 22.246094 38.820312 22.179688 C 38.929688 22.113281 39.050781 22.082031 39.183594 22.082031 C 39.3125 22.082031 39.433594 22.113281 39.546875 22.179688 L 49.980469 28.140625 C 50.226562 28.28125 50.347656 28.492188 50.347656 28.773438 L 50.347656 40.789062 C 50.347656 40.992188 50.277344 41.164062 50.132812 41.304688 C 49.992188 41.445312 49.820312 41.519531 49.621094 41.519531 Z M 39.878906 34.53125 L 48.890625 39.550781 L 48.890625 29.195312 L 39.910156 24.0625 Z M 39.878906 34.53125 " fill-opacity="1" fill-rule="nonzero"/><g clip-path="url(#b187197999)"><path fill="#38b6ff" d="M 49.621094 41.519531 C 49.417969 41.519531 49.246094 41.445312 49.105469 41.304688 C 48.960938 41.164062 48.890625 40.992188 48.890625 40.789062 L 48.890625 28.773438 C 48.890625 28.492188 49.011719 28.28125 49.257812 28.140625 L 59.730469 22.175781 C 59.84375 22.113281 59.964844 22.082031 60.09375 22.082031 C 60.222656 22.082031 60.34375 22.117188 60.457031 22.179688 C 60.566406 22.246094 60.65625 22.335938 60.722656 22.445312 C 60.785156 22.558594 60.820312 22.679688 60.820312 22.8125 L 60.820312 34.957031 C 60.820312 35.242188 60.695312 35.453125 60.445312 35.59375 L 49.972656 41.425781 C 49.863281 41.488281 49.746094 41.519531 49.621094 41.519531 Z M 50.347656 29.195312 L 50.347656 39.550781 L 59.359375 34.527344 L 59.359375 24.0625 Z M 50.347656 29.195312 " fill-opacity="1" fill-rule="nonzero"/></g><g clip-path="url(#6cd361b024)"><path fill="#38b6ff" d="M 49.621094 29.503906 C 49.492188 29.503906 49.371094 29.46875 49.257812 29.40625 L 38.824219 23.441406 C 38.578125 23.300781 38.453125 23.089844 38.457031 22.808594 C 38.457031 22.523438 38.582031 22.3125 38.828125 22.175781 L 49.261719 16.320312 C 49.5 16.1875 49.738281 16.1875 49.976562 16.320312 L 60.445312 22.175781 C 60.691406 22.3125 60.816406 22.523438 60.820312 22.808594 C 60.820312 23.089844 60.695312 23.304688 60.449219 23.445312 L 49.980469 29.40625 C 49.867188 29.46875 49.746094 29.503906 49.621094 29.503906 Z M 40.664062 22.816406 L 49.621094 27.933594 L 58.605469 22.816406 L 49.621094 17.789062 Z M 40.664062 22.816406 " fill-opacity="1" fill-rule="nonzero"/></g><g fill="#38b6ff" fill-opacity="1"><g transform="translate(76.301939, 51.24338)"><g><path d="M 21.375 -18.75 L 8.140625 -13.90625 L 21.375 -9.09375 L 21.375 -4.125 L 2.46875 -11.3125 L 2.46875 -16.484375 L 21.375 -23.671875 Z M 21.375 -18.75 "/></g></g></g><g fill="#38b6ff" fill-opacity="1"><g transform="translate(100.091182, 51.24338)"><g><path d="M 11.796875 -33.4375 L 17.3125 -33.4375 L 4.203125 3.96875 L -1.3125 3.96875 Z M 11.796875 -33.4375 "/></g></g></g><g fill="#38b6ff" fill-opacity="1"><g transform="translate(115.659437, 51.24338)"><g><path d="M 9.0625 -22.5625 L 0.15625 -22.5625 L 0.15625 -27.796875 L 24.390625 -27.796875 L 24.390625 -22.5625 L 15.484375 -22.5625 L 15.484375 0 L 9.0625 0 Z M 9.0625 -22.5625 "/></g></g></g><g fill="#38b6ff" fill-opacity="1"><g transform="translate(140.203259, 51.24338)"><g><path d="M 28.796875 -27.796875 L 28.796875 0 L 22.359375 0 L 22.359375 -11.40625 L 9.734375 -11.40625 L 9.734375 0 L 3.296875 0 L 3.296875 -27.796875 L 9.734375 -27.796875 L 9.734375 -16.84375 L 22.359375 -16.84375 L 22.359375 -27.796875 Z M 28.796875 -27.796875 "/></g></g></g><g fill="#38b6ff" fill-opacity="1"><g transform="translate(172.292924, 51.24338)"><g><path d="M 24.828125 -5.15625 L 24.828125 0 L 3.296875 0 L 3.296875 -27.796875 L 24.3125 -27.796875 L 24.3125 -22.640625 L 9.6875 -22.640625 L 9.6875 -16.609375 L 22.59375 -16.609375 L 22.59375 -11.59375 L 9.6875 -11.59375 L 9.6875 -5.15625 Z M 24.828125 -5.15625 "/></g></g></g><g fill="#38b6ff" fill-opacity="1"><g transform="translate(198.941645, 51.24338)"><g><path d="M 5.203125 0.3125 C 4.117188 0.3125 3.203125 -0.0546875 2.453125 -0.796875 C 1.710938 -1.535156 1.34375 -2.460938 1.34375 -3.578125 C 1.34375 -4.710938 1.710938 -5.628906 2.453125 -6.328125 C 3.203125 -7.035156 4.117188 -7.390625 5.203125 -7.390625 C 6.285156 -7.390625 7.195312 -7.035156 7.9375 -6.328125 C 8.6875 -5.628906 9.0625 -4.710938 9.0625 -3.578125 C 9.0625 -2.460938 8.6875 -1.535156 7.9375 -0.796875 C 7.195312 -0.0546875 6.285156 0.3125 5.203125 0.3125 Z M 5.203125 0.3125 "/></g></g></g><g fill="#38b6ff" fill-opacity="1"><g transform="translate(209.346956, 51.24338)"><g><path d="M 12.4375 0.484375 C 10.238281 0.484375 8.113281 0.1875 6.0625 -0.40625 C 4.007812 -1.007812 2.359375 -1.785156 1.109375 -2.734375 L 3.296875 -7.59375 C 4.484375 -6.71875 5.898438 -6.015625 7.546875 -5.484375 C 9.191406 -4.953125 10.832031 -4.6875 12.46875 -4.6875 C 14.300781 -4.6875 15.648438 -4.957031 16.515625 -5.5 C 17.390625 -6.039062 17.828125 -6.765625 17.828125 -7.671875 C 17.828125 -8.328125 17.566406 -8.875 17.046875 -9.3125 C 16.535156 -9.75 15.875 -10.097656 15.0625 -10.359375 C 14.257812 -10.628906 13.171875 -10.921875 11.796875 -11.234375 C 9.679688 -11.742188 7.945312 -12.25 6.59375 -12.75 C 5.238281 -13.25 4.078125 -14.054688 3.109375 -15.171875 C 2.148438 -16.285156 1.671875 -17.769531 1.671875 -19.625 C 1.671875 -21.238281 2.109375 -22.695312 2.984375 -24 C 3.859375 -25.3125 5.175781 -26.351562 6.9375 -27.125 C 8.695312 -27.894531 10.847656 -28.28125 13.390625 -28.28125 C 15.160156 -28.28125 16.890625 -28.066406 18.578125 -27.640625 C 20.273438 -27.222656 21.757812 -26.613281 23.03125 -25.8125 L 21.046875 -20.9375 C 18.484375 -22.382812 15.914062 -23.109375 13.34375 -23.109375 C 11.539062 -23.109375 10.207031 -22.816406 9.34375 -22.234375 C 8.488281 -21.660156 8.0625 -20.894531 8.0625 -19.9375 C 8.0625 -18.988281 8.554688 -18.28125 9.546875 -17.8125 C 10.546875 -17.351562 12.0625 -16.894531 14.09375 -16.4375 C 16.21875 -15.9375 17.953125 -15.429688 19.296875 -14.921875 C 20.648438 -14.421875 21.8125 -13.628906 22.78125 -12.546875 C 23.75 -11.460938 24.234375 -9.992188 24.234375 -8.140625 C 24.234375 -6.554688 23.785156 -5.109375 22.890625 -3.796875 C 22.003906 -2.484375 20.675781 -1.441406 18.90625 -0.671875 C 17.132812 0.0976562 14.976562 0.484375 12.4375 0.484375 Z M 12.4375 0.484375 "/></g></g></g><g fill="#38b6ff" fill-opacity="1"><g transform="translate(234.685077, 51.24338)"><g><path d="M 28.796875 -27.796875 L 28.796875 0 L 22.359375 0 L 22.359375 -11.40625 L 9.734375 -11.40625 L 9.734375 0 L 3.296875 0 L 3.296875 -27.796875 L 9.734375 -27.796875 L 9.734375 -16.84375 L 22.359375 -16.84375 L 22.359375 -27.796875 Z M 28.796875 -27.796875 "/></g></g></g><g fill="#38b6ff" fill-opacity="1"><g transform="translate(266.774742, 51.24338)"><g><path d="M 16.765625 0.484375 C 13.878906 0.484375 11.273438 -0.132812 8.953125 -1.375 C 6.640625 -2.625 4.828125 -4.34375 3.515625 -6.53125 C 2.203125 -8.71875 1.546875 -11.175781 1.546875 -13.90625 C 1.546875 -16.632812 2.203125 -19.085938 3.515625 -21.265625 C 4.828125 -23.453125 6.640625 -25.164062 8.953125 -26.40625 C 11.273438 -27.65625 13.878906 -28.28125 16.765625 -28.28125 C 19.648438 -28.28125 22.242188 -27.65625 24.546875 -26.40625 C 26.847656 -25.164062 28.660156 -23.453125 29.984375 -21.265625 C 31.304688 -19.085938 31.96875 -16.632812 31.96875 -13.90625 C 31.96875 -11.175781 31.304688 -8.71875 29.984375 -6.53125 C 28.660156 -4.34375 26.847656 -2.625 24.546875 -1.375 C 22.242188 -0.132812 19.648438 0.484375 16.765625 0.484375 Z M 16.765625 -5 C 18.398438 -5 19.878906 -5.375 21.203125 -6.125 C 22.535156 -6.882812 23.578125 -7.9375 24.328125 -9.28125 C 25.078125 -10.632812 25.453125 -12.175781 25.453125 -13.90625 C 25.453125 -15.625 25.078125 -17.15625 24.328125 -18.5 C 23.578125 -19.851562 22.535156 -20.90625 21.203125 -21.65625 C 19.878906 -22.414062 18.398438 -22.796875 16.765625 -22.796875 C 15.117188 -22.796875 13.632812 -22.414062 12.3125 -21.65625 C 10.988281 -20.90625 9.945312 -19.851562 9.1875 -18.5 C 8.4375 -17.15625 8.0625 -15.625 8.0625 -13.90625 C 8.0625 -12.175781 8.4375 -10.632812 9.1875 -9.28125 C 9.945312 -7.9375 10.988281 -6.882812 12.3125 -6.125 C 13.632812 -5.375 15.117188 -5 16.765625 -5 Z M 16.765625 -5 "/></g></g></g><g fill="#38b6ff" fill-opacity="1"><g transform="translate(300.294153, 51.24338)"><g><path d="M 15.328125 -27.796875 C 17.796875 -27.796875 19.9375 -27.382812 21.75 -26.5625 C 23.5625 -25.75 24.957031 -24.585938 25.9375 -23.078125 C 26.914062 -21.566406 27.40625 -19.78125 27.40625 -17.71875 C 27.40625 -15.675781 26.914062 -13.894531 25.9375 -12.375 C 24.957031 -10.851562 23.5625 -9.6875 21.75 -8.875 C 19.9375 -8.070312 17.796875 -7.671875 15.328125 -7.671875 L 9.734375 -7.671875 L 9.734375 0 L 3.296875 0 L 3.296875 -27.796875 Z M 14.96875 -12.90625 C 16.90625 -12.90625 18.375 -13.320312 19.375 -14.15625 C 20.382812 -14.988281 20.890625 -16.175781 20.890625 -17.71875 C 20.890625 -19.28125 20.382812 -20.476562 19.375 -21.3125 C 18.375 -22.144531 16.90625 -22.5625 14.96875 -22.5625 L 9.734375 -22.5625 L 9.734375 -12.90625 Z M 14.96875 -12.90625 "/></g></g></g><g fill="#38b6ff" fill-opacity="1"><g transform="translate(329.365485, 51.24338)"><g><path d="M 21.375 -16.484375 L 21.375 -11.3125 L 2.46875 -4.125 L 2.46875 -9.09375 L 15.6875 -13.90625 L 2.46875 -18.75 L 2.46875 -23.671875 Z M 21.375 -16.484375 "/></g></g></g></svg>