<svg xmlns="http://www.w3.org/2000/svg" xmlns:xlink="http://www.w3.org/1999/xlink" width="500" zoomAndPan="magnify" viewBox="0 0 375 374.999991" height="500" preserveAspectRatio="xMidYMid meet" version="1.0"><defs><g/><clipPath id="a337bed7f4"><path d="M 3.675781 71.460938 L 371 71.460938 L 371 303.210938 L 3.675781 303.210938 Z M 3.675781 71.460938 " clip-rule="nonzero"/></clipPath></defs><g clip-path="url(#a337bed7f4)"><path fill="#ffffff" d="M 8.09375 142.964844 C 8.117188 142.59375 8.242188 142.234375 8.460938 141.9375 C 11.53125 137.695312 13.34375 132.253906 13.570312 126.613281 C 13.582031 126.261719 13.695312 125.917969 13.890625 125.621094 C 17.777344 119.742188 19.824219 113.414062 20.148438 106.269531 C 20.164062 105.925781 20.273438 105.59375 20.457031 105.304688 C 23.214844 101.03125 24.839844 95.414062 25.148438 89.066406 C 25.152344 88.976562 25.164062 88.886719 25.179688 88.804688 C 25.953125 84.582031 25.632812 80.6875 24.316406 78.394531 C 24.285156 78.34375 24.257812 78.292969 24.234375 78.238281 C 24.199219 78.164062 24.171875 78.089844 24.148438 78.011719 C 23.839844 77.0625 24.300781 76.042969 25.210938 75.640625 C 25.460938 75.53125 25.726562 75.476562 25.996094 75.476562 C 26.6875 75.476562 27.335938 75.847656 27.6875 76.460938 C 28.175781 77.289062 29.464844 79.234375 30.863281 80.660156 C 30.902344 80.699219 30.9375 80.738281 30.964844 80.773438 C 31.523438 81.4375 32.054688 81.984375 32.550781 82.398438 C 33.078125 82.835938 33.789062 82.976562 34.441406 82.773438 C 35.09375 82.570312 35.597656 82.050781 35.78125 81.390625 C 35.878906 81.035156 35.96875 80.597656 36.03125 80.277344 C 36.152344 79.675781 36.277344 79.050781 36.496094 78.445312 C 36.5625 78.265625 36.652344 78.101562 36.765625 77.949219 C 37.765625 76.605469 39.179688 75.953125 41.078125 75.953125 C 42.683594 75.953125 44.707031 76.414062 47.445312 77.402344 C 47.511719 77.425781 47.570312 77.453125 47.628906 77.480469 C 49.324219 78.296875 52.746094 79.121094 56.582031 79.121094 L 56.902344 79.117188 C 57.121094 79.117188 57.335938 79.15625 57.542969 79.226562 C 64.664062 81.703125 71.808594 82.855469 80.710938 82.960938 C 80.960938 82.964844 81.207031 83.011719 81.4375 83.109375 C 87.644531 85.695312 96.632812 87.457031 107.417969 88.210938 C 107.542969 88.21875 107.664062 88.238281 107.78125 88.269531 C 116.945312 90.6875 127.0625 92.449219 138.710938 93.664062 C 138.777344 93.667969 138.839844 93.679688 138.902344 93.691406 C 149.761719 95.9375 160.132812 97.441406 169.730469 98.164062 C 169.816406 98.171875 169.902344 98.183594 169.988281 98.199219 C 179.164062 100.132812 188.363281 101.453125 197.332031 102.117188 C 197.398438 102.121094 197.460938 102.128906 197.523438 102.140625 C 204.898438 103.433594 211.875 104.203125 217.171875 104.316406 C 217.242188 104.316406 217.3125 104.324219 217.378906 104.332031 C 219.757812 104.640625 221.707031 104.796875 223.175781 104.796875 C 223.945312 104.796875 224.59375 104.75 225.046875 104.664062 C 225.25 104.628906 225.449219 104.558594 225.632812 104.460938 C 225.75 104.398438 225.875 104.34375 226 104.304688 C 226.621094 104.121094 227.367188 104.03125 228.285156 104.03125 C 231.394531 104.03125 235.746094 105.066406 238.851562 105.9375 C 238.898438 105.953125 238.949219 105.96875 239 105.988281 C 243.316406 107.582031 249.933594 110.367188 256.925781 114.550781 C 261.472656 117.324219 267.792969 121.789062 272.074219 127.324219 C 277.460938 134.292969 277.179688 139.992188 275.996094 143.546875 C 275.105469 146.214844 274.449219 148.472656 274.042969 150.257812 C 273.863281 151.050781 274.175781 151.875 274.839844 152.34375 C 275.503906 152.816406 276.382812 152.839844 277.074219 152.410156 C 279.65625 150.796875 283.320312 148.097656 286.554688 145.71875 L 287.75 144.835938 C 289.648438 143.441406 290.984375 142.203125 291.722656 141.164062 C 292.285156 140.375 292.203125 139.296875 291.53125 138.601562 C 290.734375 137.777344 290.058594 136.839844 290.46875 135.582031 C 291.058594 133.773438 293.0625 133.238281 300.714844 131.90625 C 304.457031 131.253906 306.863281 130.476562 308.0625 129.527344 C 308.867188 128.886719 309.03125 128.203125 309.304688 127.070312 C 309.375 126.773438 309.445312 126.472656 309.53125 126.167969 C 310.480469 122.757812 312.722656 118.792969 327.449219 114.9375 C 327.5625 114.910156 327.675781 114.871094 327.78125 114.820312 C 330.308594 113.652344 333.285156 111.007812 333.144531 105.058594 C 333.132812 104.613281 333.277344 104.175781 333.542969 103.828125 C 335.90625 100.746094 337.019531 97.214844 338.199219 93.476562 C 338.5 92.523438 338.839844 91.445312 339.195312 90.421875 C 339.289062 90.148438 339.445312 89.898438 339.644531 89.695312 C 340.671875 88.652344 341.917969 88.125 343.355469 88.125 C 345.855469 88.125 348.304688 89.691406 351.144531 91.503906 L 351.503906 91.734375 C 351.796875 91.921875 352.03125 92.183594 352.191406 92.492188 C 355.191406 98.371094 357.519531 101.816406 359.109375 102.730469 C 359.359375 102.875 359.574219 103.070312 359.738281 103.308594 C 360.089844 103.816406 360.652344 104.132812 361.269531 104.171875 C 363.25 104.292969 364.792969 105.34375 365.855469 107.292969 C 365.929688 107.4375 365.992188 107.589844 366.03125 107.746094 C 366.925781 111.253906 365.136719 112.21875 363.273438 112.699219 C 361.839844 113.070312 360.527344 113.570312 359.011719 115.953125 C 358.863281 116.1875 358.65625 116.394531 358.421875 116.546875 C 357.8125 116.933594 357.25 117.289062 356.730469 117.617188 C 354.699219 118.898438 353.421875 119.71875 352.800781 120.308594 C 352.566406 120.53125 352.390625 120.808594 352.285156 121.113281 C 352.0625 121.757812 351.507812 122.246094 350.835938 122.382812 C 350.566406 122.4375 350.332031 122.5 350.128906 122.5625 C 349.492188 122.761719 348.992188 123.265625 348.804688 123.90625 C 348.652344 124.421875 348.539062 125.144531 348.472656 126.058594 C 348.453125 126.28125 348.398438 126.5 348.308594 126.707031 C 347.722656 128.007812 346.300781 131.464844 345.695312 135.445312 C 345.691406 135.476562 345.683594 135.507812 345.675781 135.546875 C 345.507812 136.34375 345.363281 137.515625 346.019531 138.496094 C 346.265625 138.863281 346.621094 139.140625 347.039062 139.285156 C 349.890625 140.265625 350.347656 141.9375 350.367188 142.84375 C 350.421875 145.488281 347.242188 147.171875 344.5625 148.117188 C 343.644531 148.441406 343.089844 149.375 343.246094 150.335938 C 343.429688 151.457031 342.800781 152.332031 341.332031 153.007812 L 341.25 153.039062 C 340 153.554688 338.429688 153.804688 336.769531 154.066406 C 335.46875 154.273438 334.121094 154.488281 332.929688 154.832031 C 330.265625 155.597656 329.324219 156.695312 329.453125 158.871094 C 329.660156 162.445312 329.785156 164.78125 329.695312 167.066406 L 329.695312 167.105469 C 329.636719 168.027344 329.550781 168.914062 329.460938 169.863281 C 329.324219 171.265625 329.183594 172.71875 329.113281 174.507812 C 329.105469 174.65625 329.082031 174.800781 329.042969 174.941406 C 328.34375 177.503906 327.101562 178.804688 325.339844 178.804688 L 325.289062 178.804688 C 324.613281 178.792969 323.980469 179.125 323.601562 179.683594 C 323.21875 180.242188 323.144531 180.953125 323.398438 181.578125 C 324.804688 185.023438 326.90625 188.007812 329.507812 191.546875 C 329.914062 192.097656 330 192.828125 329.730469 193.457031 C 329.382812 194.28125 328.988281 195.15625 328.601562 196.007812 C 327.257812 198.976562 325.738281 202.339844 324.800781 206.171875 C 324.695312 206.601562 324.445312 206.988281 324.097656 207.253906 C 318.574219 211.484375 314.003906 216.492188 310.125 222.5625 C 309.921875 222.875 309.640625 223.125 309.300781 223.28125 C 307.625 224.054688 306.015625 225.878906 304.082031 229.195312 C 303.945312 229.429688 303.765625 229.628906 303.542969 229.792969 C 303.457031 229.851562 303.378906 229.921875 303.304688 229.992188 C 302.789062 230.503906 301.992188 231.746094 301.304688 233.695312 C 301.296875 233.710938 301.292969 233.726562 301.289062 233.742188 C 300.976562 234.691406 300.566406 235.613281 300.164062 236.507812 C 299.585938 237.796875 299.039062 239.015625 298.917969 240.054688 C 298.890625 240.285156 298.824219 240.507812 298.71875 240.714844 C 297.121094 243.847656 297.246094 246.015625 299.175781 248.71875 C 299.429688 249.078125 299.558594 249.519531 299.535156 249.957031 C 299.242188 255.167969 302.316406 260.890625 308.933594 267.453125 C 309.152344 267.671875 309.316406 267.945312 309.414062 268.238281 C 312.722656 278.554688 314.40625 284.710938 315.210938 289.480469 C 315.292969 289.972656 315.183594 290.472656 314.90625 290.886719 C 312.972656 293.761719 309.90625 295.550781 305.785156 296.210938 C 305.257812 296.296875 304.714844 296.15625 304.296875 295.835938 C 302.492188 294.453125 300.589844 292.925781 298.363281 291.136719 C 296.070312 289.300781 293.46875 287.21875 290.53125 284.9375 C 290.234375 284.703125 290.007812 284.394531 289.886719 284.035156 C 288.589844 280.25 287.613281 277.003906 286.75 274.140625 C 285.246094 269.132812 284.15625 265.507812 282.636719 263.53125 C 282.375 263.1875 282.234375 262.757812 282.238281 262.328125 C 282.246094 261.5625 282.214844 260.90625 282.152344 260.375 C 282.089844 259.84375 281.816406 259.363281 281.394531 259.03125 C 280.976562 258.703125 280.441406 258.554688 279.910156 258.621094 C 279.042969 258.726562 277.929688 259.007812 276.601562 259.460938 C 276.332031 259.554688 276.046875 259.585938 275.761719 259.554688 C 274.40625 259.402344 273.148438 259.324219 272.019531 259.324219 C 269.382812 259.324219 267.359375 259.71875 265.648438 260.5625 C 265.070312 260.847656 264.355469 260.824219 263.800781 260.496094 C 261.308594 259.03125 259.640625 258.234375 256.894531 257.683594 C 256.492188 257.601562 256.136719 257.402344 255.859375 257.101562 C 254.019531 255.136719 251.179688 254.839844 249.652344 254.839844 C 248.03125 254.839844 246.363281 255.144531 244.820312 255.714844 C 244.640625 255.78125 244.453125 255.824219 244.261719 255.832031 C 241.386719 256.011719 239.089844 256.835938 238.109375 258.046875 C 237.664062 258.609375 237.511719 259.230469 237.632812 260.015625 C 238.171875 263.535156 234.1875 267.535156 232.953125 268.675781 C 232.6875 268.921875 232.363281 269.085938 232.011719 269.15625 C 230.78125 269.402344 229.566406 269.523438 228.398438 269.523438 C 225.832031 269.523438 223.511719 268.9375 221.5 267.777344 C 221.3125 267.667969 221.144531 267.53125 221.003906 267.367188 C 219.039062 265.113281 215.527344 263.65625 212.054688 263.65625 C 211.53125 263.65625 211.023438 263.695312 210.554688 263.761719 C 210.394531 263.789062 210.238281 263.792969 210.074219 263.773438 C 209.277344 263.699219 208.5 263.660156 207.773438 263.660156 C 205.910156 263.660156 201.550781 263.941406 201.234375 266.550781 C 201.179688 267.003906 200.964844 267.425781 200.632812 267.738281 C 199.640625 268.664062 198.679688 269.441406 197.828125 270.128906 C 196.390625 271.289062 195.148438 272.292969 194.15625 273.667969 C 193.867188 274.0625 193.449219 274.335938 192.972656 274.433594 C 189.976562 275.054688 188.464844 276.738281 187.917969 280.054688 C 187.851562 280.449219 187.671875 280.808594 187.390625 281.09375 C 184.164062 284.410156 182.707031 286.195312 183.308594 288.246094 C 183.460938 288.765625 183.390625 289.324219 183.113281 289.789062 C 183.058594 289.878906 183 289.964844 182.929688 290.046875 C 182.273438 290.824219 182.304688 291.96875 182.996094 292.714844 C 183.09375 292.820312 183.195312 292.925781 183.308594 293.042969 C 183.40625 293.144531 183.492188 293.257812 183.566406 293.378906 C 183.917969 293.957031 184.007812 294.605469 183.824219 295.253906 C 183.449219 296.585938 182.175781 297.292969 179.753906 298.539062 C 179.320312 298.761719 178.867188 298.996094 178.410156 299.242188 C 177.867188 299.53125 177.1875 299.546875 176.636719 299.277344 C 173.191406 297.59375 169.605469 296.128906 166.710938 294.949219 L 166.457031 294.84375 C 165.871094 294.605469 165.308594 294.378906 164.785156 294.15625 C 163.996094 293.832031 163.507812 293.011719 163.59375 292.164062 C 163.820312 289.949219 163.261719 289.023438 161.195312 288.207031 C 160.324219 287.863281 159.824219 286.945312 160 286.03125 C 160.332031 284.320312 160.152344 282.386719 156.644531 279.789062 C 156.078125 279.371094 155.78125 278.675781 155.871094 277.976562 C 156.132812 275.972656 154.925781 273.863281 152.285156 271.699219 C 151.917969 271.402344 151.671875 270.980469 151.597656 270.511719 C 151.289062 268.640625 149.859375 266.820312 147.472656 265.25 C 147.277344 265.121094 147.109375 264.960938 146.972656 264.777344 C 145.789062 263.167969 144.40625 262.246094 143.179688 262.246094 C 142.320312 262.246094 141.445312 262.691406 140.582031 263.566406 C 140.574219 263.574219 140.5625 263.585938 140.554688 263.59375 C 138.113281 266.175781 135.855469 267.429688 133.652344 267.429688 C 131.375 267.429688 129.40625 266.136719 127.632812 263.476562 C 126.371094 261.582031 125.34375 259.230469 124.347656 256.953125 C 123.515625 255.058594 122.65625 253.09375 121.808594 251.820312 C 121.785156 251.785156 121.761719 251.75 121.734375 251.714844 C 119.882812 249.28125 115.820312 246.359375 111.390625 244.265625 C 111.355469 244.25 111.320312 244.234375 111.285156 244.21875 C 109.128906 243.351562 107.164062 242.746094 105.75 242.511719 C 105.054688 242.398438 104.351562 242.65625 103.894531 243.1875 C 102.75 244.527344 101.378906 245.628906 99.710938 246.554688 C 99.332031 246.765625 98.882812 246.839844 98.457031 246.773438 C 97.425781 246.605469 96.640625 246.523438 96.0625 246.523438 L 96.003906 246.523438 C 95.6875 246.523438 95.375 246.597656 95.09375 246.742188 C 94.640625 246.972656 94.101562 247.019531 93.605469 246.855469 C 92.183594 246.394531 90.378906 245.863281 89.089844 245.863281 C 89.0625 245.863281 89.003906 245.863281 88.976562 245.863281 C 88.523438 245.882812 88.085938 246.054688 87.742188 246.355469 C 87.097656 246.914062 86.085938 246.976562 85.371094 246.484375 C 80.105469 242.855469 76.519531 241.605469 71.15625 241.519531 C 70.59375 241.507812 70.0625 241.253906 69.699219 240.820312 C 66.929688 237.507812 61.804688 235.328125 54.429688 232.875 C 53.585938 232.59375 53.039062 231.777344 53.101562 230.894531 C 53.140625 230.332031 52.945312 229.785156 52.566406 229.375 C 52.128906 228.90625 51.046875 227.984375 48.707031 227.046875 C 48.441406 226.941406 48.195312 226.769531 48 226.558594 C 47.878906 226.429688 47.746094 226.3125 47.597656 226.21875 C 47.285156 226.019531 46.355469 225.523438 44.507812 225.214844 C 44.492188 225.214844 44.480469 225.210938 44.46875 225.207031 C 44.050781 225.148438 43.589844 225.117188 43.089844 225.117188 C 42.097656 225.117188 40.464844 225.246094 38.3125 225.855469 C 37.703125 226.027344 37.023438 225.882812 36.535156 225.480469 C 36.042969 225.066406 35.785156 224.441406 35.847656 223.800781 C 36.117188 220.972656 35.859375 218.492188 35.0625 216.230469 C 34.394531 214.339844 33.351562 212.621094 31.863281 210.960938 C 28.832031 207.644531 24.976562 205.226562 19.734375 203.355469 C 19.246094 203.179688 18.839844 202.8125 18.621094 202.339844 C 18.40625 201.867188 18.386719 201.320312 18.570312 200.835938 C 19.4375 198.546875 18.613281 194.429688 16.046875 188.25 C 16.007812 188.164062 15.980469 188.074219 15.957031 187.988281 C 13.996094 180.355469 11.433594 172.839844 8.539062 166.253906 C 8.433594 166.015625 8.378906 165.761719 8.375 165.503906 C 8.332031 162.765625 8.246094 160.128906 8.164062 157.558594 C 7.996094 152.34375 7.835938 147.417969 8.09375 142.964844 Z M 4.351562 165.566406 C 4.363281 166.363281 4.53125 167.140625 4.851562 167.871094 C 7.660156 174.265625 10.152344 181.566406 12.058594 188.984375 C 12.125 189.257812 12.214844 189.527344 12.324219 189.792969 C 15.492188 197.414062 14.835938 199.328125 14.808594 199.40625 C 14.242188 200.894531 14.300781 202.578125 14.96875 204.027344 C 15.636719 205.472656 16.878906 206.609375 18.378906 207.144531 C 22.980469 208.789062 26.320312 210.863281 28.878906 213.664062 C 29.996094 214.90625 30.777344 216.183594 31.265625 217.570312 C 31.863281 219.269531 32.054688 221.183594 31.839844 223.417969 C 31.652344 225.378906 32.445312 227.308594 33.960938 228.570312 C 35.453125 229.816406 37.535156 230.261719 39.410156 229.730469 C 41.117188 229.246094 42.351562 229.144531 43.089844 229.144531 C 43.386719 229.144531 43.644531 229.160156 43.867188 229.1875 C 44.597656 229.3125 45.085938 229.472656 45.308594 229.5625 C 45.855469 230.082031 46.507812 230.503906 47.210938 230.785156 C 48.136719 231.15625 48.738281 231.492188 49.109375 231.734375 C 49.378906 234 50.929688 235.953125 53.160156 236.695312 C 59.675781 238.859375 64.460938 240.832031 66.609375 243.402344 C 67.722656 244.734375 69.359375 245.515625 71.09375 245.542969 C 75.65625 245.617188 78.460938 246.609375 83.085938 249.800781 C 84.085938 250.488281 85.257812 250.851562 86.472656 250.851562 C 87.597656 250.851562 88.695312 250.535156 89.636719 249.945312 C 90.136719 250.03125 90.972656 250.234375 92.363281 250.6875 C 93.671875 251.109375 95.121094 251.066406 96.398438 250.5625 C 96.683594 250.585938 97.128906 250.632812 97.808594 250.746094 C 99.117188 250.957031 100.5 250.71875 101.660156 250.074219 C 103.375 249.125 104.847656 248.015625 106.128906 246.710938 C 106.921875 246.917969 108.109375 247.285156 109.726562 247.933594 C 113.441406 249.695312 117.027344 252.21875 118.492188 254.105469 C 119.140625 255.101562 119.945312 256.941406 120.660156 258.570312 C 121.722656 261.003906 122.824219 263.523438 124.28125 265.710938 C 127.449219 270.457031 131.125 271.453125 133.652344 271.453125 C 136.941406 271.453125 140.085938 269.863281 143.253906 266.597656 C 143.390625 266.738281 143.554688 266.921875 143.730469 267.164062 C 144.152344 267.734375 144.664062 268.21875 145.257812 268.613281 C 146.867188 269.671875 147.539062 270.652344 147.625 271.171875 C 147.863281 272.601562 148.609375 273.898438 149.734375 274.816406 C 151.390625 276.167969 151.902344 277.195312 151.878906 277.457031 C 151.601562 279.605469 152.507812 281.738281 154.25 283.027344 C 156.203125 284.46875 156.101562 284.988281 156.046875 285.261719 C 155.511719 288.03125 156.992188 290.796875 159.578125 291.894531 C 159.375 294.449219 160.867188 296.894531 163.242188 297.878906 C 163.777344 298.097656 164.339844 298.332031 164.933594 298.570312 L 165.199219 298.679688 C 168.027344 299.835938 171.546875 301.269531 174.871094 302.894531 C 175.679688 303.289062 176.585938 303.5 177.488281 303.5 C 178.472656 303.5 179.449219 303.253906 180.3125 302.789062 C 180.75 302.554688 181.183594 302.332031 181.613281 302.109375 C 184.296875 300.730469 186.832031 299.425781 187.699219 296.347656 C 188.183594 294.621094 187.9375 292.824219 187.007812 291.289062 C 186.980469 291.246094 186.953125 291.199219 186.925781 291.160156 C 187.433594 289.980469 187.550781 288.65625 187.25 287.402344 C 187.460938 286.992188 188.1875 286.050781 190.277344 283.90625 C 191.132812 283.027344 191.691406 281.921875 191.890625 280.710938 C 192.222656 278.703125 192.78125 278.585938 193.792969 278.375 C 195.253906 278.070312 196.539062 277.238281 197.417969 276.027344 C 198.097656 275.085938 199.042969 274.320312 200.359375 273.257812 C 201.261719 272.53125 202.28125 271.707031 203.382812 270.679688 C 204.164062 269.949219 204.730469 269.019531 205.03125 268.003906 C 205.484375 267.863281 206.347656 267.683594 207.773438 267.683594 C 208.371094 267.683594 209.015625 267.71875 209.679688 267.78125 C 210.167969 267.828125 210.660156 267.816406 211.144531 267.746094 C 211.421875 267.703125 211.726562 267.683594 212.054688 267.683594 C 214.339844 267.683594 216.773438 268.640625 217.96875 270.015625 C 218.402344 270.511719 218.914062 270.933594 219.488281 271.265625 C 222.121094 272.78125 225.117188 273.550781 228.398438 273.550781 C 229.828125 273.550781 231.308594 273.402344 232.796875 273.105469 C 233.878906 272.890625 234.878906 272.378906 235.6875 271.632812 C 238.074219 269.421875 241.867188 265.144531 241.703125 260.394531 C 242.210938 260.191406 243.101562 259.9375 244.511719 259.855469 C 245.097656 259.816406 245.671875 259.695312 246.222656 259.492188 C 247.320312 259.082031 248.507812 258.867188 249.652344 258.867188 C 251.121094 258.867188 252.339844 259.234375 252.914062 259.851562 C 253.769531 260.765625 254.871094 261.382812 256.097656 261.628906 C 258.308594 262.074219 259.578125 262.683594 261.757812 263.964844 C 263.460938 264.96875 265.664062 265.046875 267.429688 264.175781 C 268.566406 263.613281 270.023438 263.351562 272.019531 263.351562 C 273 263.351562 274.109375 263.417969 275.3125 263.554688 C 276.1875 263.652344 277.066406 263.554688 277.894531 263.273438 C 278.023438 263.230469 278.148438 263.191406 278.265625 263.152344 C 278.40625 264.175781 278.8125 265.15625 279.445312 265.980469 C 280.511719 267.375 281.617188 271.050781 282.898438 275.304688 C 283.765625 278.199219 284.753906 281.484375 286.078125 285.339844 C 286.457031 286.441406 287.144531 287.402344 288.066406 288.117188 C 290.976562 290.378906 293.5625 292.449219 295.867188 294.300781 C 298.089844 296.082031 300.007812 297.621094 301.84375 299.027344 C 303.128906 300.015625 304.8125 300.445312 306.421875 300.1875 C 311.6875 299.34375 315.664062 296.972656 318.246094 293.132812 C 319.101562 291.859375 319.433594 290.324219 319.179688 288.808594 C 318.339844 283.835938 316.621094 277.519531 313.246094 267.007812 C 312.953125 266.101562 312.441406 265.265625 311.765625 264.597656 C 306.015625 258.890625 303.328125 254.175781 303.554688 250.183594 C 303.628906 248.832031 303.238281 247.484375 302.453125 246.378906 C 301.472656 245.011719 301.332031 244.453125 302.304688 242.542969 C 302.628906 241.90625 302.832031 241.226562 302.917969 240.519531 C 302.964844 240.09375 303.488281 238.929688 303.835938 238.15625 C 304.277344 237.175781 304.734375 236.15625 305.109375 235.011719 C 305.554688 233.753906 305.972656 233.097656 306.125 232.886719 C 306.703125 232.425781 307.1875 231.863281 307.5625 231.222656 C 309.507812 227.882812 310.605469 227.113281 310.988281 226.9375 C 312.023438 226.457031 312.898438 225.695312 313.515625 224.734375 C 317.140625 219.066406 321.402344 214.394531 326.546875 210.449219 C 327.621094 209.625 328.390625 208.445312 328.710938 207.128906 C 329.558594 203.660156 331 200.476562 332.273438 197.660156 C 332.664062 196.792969 333.070312 195.898438 333.441406 195.027344 C 334.257812 193.101562 333.996094 190.851562 332.753906 189.164062 C 330.917969 186.664062 329.351562 184.472656 328.164062 182.25 C 329.925781 181.492188 331.890625 179.78125 332.925781 176.003906 C 333.046875 175.570312 333.117188 175.121094 333.132812 174.667969 C 333.203125 172.992188 333.339844 171.597656 333.46875 170.242188 C 333.558594 169.304688 333.652344 168.335938 333.714844 167.339844 C 333.714844 167.324219 333.714844 167.289062 333.714844 167.273438 L 333.71875 167.199219 C 333.8125 164.808594 333.695312 162.4375 333.484375 158.878906 C 333.621094 158.828125 333.804688 158.769531 334.046875 158.699219 C 334.996094 158.425781 336.21875 158.234375 337.402344 158.046875 C 339.300781 157.742188 341.097656 157.460938 342.773438 156.769531 C 342.851562 156.738281 342.929688 156.703125 343.007812 156.667969 C 346.164062 155.214844 347.058594 153 347.246094 151.394531 C 353.210938 148.890625 354.445312 145.359375 354.390625 142.757812 C 354.367188 141.636719 353.9375 138.074219 349.679688 136.019531 C 350.210938 132.542969 351.464844 129.5 351.980469 128.355469 C 352.265625 127.71875 352.433594 127.046875 352.484375 126.355469 C 352.492188 126.257812 352.5 126.164062 352.507812 126.082031 C 353.980469 125.539062 355.195312 124.421875 355.863281 122.996094 C 356.507812 122.515625 357.902344 121.636719 358.875 121.023438 C 359.402344 120.691406 359.972656 120.332031 360.585938 119.9375 C 361.316406 119.472656 361.945312 118.839844 362.410156 118.113281 C 363.195312 116.878906 363.511719 116.796875 364.28125 116.597656 C 369.074219 115.359375 371.1875 111.679688 369.933594 106.75 C 369.933594 106.75 369.933594 106.75 369.933594 106.746094 C 369.808594 106.265625 369.625 105.804688 369.390625 105.367188 C 367.824219 102.496094 365.371094 100.703125 362.414062 100.25 C 362.039062 99.867188 361.613281 99.53125 361.152344 99.261719 C 360.988281 99.136719 359.421875 97.804688 355.777344 90.660156 C 355.292969 89.714844 354.566406 88.914062 353.671875 88.34375 L 353.3125 88.113281 C 350.226562 86.140625 347.03125 84.097656 343.355469 84.097656 C 340.835938 84.097656 338.558594 85.058594 336.777344 86.871094 C 336.160156 87.5 335.679688 88.269531 335.390625 89.101562 C 335.019531 90.179688 334.667969 91.289062 334.359375 92.265625 C 333.289062 95.65625 332.28125 98.859375 330.347656 101.378906 C 329.523438 102.457031 329.085938 103.796875 329.121094 105.152344 C 329.214844 109.089844 327.566406 110.441406 326.246094 111.09375 C 313.277344 114.511719 307.496094 118.441406 305.652344 125.09375 C 305.554688 125.445312 305.46875 125.792969 305.390625 126.132812 C 305.347656 126.300781 305.316406 126.425781 305.292969 126.53125 C 304.765625 126.796875 303.359375 127.359375 300.027344 127.941406 C 292.050781 129.328125 288.050781 130.023438 286.640625 134.332031 C 286.011719 136.261719 286.277344 138.128906 287.4375 139.910156 C 286.964844 140.347656 286.296875 140.90625 285.363281 141.59375 L 284.167969 142.476562 C 282.636719 143.601562 281.007812 144.800781 279.453125 145.914062 C 279.570312 145.554688 279.691406 145.191406 279.8125 144.820312 C 281.308594 140.335938 281.730469 133.234375 275.261719 124.863281 C 270.601562 118.839844 263.859375 114.0625 259.007812 111.105469 C 251.738281 106.753906 244.875 103.867188 240.402344 102.210938 C 240.246094 102.15625 240.09375 102.105469 239.9375 102.0625 C 236.589844 101.121094 231.847656 100.003906 228.285156 100.003906 C 226.96875 100.003906 225.84375 100.152344 224.839844 100.453125 C 224.582031 100.53125 224.328125 100.625 224.082031 100.738281 C 223.90625 100.753906 223.613281 100.769531 223.175781 100.769531 C 221.878906 100.769531 220.101562 100.625 217.894531 100.339844 C 217.679688 100.3125 217.464844 100.296875 217.253906 100.292969 C 212.15625 100.183594 205.394531 99.433594 198.214844 98.175781 C 198.019531 98.140625 197.824219 98.117188 197.628906 98.101562 C 188.84375 97.453125 179.820312 96.160156 170.816406 94.261719 C 170.5625 94.207031 170.300781 94.167969 170.035156 94.148438 C 160.609375 93.441406 150.410156 91.960938 139.722656 89.75 C 139.523438 89.710938 139.324219 89.679688 139.125 89.660156 C 127.6875 88.46875 117.769531 86.742188 108.808594 84.375 C 108.445312 84.28125 108.074219 84.21875 107.699219 84.191406 C 97.339844 83.472656 88.796875 81.8125 82.984375 79.394531 C 82.277344 79.097656 81.527344 78.945312 80.761719 78.933594 C 72.3125 78.835938 65.558594 77.75 58.863281 75.425781 C 58.234375 75.203125 57.574219 75.089844 56.902344 75.089844 L 56.570312 75.09375 C 53.183594 75.09375 50.410156 74.351562 49.375 73.851562 C 49.195312 73.765625 49.007812 73.6875 48.816406 73.617188 C 45.625 72.464844 43.164062 71.925781 41.078125 71.925781 C 37.910156 71.925781 35.300781 73.175781 33.535156 75.542969 C 33.25 75.929688 33.007812 76.351562 32.820312 76.796875 C 32.03125 75.816406 31.382812 74.800781 31.167969 74.433594 C 30.105469 72.59375 28.121094 71.449219 25.996094 71.449219 C 25.160156 71.449219 24.347656 71.621094 23.585938 71.960938 C 20.785156 73.195312 19.378906 76.328125 20.3125 79.242188 C 20.386719 79.480469 20.480469 79.710938 20.585938 79.9375 C 20.65625 80.089844 20.734375 80.242188 20.824219 80.394531 C 21.503906 81.585938 21.890625 84.417969 21.21875 88.074219 C 21.171875 88.328125 21.140625 88.59375 21.128906 88.863281 C 20.851562 94.511719 19.453125 99.441406 17.074219 103.121094 C 16.503906 104.003906 16.175781 105.03125 16.128906 106.085938 C 15.835938 112.484375 14.003906 118.148438 10.53125 123.398438 C 9.929688 124.308594 9.589844 125.367188 9.546875 126.453125 C 9.351562 131.3125 7.808594 135.96875 5.199219 139.574219 C 4.53125 140.5 4.140625 141.589844 4.074219 142.730469 C 3.804688 147.367188 3.96875 152.382812 4.140625 157.703125 C 4.222656 160.242188 4.308594 162.863281 4.351562 165.566406 " fill-opacity="1" fill-rule="nonzero"/></g><g fill="#ffffff" fill-opacity="1"><g transform="translate(212.782798, 103.336028)"><g><path d="M 1.171875 0 L 0.921875 0 L 0.828125 -0.28125 L 0.359375 -0.28125 L 0.265625 0 L 0.015625 0 L 0.4375 -1.234375 L 0.75 -1.234375 Z M 0.578125 -0.96875 L 0.421875 -0.484375 L 0.765625 -0.484375 L 0.609375 -0.96875 Z M 0.578125 -0.96875 "/></g></g><g transform="translate(213.976211, 103.336028)"><g><path d="M 0.453125 0.015625 C 0.378906 0.015625 0.3125 0 0.25 -0.03125 C 0.195312 -0.0703125 0.15625 -0.125 0.125 -0.1875 C 0.09375 -0.257812 0.078125 -0.351562 0.078125 -0.46875 C 0.078125 -0.570312 0.09375 -0.660156 0.125 -0.734375 C 0.164062 -0.804688 0.210938 -0.859375 0.265625 -0.890625 C 0.328125 -0.921875 0.394531 -0.9375 0.46875 -0.9375 C 0.53125 -0.9375 0.582031 -0.925781 0.625 -0.90625 C 0.664062 -0.894531 0.695312 -0.867188 0.71875 -0.828125 L 0.75 -0.828125 L 0.75 -1.296875 L 0.96875 -1.296875 L 0.96875 0 L 0.75 0 L 0.75 -0.125 L 0.71875 -0.125 C 0.695312 -0.0820312 0.660156 -0.046875 0.609375 -0.015625 C 0.566406 0.00390625 0.515625 0.015625 0.453125 0.015625 Z M 0.53125 -0.171875 C 0.59375 -0.171875 0.644531 -0.191406 0.6875 -0.234375 C 0.726562 -0.285156 0.75 -0.363281 0.75 -0.46875 C 0.75 -0.5625 0.726562 -0.628906 0.6875 -0.671875 C 0.644531 -0.722656 0.59375 -0.75 0.53125 -0.75 C 0.46875 -0.75 0.414062 -0.722656 0.375 -0.671875 C 0.34375 -0.628906 0.328125 -0.5625 0.328125 -0.46875 C 0.328125 -0.363281 0.34375 -0.285156 0.375 -0.234375 C 0.414062 -0.191406 0.46875 -0.171875 0.53125 -0.171875 Z M 0.53125 -0.171875 "/></g></g><g transform="translate(215.083363, 103.336028)"><g><path d="M 0.453125 0.015625 C 0.378906 0.015625 0.3125 0 0.25 -0.03125 C 0.195312 -0.0703125 0.15625 -0.125 0.125 -0.1875 C 0.09375 -0.257812 0.078125 -0.351562 0.078125 -0.46875 C 0.078125 -0.570312 0.09375 -0.660156 0.125 -0.734375 C 0.164062 -0.804688 0.210938 -0.859375 0.265625 -0.890625 C 0.328125 -0.921875 0.394531 -0.9375 0.46875 -0.9375 C 0.53125 -0.9375 0.582031 -0.925781 0.625 -0.90625 C 0.664062 -0.894531 0.695312 -0.867188 0.71875 -0.828125 L 0.75 -0.828125 L 0.75 -1.296875 L 0.96875 -1.296875 L 0.96875 0 L 0.75 0 L 0.75 -0.125 L 0.71875 -0.125 C 0.695312 -0.0820312 0.660156 -0.046875 0.609375 -0.015625 C 0.566406 0.00390625 0.515625 0.015625 0.453125 0.015625 Z M 0.53125 -0.171875 C 0.59375 -0.171875 0.644531 -0.191406 0.6875 -0.234375 C 0.726562 -0.285156 0.75 -0.363281 0.75 -0.46875 C 0.75 -0.5625 0.726562 -0.628906 0.6875 -0.671875 C 0.644531 -0.722656 0.59375 -0.75 0.53125 -0.75 C 0.46875 -0.75 0.414062 -0.722656 0.375 -0.671875 C 0.34375 -0.628906 0.328125 -0.5625 0.328125 -0.46875 C 0.328125 -0.363281 0.34375 -0.285156 0.375 -0.234375 C 0.414062 -0.191406 0.46875 -0.171875 0.53125 -0.171875 Z M 0.53125 -0.171875 "/></g></g><g transform="translate(216.190515, 103.336028)"><g/></g><g transform="translate(216.59502, 103.336028)"><g><path d="M 0.359375 0.015625 C 0.296875 0.015625 0.242188 0.00390625 0.203125 -0.015625 C 0.160156 -0.0351562 0.128906 -0.0664062 0.109375 -0.109375 C 0.0859375 -0.148438 0.078125 -0.203125 0.078125 -0.265625 C 0.078125 -0.316406 0.0859375 -0.359375 0.109375 -0.390625 C 0.128906 -0.429688 0.160156 -0.460938 0.203125 -0.484375 C 0.253906 -0.515625 0.320312 -0.535156 0.40625 -0.546875 C 0.457031 -0.554688 0.5 -0.566406 0.53125 -0.578125 C 0.5625 -0.585938 0.582031 -0.597656 0.59375 -0.609375 C 0.601562 -0.628906 0.609375 -0.648438 0.609375 -0.671875 C 0.609375 -0.691406 0.597656 -0.707031 0.578125 -0.71875 C 0.554688 -0.738281 0.519531 -0.75 0.46875 -0.75 C 0.414062 -0.75 0.363281 -0.738281 0.3125 -0.71875 C 0.269531 -0.695312 0.234375 -0.664062 0.203125 -0.625 L 0.1875 -0.625 L 0.09375 -0.78125 C 0.132812 -0.832031 0.1875 -0.867188 0.25 -0.890625 C 0.320312 -0.921875 0.398438 -0.9375 0.484375 -0.9375 C 0.609375 -0.9375 0.695312 -0.910156 0.75 -0.859375 C 0.800781 -0.804688 0.828125 -0.734375 0.828125 -0.640625 L 0.828125 -0.234375 C 0.828125 -0.191406 0.847656 -0.171875 0.890625 -0.171875 C 0.898438 -0.171875 0.910156 -0.175781 0.921875 -0.1875 L 0.9375 -0.1875 L 0.953125 -0.015625 C 0.941406 -0.015625 0.925781 -0.0078125 0.90625 0 C 0.882812 0 0.859375 0 0.828125 0 C 0.773438 0 0.734375 -0.0078125 0.703125 -0.03125 C 0.671875 -0.0507812 0.644531 -0.0820312 0.625 -0.125 L 0.609375 -0.125 C 0.566406 -0.03125 0.484375 0.015625 0.359375 0.015625 Z M 0.4375 -0.15625 C 0.488281 -0.15625 0.53125 -0.171875 0.5625 -0.203125 C 0.59375 -0.242188 0.609375 -0.296875 0.609375 -0.359375 L 0.609375 -0.453125 L 0.59375 -0.453125 C 0.582031 -0.441406 0.5625 -0.429688 0.53125 -0.421875 C 0.507812 -0.421875 0.476562 -0.414062 0.4375 -0.40625 C 0.394531 -0.394531 0.359375 -0.378906 0.328125 -0.359375 C 0.304688 -0.335938 0.296875 -0.3125 0.296875 -0.28125 C 0.296875 -0.238281 0.304688 -0.207031 0.328125 -0.1875 C 0.359375 -0.164062 0.394531 -0.15625 0.4375 -0.15625 Z M 0.4375 -0.15625 "/></g></g><g transform="translate(217.569012, 103.336028)"><g/></g><g transform="translate(217.973516, 103.336028)"><g><path d="M 0.140625 0 L 0.140625 -1.296875 L 0.359375 -1.296875 L 0.359375 -0.8125 L 0.390625 -0.796875 C 0.421875 -0.847656 0.457031 -0.882812 0.5 -0.90625 C 0.539062 -0.925781 0.59375 -0.9375 0.65625 -0.9375 C 0.863281 -0.9375 0.96875 -0.820312 0.96875 -0.59375 L 0.96875 0 L 0.734375 0 L 0.734375 -0.5625 C 0.734375 -0.625 0.71875 -0.671875 0.6875 -0.703125 C 0.664062 -0.734375 0.628906 -0.75 0.578125 -0.75 C 0.515625 -0.75 0.460938 -0.722656 0.421875 -0.671875 C 0.378906 -0.628906 0.359375 -0.566406 0.359375 -0.484375 L 0.359375 0 Z M 0.140625 0 "/></g></g><g transform="translate(219.055544, 103.336028)"><g><path d="M 0.921875 -0.40625 L 0.3125 -0.40625 C 0.320312 -0.332031 0.347656 -0.273438 0.390625 -0.234375 C 0.429688 -0.191406 0.484375 -0.171875 0.546875 -0.171875 C 0.597656 -0.171875 0.640625 -0.179688 0.671875 -0.203125 C 0.710938 -0.222656 0.742188 -0.253906 0.765625 -0.296875 L 0.78125 -0.296875 L 0.9375 -0.203125 C 0.90625 -0.140625 0.859375 -0.0859375 0.796875 -0.046875 C 0.734375 -0.00390625 0.648438 0.015625 0.546875 0.015625 C 0.453125 0.015625 0.367188 0 0.296875 -0.03125 C 0.234375 -0.0703125 0.179688 -0.128906 0.140625 -0.203125 C 0.0976562 -0.273438 0.078125 -0.363281 0.078125 -0.46875 C 0.078125 -0.570312 0.0976562 -0.660156 0.140625 -0.734375 C 0.179688 -0.804688 0.234375 -0.859375 0.296875 -0.890625 C 0.367188 -0.921875 0.445312 -0.9375 0.53125 -0.9375 C 0.664062 -0.9375 0.765625 -0.898438 0.828125 -0.828125 C 0.898438 -0.765625 0.9375 -0.664062 0.9375 -0.53125 C 0.9375 -0.476562 0.9375 -0.441406 0.9375 -0.421875 Z M 0.71875 -0.5625 C 0.71875 -0.632812 0.703125 -0.6875 0.671875 -0.71875 C 0.640625 -0.75 0.59375 -0.765625 0.53125 -0.765625 C 0.414062 -0.765625 0.347656 -0.695312 0.328125 -0.5625 Z M 0.71875 -0.5625 "/></g></g><g transform="translate(220.059686, 103.336028)"><g><path d="M 0.359375 0.015625 C 0.296875 0.015625 0.242188 0.00390625 0.203125 -0.015625 C 0.160156 -0.0351562 0.128906 -0.0664062 0.109375 -0.109375 C 0.0859375 -0.148438 0.078125 -0.203125 0.078125 -0.265625 C 0.078125 -0.316406 0.0859375 -0.359375 0.109375 -0.390625 C 0.128906 -0.429688 0.160156 -0.460938 0.203125 -0.484375 C 0.253906 -0.515625 0.320312 -0.535156 0.40625 -0.546875 C 0.457031 -0.554688 0.5 -0.566406 0.53125 -0.578125 C 0.5625 -0.585938 0.582031 -0.597656 0.59375 -0.609375 C 0.601562 -0.628906 0.609375 -0.648438 0.609375 -0.671875 C 0.609375 -0.691406 0.597656 -0.707031 0.578125 -0.71875 C 0.554688 -0.738281 0.519531 -0.75 0.46875 -0.75 C 0.414062 -0.75 0.363281 -0.738281 0.3125 -0.71875 C 0.269531 -0.695312 0.234375 -0.664062 0.203125 -0.625 L 0.1875 -0.625 L 0.09375 -0.78125 C 0.132812 -0.832031 0.1875 -0.867188 0.25 -0.890625 C 0.320312 -0.921875 0.398438 -0.9375 0.484375 -0.9375 C 0.609375 -0.9375 0.695312 -0.910156 0.75 -0.859375 C 0.800781 -0.804688 0.828125 -0.734375 0.828125 -0.640625 L 0.828125 -0.234375 C 0.828125 -0.191406 0.847656 -0.171875 0.890625 -0.171875 C 0.898438 -0.171875 0.910156 -0.175781 0.921875 -0.1875 L 0.9375 -0.1875 L 0.953125 -0.015625 C 0.941406 -0.015625 0.925781 -0.0078125 0.90625 0 C 0.882812 0 0.859375 0 0.828125 0 C 0.773438 0 0.734375 -0.0078125 0.703125 -0.03125 C 0.671875 -0.0507812 0.644531 -0.0820312 0.625 -0.125 L 0.609375 -0.125 C 0.566406 -0.03125 0.484375 0.015625 0.359375 0.015625 Z M 0.4375 -0.15625 C 0.488281 -0.15625 0.53125 -0.171875 0.5625 -0.203125 C 0.59375 -0.242188 0.609375 -0.296875 0.609375 -0.359375 L 0.609375 -0.453125 L 0.59375 -0.453125 C 0.582031 -0.441406 0.5625 -0.429688 0.53125 -0.421875 C 0.507812 -0.421875 0.476562 -0.414062 0.4375 -0.40625 C 0.394531 -0.394531 0.359375 -0.378906 0.328125 -0.359375 C 0.304688 -0.335938 0.296875 -0.3125 0.296875 -0.28125 C 0.296875 -0.238281 0.304688 -0.207031 0.328125 -0.1875 C 0.359375 -0.164062 0.394531 -0.15625 0.4375 -0.15625 Z M 0.4375 -0.15625 "/></g></g><g transform="translate(221.033678, 103.336028)"><g><path d="M 0.453125 0.015625 C 0.378906 0.015625 0.3125 0 0.25 -0.03125 C 0.195312 -0.0703125 0.15625 -0.125 0.125 -0.1875 C 0.09375 -0.257812 0.078125 -0.351562 0.078125 -0.46875 C 0.078125 -0.570312 0.09375 -0.660156 0.125 -0.734375 C 0.164062 -0.804688 0.210938 -0.859375 0.265625 -0.890625 C 0.328125 -0.921875 0.394531 -0.9375 0.46875 -0.9375 C 0.53125 -0.9375 0.582031 -0.925781 0.625 -0.90625 C 0.664062 -0.894531 0.695312 -0.867188 0.71875 -0.828125 L 0.75 -0.828125 L 0.75 -1.296875 L 0.96875 -1.296875 L 0.96875 0 L 0.75 0 L 0.75 -0.125 L 0.71875 -0.125 C 0.695312 -0.0820312 0.660156 -0.046875 0.609375 -0.015625 C 0.566406 0.00390625 0.515625 0.015625 0.453125 0.015625 Z M 0.53125 -0.171875 C 0.59375 -0.171875 0.644531 -0.191406 0.6875 -0.234375 C 0.726562 -0.285156 0.75 -0.363281 0.75 -0.46875 C 0.75 -0.5625 0.726562 -0.628906 0.6875 -0.671875 C 0.644531 -0.722656 0.59375 -0.75 0.53125 -0.75 C 0.46875 -0.75 0.414062 -0.722656 0.375 -0.671875 C 0.34375 -0.628906 0.328125 -0.5625 0.328125 -0.46875 C 0.328125 -0.363281 0.34375 -0.285156 0.375 -0.234375 C 0.414062 -0.191406 0.46875 -0.171875 0.53125 -0.171875 Z M 0.53125 -0.171875 "/></g></g><g transform="translate(222.140831, 103.336028)"><g><path d="M 0.25 -1.03125 C 0.207031 -1.03125 0.171875 -1.039062 0.140625 -1.0625 C 0.117188 -1.09375 0.109375 -1.128906 0.109375 -1.171875 C 0.109375 -1.210938 0.117188 -1.242188 0.140625 -1.265625 C 0.171875 -1.296875 0.207031 -1.3125 0.25 -1.3125 C 0.28125 -1.3125 0.304688 -1.304688 0.328125 -1.296875 C 0.347656 -1.285156 0.363281 -1.269531 0.375 -1.25 C 0.382812 -1.226562 0.390625 -1.203125 0.390625 -1.171875 C 0.390625 -1.148438 0.382812 -1.128906 0.375 -1.109375 C 0.363281 -1.085938 0.347656 -1.066406 0.328125 -1.046875 C 0.304688 -1.035156 0.28125 -1.03125 0.25 -1.03125 Z M 0.140625 0 L 0.140625 -0.921875 L 0.359375 -0.921875 L 0.359375 0 Z M 0.140625 0 "/></g></g><g transform="translate(222.638296, 103.336028)"><g><path d="M 0.140625 0 L 0.140625 -0.921875 L 0.359375 -0.921875 L 0.359375 -0.796875 L 0.375 -0.78125 C 0.425781 -0.882812 0.519531 -0.9375 0.65625 -0.9375 C 0.757812 -0.9375 0.835938 -0.90625 0.890625 -0.84375 C 0.941406 -0.789062 0.96875 -0.710938 0.96875 -0.609375 L 0.96875 0 L 0.734375 0 L 0.734375 -0.578125 C 0.734375 -0.640625 0.71875 -0.679688 0.6875 -0.703125 C 0.664062 -0.734375 0.628906 -0.75 0.578125 -0.75 C 0.515625 -0.75 0.460938 -0.726562 0.421875 -0.6875 C 0.378906 -0.644531 0.359375 -0.578125 0.359375 -0.484375 L 0.359375 0 Z M 0.140625 0 "/></g></g><g transform="translate(223.720323, 103.336028)"><g><path d="M 0.484375 0.390625 C 0.328125 0.390625 0.210938 0.367188 0.140625 0.328125 C 0.0664062 0.285156 0.03125 0.222656 0.03125 0.140625 C 0.03125 0.0859375 0.046875 0.046875 0.078125 0.015625 C 0.109375 -0.015625 0.15625 -0.0351562 0.21875 -0.046875 L 0.21875 -0.0625 C 0.1875 -0.0820312 0.160156 -0.101562 0.140625 -0.125 C 0.128906 -0.144531 0.125 -0.171875 0.125 -0.203125 C 0.125 -0.273438 0.171875 -0.328125 0.265625 -0.359375 L 0.265625 -0.375 C 0.222656 -0.40625 0.1875 -0.441406 0.15625 -0.484375 C 0.132812 -0.523438 0.125 -0.570312 0.125 -0.625 C 0.125 -0.6875 0.132812 -0.738281 0.15625 -0.78125 C 0.1875 -0.832031 0.226562 -0.867188 0.28125 -0.890625 C 0.34375 -0.921875 0.410156 -0.9375 0.484375 -0.9375 C 0.554688 -0.9375 0.617188 -0.925781 0.671875 -0.90625 C 0.691406 -0.945312 0.707031 -0.992188 0.71875 -1.046875 L 0.734375 -1.0625 L 0.90625 -1.015625 C 0.894531 -0.972656 0.878906 -0.9375 0.859375 -0.90625 C 0.835938 -0.875 0.804688 -0.847656 0.765625 -0.828125 L 0.765625 -0.8125 C 0.816406 -0.757812 0.84375 -0.691406 0.84375 -0.609375 C 0.84375 -0.554688 0.828125 -0.503906 0.796875 -0.453125 C 0.773438 -0.410156 0.734375 -0.375 0.671875 -0.34375 C 0.617188 -0.320312 0.554688 -0.3125 0.484375 -0.3125 L 0.453125 -0.3125 C 0.421875 -0.3125 0.40625 -0.3125 0.40625 -0.3125 C 0.382812 -0.3125 0.363281 -0.304688 0.34375 -0.296875 C 0.332031 -0.285156 0.328125 -0.269531 0.328125 -0.25 C 0.328125 -0.226562 0.332031 -0.210938 0.34375 -0.203125 C 0.363281 -0.191406 0.390625 -0.1875 0.421875 -0.1875 L 0.625 -0.1875 C 0.832031 -0.175781 0.9375 -0.0859375 0.9375 0.078125 C 0.9375 0.140625 0.921875 0.191406 0.890625 0.234375 C 0.859375 0.285156 0.804688 0.320312 0.734375 0.34375 C 0.671875 0.375 0.585938 0.390625 0.484375 0.390625 Z M 0.484375 -0.484375 C 0.523438 -0.484375 0.554688 -0.492188 0.578125 -0.515625 C 0.609375 -0.546875 0.625 -0.582031 0.625 -0.625 C 0.625 -0.675781 0.609375 -0.710938 0.578125 -0.734375 C 0.554688 -0.765625 0.523438 -0.78125 0.484375 -0.78125 C 0.441406 -0.78125 0.40625 -0.765625 0.375 -0.734375 C 0.351562 -0.710938 0.34375 -0.675781 0.34375 -0.625 C 0.34375 -0.582031 0.351562 -0.546875 0.375 -0.515625 C 0.40625 -0.492188 0.441406 -0.484375 0.484375 -0.484375 Z M 0.484375 0.21875 C 0.554688 0.21875 0.609375 0.207031 0.640625 0.1875 C 0.679688 0.164062 0.703125 0.140625 0.703125 0.109375 C 0.703125 0.078125 0.691406 0.0507812 0.671875 0.03125 C 0.660156 0.0195312 0.632812 0.015625 0.59375 0.015625 L 0.40625 0.015625 C 0.40625 0.015625 0.398438 0.0078125 0.390625 0 C 0.390625 0 0.382812 0 0.375 0 C 0.332031 0 0.300781 0.0078125 0.28125 0.03125 C 0.257812 0.0507812 0.25 0.0703125 0.25 0.09375 C 0.25 0.132812 0.269531 0.164062 0.3125 0.1875 C 0.351562 0.207031 0.410156 0.21875 0.484375 0.21875 Z M 0.484375 0.21875 "/></g></g></g></svg>