<svg xmlns="http://www.w3.org/2000/svg" xmlns:xlink="http://www.w3.org/1999/xlink" width="500" zoomAndPan="magnify" viewBox="0 0 375 374.999991" height="500" preserveAspectRatio="xMidYMid meet" version="1.0"><defs><clipPath id="353fa87a07"><path d="M 135.84375 255.851562 L 140.34375 255.851562 L 140.34375 262.601562 L 135.84375 262.601562 Z M 135.84375 255.851562 " clip-rule="nonzero"/></clipPath><clipPath id="6b52ba3caf"><path d="M 17.03125 17.03125 L 358 17.03125 L 358 358 L 17.03125 358 Z M 17.03125 17.03125 " clip-rule="nonzero"/></clipPath></defs><g clip-path="url(#353fa87a07)"><path fill="#000000" d="M 140.253906 255.878906 C 140.234375 255.863281 140.222656 255.855469 140.199219 255.871094 C 140.183594 255.886719 140.164062 255.882812 140.179688 255.917969 C 140.195312 255.957031 140.167969 256 140.136719 255.996094 C 140.042969 255.984375 139.996094 256.058594 139.933594 256.09375 C 139.847656 256.140625 139.785156 256.222656 139.703125 256.273438 C 139.648438 256.300781 139.59375 256.328125 139.574219 256.394531 C 139.570312 256.40625 139.53125 256.417969 139.527344 256.445312 C 139.453125 256.433594 139.433594 256.515625 139.386719 256.550781 C 139.363281 256.566406 139.328125 256.625 139.308594 256.644531 C 139.140625 256.800781 139.035156 257.003906 138.890625 257.171875 C 138.828125 257.246094 138.777344 257.328125 138.722656 257.40625 C 138.65625 257.5 138.578125 257.589844 138.507812 257.6875 C 138.453125 257.765625 138.402344 257.847656 138.339844 257.921875 C 138.273438 258.003906 138.222656 258.097656 138.171875 258.191406 C 138.121094 258.277344 138.066406 258.359375 138.011719 258.445312 C 137.984375 258.492188 137.921875 258.546875 137.917969 258.582031 C 137.898438 258.667969 137.832031 258.71875 137.800781 258.792969 C 137.746094 258.90625 137.683594 259.019531 137.613281 259.125 C 137.558594 259.207031 137.535156 259.304688 137.46875 259.382812 C 137.433594 259.433594 137.398438 259.515625 137.382812 259.597656 C 137.371094 259.652344 137.308594 259.722656 137.277344 259.792969 C 137.25 259.847656 137.210938 259.898438 137.195312 259.957031 C 137.179688 260.015625 137.15625 260.074219 137.136719 260.128906 C 137.117188 260.195312 137.089844 260.28125 137.035156 260.34375 C 137.003906 260.375 137.023438 260.433594 137.003906 260.46875 C 136.980469 260.523438 136.941406 260.566406 136.945312 260.632812 C 136.949219 260.648438 136.929688 260.640625 136.921875 260.644531 C 136.882812 260.660156 136.925781 260.664062 136.925781 260.667969 C 136.859375 260.742188 136.871094 260.640625 136.867188 260.632812 C 136.820312 260.535156 136.796875 260.425781 136.757812 260.320312 C 136.667969 260.082031 136.597656 259.832031 136.488281 259.597656 C 136.457031 259.539062 136.417969 259.492188 136.367188 259.457031 C 136.351562 259.445312 136.347656 259.4375 136.324219 259.453125 C 136.253906 259.5 136.335938 259.511719 136.335938 259.542969 C 136.269531 259.578125 136.265625 259.628906 136.324219 259.675781 C 136.347656 259.691406 136.382812 259.695312 136.394531 259.726562 C 136.453125 259.902344 136.523438 260.074219 136.574219 260.25 C 136.617188 260.410156 136.675781 260.5625 136.71875 260.71875 C 136.742188 260.824219 136.820312 260.921875 136.765625 261.046875 C 136.761719 261.0625 136.699219 261.125 136.765625 261.164062 C 136.730469 261.15625 136.707031 261.132812 136.699219 261.09375 C 136.625 260.824219 136.546875 260.550781 136.46875 260.277344 C 136.410156 260.09375 136.355469 259.910156 136.269531 259.734375 C 136.253906 259.699219 136.21875 259.691406 136.1875 259.6875 C 136.210938 259.753906 136.132812 259.722656 136.128906 259.746094 C 136.121094 259.8125 136.035156 259.804688 136.023438 259.878906 C 136.015625 259.910156 136.007812 260.03125 135.886719 259.992188 C 135.921875 260.015625 135.933594 260.039062 135.941406 260.066406 C 135.914062 260.074219 135.898438 260.035156 135.871094 260.0625 C 135.84375 260.089844 135.867188 260.109375 135.875 260.128906 C 135.890625 260.175781 135.910156 260.222656 135.921875 260.269531 C 135.945312 260.394531 135.976562 260.515625 136.003906 260.640625 C 136.042969 260.828125 136.085938 261.019531 136.121094 261.210938 C 136.160156 261.4375 136.210938 261.660156 136.269531 261.878906 C 136.308594 262.035156 136.363281 262.191406 136.40625 262.347656 C 136.433594 262.449219 136.480469 262.523438 136.585938 262.558594 C 136.679688 262.597656 136.695312 262.585938 136.691406 262.480469 C 136.691406 262.4375 136.707031 262.390625 136.742188 262.375 C 136.789062 262.355469 136.78125 262.359375 136.789062 262.292969 C 136.789062 262.257812 136.785156 262.179688 136.855469 262.191406 C 136.886719 262.195312 136.886719 262.175781 136.886719 262.167969 C 136.894531 262.109375 136.929688 262.066406 136.941406 262.007812 C 136.945312 261.976562 136.925781 261.902344 137.007812 261.925781 C 136.988281 261.886719 137.042969 261.855469 137.007812 261.808594 C 136.996094 261.792969 137.019531 261.738281 137.03125 261.707031 C 137.050781 261.667969 137.078125 261.703125 137.101562 261.699219 C 137.125 261.695312 137.164062 261.730469 137.175781 261.679688 C 137.195312 261.589844 137.226562 261.503906 137.238281 261.40625 C 137.265625 261.222656 137.292969 261.039062 137.347656 260.863281 C 137.398438 260.695312 137.433594 260.519531 137.496094 260.355469 C 137.578125 260.132812 137.679688 259.914062 137.773438 259.695312 C 137.824219 259.578125 137.902344 259.476562 137.957031 259.363281 C 138.015625 259.246094 138.074219 259.132812 138.140625 259.023438 C 138.25 258.84375 138.359375 258.664062 138.46875 258.488281 C 138.539062 258.378906 138.621094 258.273438 138.691406 258.167969 C 138.75 258.089844 138.800781 258.007812 138.859375 257.929688 C 138.980469 257.765625 139.101562 257.601562 139.222656 257.433594 C 139.261719 257.378906 139.324219 257.335938 139.351562 257.28125 C 139.386719 257.210938 139.433594 257.148438 139.488281 257.089844 C 139.574219 257 139.640625 256.894531 139.726562 256.804688 C 139.828125 256.695312 139.921875 256.574219 140.023438 256.460938 C 140.113281 256.359375 140.207031 256.257812 140.285156 256.140625 C 140.34375 256.054688 140.332031 255.953125 140.253906 255.878906 Z M 136.289062 259.996094 C 136.289062 259.992188 136.289062 259.992188 136.289062 259.992188 C 136.25 259.949219 136.25 259.894531 136.238281 259.84375 C 136.273438 259.886719 136.289062 259.933594 136.289062 259.992188 C 136.289062 259.992188 136.289062 259.992188 136.292969 259.992188 L 136.289062 259.992188 L 136.292969 259.992188 C 136.289062 259.996094 136.289062 259.996094 136.289062 259.996094 L 136.332031 260.0625 C 136.28125 260.054688 136.289062 260.023438 136.289062 259.996094 Z M 136.335938 260.171875 C 136.324219 260.136719 136.320312 260.113281 136.3125 260.082031 C 136.355469 260.105469 136.339844 260.132812 136.335938 260.171875 Z M 136.402344 260.332031 C 136.410156 260.386719 136.453125 260.394531 136.449219 260.4375 C 136.398438 260.414062 136.398438 260.414062 136.402344 260.332031 Z M 136.546875 260.945312 C 136.542969 260.917969 136.539062 260.890625 136.535156 260.867188 C 136.535156 260.863281 136.550781 260.855469 136.550781 260.855469 C 136.570312 260.882812 136.570312 260.910156 136.546875 260.945312 Z M 136.601562 261.121094 L 136.578125 261.035156 C 136.621094 261.074219 136.605469 261.097656 136.601562 261.121094 Z M 136.65625 261.347656 L 136.617188 261.144531 C 136.675781 261.21875 136.660156 261.285156 136.65625 261.347656 Z M 136.65625 261.347656 " fill-opacity="1" fill-rule="nonzero"/></g><path fill="#00bfff" d="M 246.191406 102.640625 L 187.5 161.328125 L 128.808594 102.640625 L 102.640625 128.808594 L 161.328125 187.5 L 102.640625 246.191406 L 128.808594 272.359375 L 187.5 213.667969 L 246.191406 272.359375 L 272.359375 246.191406 L 213.667969 187.5 L 272.359375 128.808594 L 246.191406 102.640625 " fill-opacity="1" fill-rule="nonzero"/><g clip-path="url(#6b52ba3caf)"><path fill="#00bfff" d="M 319.78125 243.367188 C 316.1875 251.867188 311.734375 260.066406 306.550781 267.742188 C 301.410156 275.347656 295.507812 282.5 289.003906 289.003906 C 282.503906 295.507812 275.347656 301.410156 267.742188 306.550781 C 260.066406 311.734375 251.867188 316.183594 243.367188 319.78125 C 234.714844 323.4375 225.664062 326.25 216.457031 328.132812 C 207 330.070312 197.257812 331.050781 187.5 331.050781 C 177.742188 331.050781 168 330.070312 158.539062 328.132812 C 149.335938 326.25 140.28125 323.4375 131.632812 319.78125 C 123.128906 316.183594 114.929688 311.734375 107.257812 306.550781 C 99.652344 301.410156 92.496094 295.507812 85.992188 289.003906 C 79.492188 282.5 73.585938 275.347656 68.449219 267.742188 C 63.265625 260.066406 58.8125 251.867188 55.21875 243.367188 C 51.558594 234.714844 48.75 225.664062 46.863281 216.457031 C 44.929688 207 43.949219 197.257812 43.949219 187.5 C 43.949219 177.742188 44.929688 168 46.863281 158.539062 C 48.75 149.335938 51.558594 140.28125 55.21875 131.632812 C 58.8125 123.128906 63.265625 114.929688 68.449219 107.257812 C 73.585938 99.652344 79.492188 92.496094 85.992188 85.992188 C 92.496094 79.492188 99.652344 73.589844 107.257812 68.449219 C 114.929688 63.265625 123.128906 58.8125 131.632812 55.214844 C 140.28125 51.558594 149.335938 48.75 158.539062 46.863281 C 168 44.929688 177.742188 43.945312 187.5 43.945312 C 197.257812 43.945312 207 44.929688 216.457031 46.863281 C 225.664062 48.75 234.714844 51.558594 243.367188 55.214844 C 251.867188 58.8125 260.066406 63.265625 267.742188 68.449219 C 275.347656 73.589844 282.503906 79.492188 289.003906 85.992188 C 295.507812 92.496094 301.410156 99.652344 306.550781 107.257812 C 311.734375 114.929688 316.1875 123.128906 319.78125 131.632812 C 323.441406 140.28125 326.25 149.335938 328.132812 158.539062 C 330.066406 168 331.050781 177.742188 331.050781 187.5 C 331.050781 197.257812 330.066406 207 328.132812 216.457031 C 326.25 225.664062 323.441406 234.714844 319.78125 243.367188 Z M 187.5 17.03125 C 93.351562 17.03125 17.03125 93.351562 17.03125 187.5 C 17.03125 281.644531 93.351562 357.964844 187.5 357.964844 C 281.644531 357.964844 357.964844 281.644531 357.964844 187.5 C 357.964844 93.351562 281.644531 17.03125 187.5 17.03125 " fill-opacity="1" fill-rule="nonzero"/></g></svg>